G04 #@! TF.FileFunction,Legend,Top*
%FSLAX46Y46*%
G04 Gerber Fmt 4.6, Leading zero omitted, Abs format (unit mm)*
G04 Created by KiCad (PCBNEW 4.0.7-e2-6376~58~ubuntu17.04.1) date Mon Oct 30 22:15:39 2017*
%MOMM*%
%LPD*%
G01*
G04 APERTURE LIST*
%ADD10C,0.100000*%
%ADD11C,0.300000*%
%ADD12C,0.120000*%
%ADD13C,0.150000*%
G04 APERTURE END LIST*
D10*
D11*
X147050000Y-122598571D02*
X147050000Y-121098571D01*
X147050000Y-122527143D02*
X146907143Y-122598571D01*
X146621429Y-122598571D01*
X146478571Y-122527143D01*
X146407143Y-122455714D01*
X146335714Y-122312857D01*
X146335714Y-121884286D01*
X146407143Y-121741429D01*
X146478571Y-121670000D01*
X146621429Y-121598571D01*
X146907143Y-121598571D01*
X147050000Y-121670000D01*
X147978572Y-122598571D02*
X147835714Y-122527143D01*
X147764286Y-122455714D01*
X147692857Y-122312857D01*
X147692857Y-121884286D01*
X147764286Y-121741429D01*
X147835714Y-121670000D01*
X147978572Y-121598571D01*
X148192857Y-121598571D01*
X148335714Y-121670000D01*
X148407143Y-121741429D01*
X148478572Y-121884286D01*
X148478572Y-122312857D01*
X148407143Y-122455714D01*
X148335714Y-122527143D01*
X148192857Y-122598571D01*
X147978572Y-122598571D01*
X149121429Y-122598571D02*
X149121429Y-121598571D01*
X149121429Y-121741429D02*
X149192857Y-121670000D01*
X149335715Y-121598571D01*
X149550000Y-121598571D01*
X149692857Y-121670000D01*
X149764286Y-121812857D01*
X149764286Y-122598571D01*
X149764286Y-121812857D02*
X149835715Y-121670000D01*
X149978572Y-121598571D01*
X150192857Y-121598571D01*
X150335715Y-121670000D01*
X150407143Y-121812857D01*
X150407143Y-122598571D01*
X151692857Y-122527143D02*
X151550000Y-122598571D01*
X151264286Y-122598571D01*
X151121429Y-122527143D01*
X151050000Y-122384286D01*
X151050000Y-121812857D01*
X151121429Y-121670000D01*
X151264286Y-121598571D01*
X151550000Y-121598571D01*
X151692857Y-121670000D01*
X151764286Y-121812857D01*
X151764286Y-121955714D01*
X151050000Y-122098571D01*
X152407143Y-121598571D02*
X152407143Y-122598571D01*
X152407143Y-121741429D02*
X152478571Y-121670000D01*
X152621429Y-121598571D01*
X152835714Y-121598571D01*
X152978571Y-121670000D01*
X153050000Y-121812857D01*
X153050000Y-122598571D01*
X153764286Y-122455714D02*
X153835714Y-122527143D01*
X153764286Y-122598571D01*
X153692857Y-122527143D01*
X153764286Y-122455714D01*
X153764286Y-122598571D01*
X154478572Y-122598571D02*
X154478572Y-121598571D01*
X154478572Y-121098571D02*
X154407143Y-121170000D01*
X154478572Y-121241429D01*
X154550000Y-121170000D01*
X154478572Y-121098571D01*
X154478572Y-121241429D01*
X155192858Y-121598571D02*
X155192858Y-123098571D01*
X155192858Y-121670000D02*
X155335715Y-121598571D01*
X155621429Y-121598571D01*
X155764286Y-121670000D01*
X155835715Y-121741429D01*
X155907144Y-121884286D01*
X155907144Y-122312857D01*
X155835715Y-122455714D01*
X155764286Y-122527143D01*
X155621429Y-122598571D01*
X155335715Y-122598571D01*
X155192858Y-122527143D01*
X157192858Y-122598571D02*
X157192858Y-121812857D01*
X157121429Y-121670000D01*
X156978572Y-121598571D01*
X156692858Y-121598571D01*
X156550001Y-121670000D01*
X157192858Y-122527143D02*
X157050001Y-122598571D01*
X156692858Y-122598571D01*
X156550001Y-122527143D01*
X156478572Y-122384286D01*
X156478572Y-122241429D01*
X156550001Y-122098571D01*
X156692858Y-122027143D01*
X157050001Y-122027143D01*
X157192858Y-121955714D01*
X157764287Y-121598571D02*
X158121430Y-122598571D01*
X158478572Y-121598571D01*
X159621429Y-122527143D02*
X159478572Y-122598571D01*
X159192858Y-122598571D01*
X159050001Y-122527143D01*
X158978572Y-122384286D01*
X158978572Y-121812857D01*
X159050001Y-121670000D01*
X159192858Y-121598571D01*
X159478572Y-121598571D01*
X159621429Y-121670000D01*
X159692858Y-121812857D01*
X159692858Y-121955714D01*
X158978572Y-122098571D01*
X160978572Y-122527143D02*
X160835715Y-122598571D01*
X160550001Y-122598571D01*
X160407143Y-122527143D01*
X160335715Y-122455714D01*
X160264286Y-122312857D01*
X160264286Y-121884286D01*
X160335715Y-121741429D01*
X160407143Y-121670000D01*
X160550001Y-121598571D01*
X160835715Y-121598571D01*
X160978572Y-121670000D01*
X161621429Y-122455714D02*
X161692857Y-122527143D01*
X161621429Y-122598571D01*
X161550000Y-122527143D01*
X161621429Y-122455714D01*
X161621429Y-122598571D01*
X162335715Y-121598571D02*
X162335715Y-122598571D01*
X162335715Y-121741429D02*
X162407143Y-121670000D01*
X162550001Y-121598571D01*
X162764286Y-121598571D01*
X162907143Y-121670000D01*
X162978572Y-121812857D01*
X162978572Y-122598571D01*
X164264286Y-122527143D02*
X164121429Y-122598571D01*
X163835715Y-122598571D01*
X163692858Y-122527143D01*
X163621429Y-122384286D01*
X163621429Y-121812857D01*
X163692858Y-121670000D01*
X163835715Y-121598571D01*
X164121429Y-121598571D01*
X164264286Y-121670000D01*
X164335715Y-121812857D01*
X164335715Y-121955714D01*
X163621429Y-122098571D01*
X164764286Y-121598571D02*
X165335715Y-121598571D01*
X164978572Y-121098571D02*
X164978572Y-122384286D01*
X165050000Y-122527143D01*
X165192858Y-122598571D01*
X165335715Y-122598571D01*
X179252858Y-103405714D02*
X179181429Y-103477143D01*
X178967143Y-103548571D01*
X178824286Y-103548571D01*
X178610001Y-103477143D01*
X178467143Y-103334286D01*
X178395715Y-103191429D01*
X178324286Y-102905714D01*
X178324286Y-102691429D01*
X178395715Y-102405714D01*
X178467143Y-102262857D01*
X178610001Y-102120000D01*
X178824286Y-102048571D01*
X178967143Y-102048571D01*
X179181429Y-102120000D01*
X179252858Y-102191429D01*
X180181429Y-102048571D02*
X180467143Y-102048571D01*
X180610001Y-102120000D01*
X180752858Y-102262857D01*
X180824286Y-102548571D01*
X180824286Y-103048571D01*
X180752858Y-103334286D01*
X180610001Y-103477143D01*
X180467143Y-103548571D01*
X180181429Y-103548571D01*
X180038572Y-103477143D01*
X179895715Y-103334286D01*
X179824286Y-103048571D01*
X179824286Y-102548571D01*
X179895715Y-102262857D01*
X180038572Y-102120000D01*
X180181429Y-102048571D01*
X182181430Y-103548571D02*
X181467144Y-103548571D01*
X181467144Y-102048571D01*
X182610001Y-103477143D02*
X182824287Y-103548571D01*
X183181430Y-103548571D01*
X183324287Y-103477143D01*
X183395716Y-103405714D01*
X183467144Y-103262857D01*
X183467144Y-103120000D01*
X183395716Y-102977143D01*
X183324287Y-102905714D01*
X183181430Y-102834286D01*
X182895716Y-102762857D01*
X182752858Y-102691429D01*
X182681430Y-102620000D01*
X182610001Y-102477143D01*
X182610001Y-102334286D01*
X182681430Y-102191429D01*
X182752858Y-102120000D01*
X182895716Y-102048571D01*
X183252858Y-102048571D01*
X183467144Y-102120000D01*
X184038572Y-102191429D02*
X184110001Y-102120000D01*
X184252858Y-102048571D01*
X184610001Y-102048571D01*
X184752858Y-102120000D01*
X184824287Y-102191429D01*
X184895715Y-102334286D01*
X184895715Y-102477143D01*
X184824287Y-102691429D01*
X183967144Y-103548571D01*
X184895715Y-103548571D01*
X172271429Y-102242857D02*
X172271429Y-102528571D01*
X172200000Y-102671429D01*
X172057143Y-102814286D01*
X171771429Y-102885714D01*
X171271429Y-102885714D01*
X170985714Y-102814286D01*
X170842857Y-102671429D01*
X170771429Y-102528571D01*
X170771429Y-102242857D01*
X170842857Y-102100000D01*
X170985714Y-101957143D01*
X171271429Y-101885714D01*
X171771429Y-101885714D01*
X172057143Y-101957143D01*
X172200000Y-102100000D01*
X172271429Y-102242857D01*
X171557143Y-103528572D02*
X171557143Y-104028572D01*
X170771429Y-104242858D02*
X170771429Y-103528572D01*
X172271429Y-103528572D01*
X172271429Y-104242858D01*
X165762857Y-101885714D02*
X165691429Y-102100000D01*
X165691429Y-102457143D01*
X165762857Y-102600000D01*
X165834286Y-102671429D01*
X165977143Y-102742857D01*
X166120000Y-102742857D01*
X166262857Y-102671429D01*
X166334286Y-102600000D01*
X166405714Y-102457143D01*
X166477143Y-102171429D01*
X166548571Y-102028571D01*
X166620000Y-101957143D01*
X166762857Y-101885714D01*
X166905714Y-101885714D01*
X167048571Y-101957143D01*
X167120000Y-102028571D01*
X167191429Y-102171429D01*
X167191429Y-102528571D01*
X167120000Y-102742857D01*
X165691429Y-103385714D02*
X167191429Y-103385714D01*
X167191429Y-103742857D01*
X167120000Y-103957142D01*
X166977143Y-104100000D01*
X166834286Y-104171428D01*
X166548571Y-104242857D01*
X166334286Y-104242857D01*
X166048571Y-104171428D01*
X165905714Y-104100000D01*
X165762857Y-103957142D01*
X165691429Y-103742857D01*
X165691429Y-103385714D01*
X165691429Y-104885714D02*
X167191429Y-104885714D01*
X160682857Y-101885714D02*
X160611429Y-102100000D01*
X160611429Y-102457143D01*
X160682857Y-102600000D01*
X160754286Y-102671429D01*
X160897143Y-102742857D01*
X161040000Y-102742857D01*
X161182857Y-102671429D01*
X161254286Y-102600000D01*
X161325714Y-102457143D01*
X161397143Y-102171429D01*
X161468571Y-102028571D01*
X161540000Y-101957143D01*
X161682857Y-101885714D01*
X161825714Y-101885714D01*
X161968571Y-101957143D01*
X162040000Y-102028571D01*
X162111429Y-102171429D01*
X162111429Y-102528571D01*
X162040000Y-102742857D01*
X160754286Y-104242857D02*
X160682857Y-104171428D01*
X160611429Y-103957142D01*
X160611429Y-103814285D01*
X160682857Y-103600000D01*
X160825714Y-103457142D01*
X160968571Y-103385714D01*
X161254286Y-103314285D01*
X161468571Y-103314285D01*
X161754286Y-103385714D01*
X161897143Y-103457142D01*
X162040000Y-103600000D01*
X162111429Y-103814285D01*
X162111429Y-103957142D01*
X162040000Y-104171428D01*
X161968571Y-104242857D01*
X160611429Y-104885714D02*
X162111429Y-104885714D01*
X160611429Y-105742857D02*
X161468571Y-105100000D01*
X162111429Y-105742857D02*
X161254286Y-104885714D01*
X152201429Y-103548571D02*
X151487143Y-103548571D01*
X151487143Y-102048571D01*
X152630000Y-103120000D02*
X153344286Y-103120000D01*
X152487143Y-103548571D02*
X152987143Y-102048571D01*
X153487143Y-103548571D01*
X153772857Y-102048571D02*
X154630000Y-102048571D01*
X154201429Y-103548571D02*
X154201429Y-102048571D01*
X155987143Y-103405714D02*
X155915714Y-103477143D01*
X155701428Y-103548571D01*
X155558571Y-103548571D01*
X155344286Y-103477143D01*
X155201428Y-103334286D01*
X155130000Y-103191429D01*
X155058571Y-102905714D01*
X155058571Y-102691429D01*
X155130000Y-102405714D01*
X155201428Y-102262857D01*
X155344286Y-102120000D01*
X155558571Y-102048571D01*
X155701428Y-102048571D01*
X155915714Y-102120000D01*
X155987143Y-102191429D01*
X156630000Y-103548571D02*
X156630000Y-102048571D01*
X156630000Y-102762857D02*
X157487143Y-102762857D01*
X157487143Y-103548571D02*
X157487143Y-102048571D01*
X138612858Y-103405714D02*
X138541429Y-103477143D01*
X138327143Y-103548571D01*
X138184286Y-103548571D01*
X137970001Y-103477143D01*
X137827143Y-103334286D01*
X137755715Y-103191429D01*
X137684286Y-102905714D01*
X137684286Y-102691429D01*
X137755715Y-102405714D01*
X137827143Y-102262857D01*
X137970001Y-102120000D01*
X138184286Y-102048571D01*
X138327143Y-102048571D01*
X138541429Y-102120000D01*
X138612858Y-102191429D01*
X139541429Y-102048571D02*
X139827143Y-102048571D01*
X139970001Y-102120000D01*
X140112858Y-102262857D01*
X140184286Y-102548571D01*
X140184286Y-103048571D01*
X140112858Y-103334286D01*
X139970001Y-103477143D01*
X139827143Y-103548571D01*
X139541429Y-103548571D01*
X139398572Y-103477143D01*
X139255715Y-103334286D01*
X139184286Y-103048571D01*
X139184286Y-102548571D01*
X139255715Y-102262857D01*
X139398572Y-102120000D01*
X139541429Y-102048571D01*
X141541430Y-103548571D02*
X140827144Y-103548571D01*
X140827144Y-102048571D01*
X141970001Y-103477143D02*
X142184287Y-103548571D01*
X142541430Y-103548571D01*
X142684287Y-103477143D01*
X142755716Y-103405714D01*
X142827144Y-103262857D01*
X142827144Y-103120000D01*
X142755716Y-102977143D01*
X142684287Y-102905714D01*
X142541430Y-102834286D01*
X142255716Y-102762857D01*
X142112858Y-102691429D01*
X142041430Y-102620000D01*
X141970001Y-102477143D01*
X141970001Y-102334286D01*
X142041430Y-102191429D01*
X142112858Y-102120000D01*
X142255716Y-102048571D01*
X142612858Y-102048571D01*
X142827144Y-102120000D01*
X144255715Y-103548571D02*
X143398572Y-103548571D01*
X143827144Y-103548571D02*
X143827144Y-102048571D01*
X143684287Y-102262857D01*
X143541429Y-102405714D01*
X143398572Y-102477143D01*
X126480000Y-102742857D02*
X126551429Y-102600000D01*
X126551429Y-102385714D01*
X126480000Y-102171429D01*
X126337143Y-102028571D01*
X126194286Y-101957143D01*
X125908571Y-101885714D01*
X125694286Y-101885714D01*
X125408571Y-101957143D01*
X125265714Y-102028571D01*
X125122857Y-102171429D01*
X125051429Y-102385714D01*
X125051429Y-102528571D01*
X125122857Y-102742857D01*
X125194286Y-102814286D01*
X125694286Y-102814286D01*
X125694286Y-102528571D01*
X125051429Y-103457143D02*
X126551429Y-103457143D01*
X125051429Y-104314286D01*
X126551429Y-104314286D01*
X125051429Y-105028572D02*
X126551429Y-105028572D01*
X126551429Y-105385715D01*
X126480000Y-105600000D01*
X126337143Y-105742858D01*
X126194286Y-105814286D01*
X125908571Y-105885715D01*
X125694286Y-105885715D01*
X125408571Y-105814286D01*
X125265714Y-105742858D01*
X125122857Y-105600000D01*
X125051429Y-105385715D01*
X125051429Y-105028572D01*
X120542857Y-101957143D02*
X120542857Y-103100000D01*
X119971429Y-102528571D02*
X121114286Y-102528571D01*
X121471429Y-104528572D02*
X121471429Y-103814286D01*
X120757143Y-103742857D01*
X120828571Y-103814286D01*
X120900000Y-103957143D01*
X120900000Y-104314286D01*
X120828571Y-104457143D01*
X120757143Y-104528572D01*
X120614286Y-104600000D01*
X120257143Y-104600000D01*
X120114286Y-104528572D01*
X120042857Y-104457143D01*
X119971429Y-104314286D01*
X119971429Y-103957143D01*
X120042857Y-103814286D01*
X120114286Y-103742857D01*
X121471429Y-105028571D02*
X119971429Y-105528571D01*
X121471429Y-106028571D01*
D12*
X140879136Y-113487820D02*
G75*
G03X140880000Y-107452518I-1179136J3017820D01*
G01*
X138520864Y-113487820D02*
G75*
G02X138520000Y-107452518I1179136J3017820D01*
G01*
X138520864Y-113487820D02*
G75*
G03X140880000Y-113487482I1179136J3017820D01*
G01*
X142900000Y-110470000D02*
X136500000Y-110470000D01*
X142900000Y-110510000D02*
X136500000Y-110510000D01*
X142900000Y-110550000D02*
X136500000Y-110550000D01*
X142898000Y-110590000D02*
X136502000Y-110590000D01*
X142897000Y-110630000D02*
X136503000Y-110630000D01*
X142894000Y-110670000D02*
X136506000Y-110670000D01*
X142892000Y-110710000D02*
X136508000Y-110710000D01*
X142888000Y-110750000D02*
X140680000Y-110750000D01*
X138720000Y-110750000D02*
X136512000Y-110750000D01*
X142885000Y-110790000D02*
X140680000Y-110790000D01*
X138720000Y-110790000D02*
X136515000Y-110790000D01*
X142880000Y-110830000D02*
X140680000Y-110830000D01*
X138720000Y-110830000D02*
X136520000Y-110830000D01*
X142876000Y-110870000D02*
X140680000Y-110870000D01*
X138720000Y-110870000D02*
X136524000Y-110870000D01*
X142870000Y-110910000D02*
X140680000Y-110910000D01*
X138720000Y-110910000D02*
X136530000Y-110910000D01*
X142865000Y-110950000D02*
X140680000Y-110950000D01*
X138720000Y-110950000D02*
X136535000Y-110950000D01*
X142858000Y-110990000D02*
X140680000Y-110990000D01*
X138720000Y-110990000D02*
X136542000Y-110990000D01*
X142852000Y-111030000D02*
X140680000Y-111030000D01*
X138720000Y-111030000D02*
X136548000Y-111030000D01*
X142844000Y-111070000D02*
X140680000Y-111070000D01*
X138720000Y-111070000D02*
X136556000Y-111070000D01*
X142837000Y-111110000D02*
X140680000Y-111110000D01*
X138720000Y-111110000D02*
X136563000Y-111110000D01*
X142828000Y-111150000D02*
X140680000Y-111150000D01*
X138720000Y-111150000D02*
X136572000Y-111150000D01*
X142819000Y-111191000D02*
X140680000Y-111191000D01*
X138720000Y-111191000D02*
X136581000Y-111191000D01*
X142810000Y-111231000D02*
X140680000Y-111231000D01*
X138720000Y-111231000D02*
X136590000Y-111231000D01*
X142800000Y-111271000D02*
X140680000Y-111271000D01*
X138720000Y-111271000D02*
X136600000Y-111271000D01*
X142790000Y-111311000D02*
X140680000Y-111311000D01*
X138720000Y-111311000D02*
X136610000Y-111311000D01*
X142779000Y-111351000D02*
X140680000Y-111351000D01*
X138720000Y-111351000D02*
X136621000Y-111351000D01*
X142767000Y-111391000D02*
X140680000Y-111391000D01*
X138720000Y-111391000D02*
X136633000Y-111391000D01*
X142755000Y-111431000D02*
X140680000Y-111431000D01*
X138720000Y-111431000D02*
X136645000Y-111431000D01*
X142742000Y-111471000D02*
X140680000Y-111471000D01*
X138720000Y-111471000D02*
X136658000Y-111471000D01*
X142729000Y-111511000D02*
X140680000Y-111511000D01*
X138720000Y-111511000D02*
X136671000Y-111511000D01*
X142715000Y-111551000D02*
X140680000Y-111551000D01*
X138720000Y-111551000D02*
X136685000Y-111551000D01*
X142701000Y-111591000D02*
X140680000Y-111591000D01*
X138720000Y-111591000D02*
X136699000Y-111591000D01*
X142686000Y-111631000D02*
X140680000Y-111631000D01*
X138720000Y-111631000D02*
X136714000Y-111631000D01*
X142670000Y-111671000D02*
X140680000Y-111671000D01*
X138720000Y-111671000D02*
X136730000Y-111671000D01*
X142654000Y-111711000D02*
X140680000Y-111711000D01*
X138720000Y-111711000D02*
X136746000Y-111711000D01*
X142637000Y-111751000D02*
X140680000Y-111751000D01*
X138720000Y-111751000D02*
X136763000Y-111751000D01*
X142619000Y-111791000D02*
X140680000Y-111791000D01*
X138720000Y-111791000D02*
X136781000Y-111791000D01*
X142601000Y-111831000D02*
X140680000Y-111831000D01*
X138720000Y-111831000D02*
X136799000Y-111831000D01*
X142582000Y-111871000D02*
X140680000Y-111871000D01*
X138720000Y-111871000D02*
X136818000Y-111871000D01*
X142563000Y-111911000D02*
X140680000Y-111911000D01*
X138720000Y-111911000D02*
X136837000Y-111911000D01*
X142543000Y-111951000D02*
X140680000Y-111951000D01*
X138720000Y-111951000D02*
X136857000Y-111951000D01*
X142522000Y-111991000D02*
X140680000Y-111991000D01*
X138720000Y-111991000D02*
X136878000Y-111991000D01*
X142500000Y-112031000D02*
X140680000Y-112031000D01*
X138720000Y-112031000D02*
X136900000Y-112031000D01*
X142478000Y-112071000D02*
X140680000Y-112071000D01*
X138720000Y-112071000D02*
X136922000Y-112071000D01*
X142455000Y-112111000D02*
X140680000Y-112111000D01*
X138720000Y-112111000D02*
X136945000Y-112111000D01*
X142431000Y-112151000D02*
X140680000Y-112151000D01*
X138720000Y-112151000D02*
X136969000Y-112151000D01*
X142406000Y-112191000D02*
X140680000Y-112191000D01*
X138720000Y-112191000D02*
X136994000Y-112191000D01*
X142381000Y-112231000D02*
X140680000Y-112231000D01*
X138720000Y-112231000D02*
X137019000Y-112231000D01*
X142354000Y-112271000D02*
X140680000Y-112271000D01*
X138720000Y-112271000D02*
X137046000Y-112271000D01*
X142327000Y-112311000D02*
X140680000Y-112311000D01*
X138720000Y-112311000D02*
X137073000Y-112311000D01*
X142299000Y-112351000D02*
X140680000Y-112351000D01*
X138720000Y-112351000D02*
X137101000Y-112351000D01*
X142270000Y-112391000D02*
X140680000Y-112391000D01*
X138720000Y-112391000D02*
X137130000Y-112391000D01*
X142240000Y-112431000D02*
X140680000Y-112431000D01*
X138720000Y-112431000D02*
X137160000Y-112431000D01*
X142210000Y-112471000D02*
X140680000Y-112471000D01*
X138720000Y-112471000D02*
X137190000Y-112471000D01*
X142178000Y-112511000D02*
X140680000Y-112511000D01*
X138720000Y-112511000D02*
X137222000Y-112511000D01*
X142145000Y-112551000D02*
X140680000Y-112551000D01*
X138720000Y-112551000D02*
X137255000Y-112551000D01*
X142111000Y-112591000D02*
X140680000Y-112591000D01*
X138720000Y-112591000D02*
X137289000Y-112591000D01*
X142075000Y-112631000D02*
X140680000Y-112631000D01*
X138720000Y-112631000D02*
X137325000Y-112631000D01*
X142039000Y-112671000D02*
X140680000Y-112671000D01*
X138720000Y-112671000D02*
X137361000Y-112671000D01*
X142001000Y-112711000D02*
X137399000Y-112711000D01*
X141962000Y-112751000D02*
X137438000Y-112751000D01*
X141922000Y-112791000D02*
X137478000Y-112791000D01*
X141880000Y-112831000D02*
X137520000Y-112831000D01*
X141837000Y-112871000D02*
X137563000Y-112871000D01*
X141792000Y-112911000D02*
X137608000Y-112911000D01*
X141745000Y-112951000D02*
X137655000Y-112951000D01*
X141697000Y-112991000D02*
X137703000Y-112991000D01*
X141646000Y-113031000D02*
X137754000Y-113031000D01*
X141594000Y-113071000D02*
X137806000Y-113071000D01*
X141539000Y-113111000D02*
X137861000Y-113111000D01*
X141481000Y-113151000D02*
X137919000Y-113151000D01*
X141421000Y-113191000D02*
X137979000Y-113191000D01*
X141358000Y-113231000D02*
X138042000Y-113231000D01*
X141291000Y-113271000D02*
X138109000Y-113271000D01*
X141220000Y-113311000D02*
X138180000Y-113311000D01*
X141145000Y-113351000D02*
X138255000Y-113351000D01*
X141064000Y-113391000D02*
X138336000Y-113391000D01*
X140978000Y-113431000D02*
X138422000Y-113431000D01*
X140884000Y-113471000D02*
X138516000Y-113471000D01*
X140781000Y-113511000D02*
X138619000Y-113511000D01*
X140666000Y-113551000D02*
X138734000Y-113551000D01*
X140534000Y-113591000D02*
X138866000Y-113591000D01*
X140376000Y-113631000D02*
X139024000Y-113631000D01*
X140168000Y-113671000D02*
X139232000Y-113671000D01*
X139700000Y-107020000D02*
X139700000Y-108220000D01*
X140350000Y-107620000D02*
X139050000Y-107620000D01*
X161960000Y-113380000D02*
X161960000Y-112680000D01*
X163160000Y-112680000D02*
X163160000Y-113380000D01*
D13*
X119380000Y-125095000D02*
X123825000Y-125095000D01*
X130175000Y-125095000D02*
X134620000Y-125095000D01*
X123825000Y-125095000D02*
X123825000Y-123825000D01*
X123825000Y-123825000D02*
X130175000Y-123825000D01*
X130175000Y-123825000D02*
X130175000Y-125095000D01*
X119380000Y-125095000D02*
X119380000Y-107315000D01*
X119380000Y-107315000D02*
X134620000Y-107315000D01*
X134620000Y-107315000D02*
X134620000Y-125095000D01*
D12*
X180280000Y-118170000D02*
X185480000Y-118170000D01*
X180280000Y-113030000D02*
X180280000Y-118170000D01*
X185480000Y-110430000D02*
X185480000Y-118170000D01*
X180280000Y-113030000D02*
X182880000Y-113030000D01*
X182880000Y-113030000D02*
X182880000Y-110430000D01*
X182880000Y-110430000D02*
X185480000Y-110430000D01*
X180280000Y-111760000D02*
X180280000Y-110430000D01*
X180280000Y-110430000D02*
X181610000Y-110430000D01*
D13*
X164460000Y-112565000D02*
X164485000Y-112565000D01*
X164460000Y-108415000D02*
X164575000Y-108415000D01*
X173360000Y-108415000D02*
X173245000Y-108415000D01*
X173360000Y-112565000D02*
X173245000Y-112565000D01*
X164460000Y-112565000D02*
X164460000Y-108415000D01*
X173360000Y-112565000D02*
X173360000Y-108415000D01*
X164485000Y-112565000D02*
X164485000Y-113940000D01*
X148395000Y-113265000D02*
X148670000Y-113265000D01*
X148395000Y-107715000D02*
X148750000Y-107715000D01*
X158945000Y-107715000D02*
X158590000Y-107715000D01*
X158945000Y-113265000D02*
X158590000Y-113265000D01*
X148395000Y-113265000D02*
X148395000Y-107715000D01*
X158945000Y-113265000D02*
X158945000Y-107715000D01*
X148670000Y-113265000D02*
X148670000Y-114790000D01*
D12*
X146650000Y-107600000D02*
X146650000Y-108300000D01*
X145450000Y-108300000D02*
X145450000Y-107600000D01*
D13*
X144517143Y-110636666D02*
X144564762Y-110684285D01*
X144612381Y-110827142D01*
X144612381Y-110922380D01*
X144564762Y-111065238D01*
X144469524Y-111160476D01*
X144374286Y-111208095D01*
X144183810Y-111255714D01*
X144040952Y-111255714D01*
X143850476Y-111208095D01*
X143755238Y-111160476D01*
X143660000Y-111065238D01*
X143612381Y-110922380D01*
X143612381Y-110827142D01*
X143660000Y-110684285D01*
X143707619Y-110636666D01*
X144612381Y-109684285D02*
X144612381Y-110255714D01*
X144612381Y-109970000D02*
X143612381Y-109970000D01*
X143755238Y-110065238D01*
X143850476Y-110160476D01*
X143898095Y-110255714D01*
X161667143Y-113196666D02*
X161714762Y-113244285D01*
X161762381Y-113387142D01*
X161762381Y-113482380D01*
X161714762Y-113625238D01*
X161619524Y-113720476D01*
X161524286Y-113768095D01*
X161333810Y-113815714D01*
X161190952Y-113815714D01*
X161000476Y-113768095D01*
X160905238Y-113720476D01*
X160810000Y-113625238D01*
X160762381Y-113482380D01*
X160762381Y-113387142D01*
X160810000Y-113244285D01*
X160857619Y-113196666D01*
X160857619Y-112815714D02*
X160810000Y-112768095D01*
X160762381Y-112672857D01*
X160762381Y-112434761D01*
X160810000Y-112339523D01*
X160857619Y-112291904D01*
X160952857Y-112244285D01*
X161048095Y-112244285D01*
X161190952Y-112291904D01*
X161762381Y-112863333D01*
X161762381Y-112244285D01*
X126666667Y-117427381D02*
X126666667Y-118141667D01*
X126619047Y-118284524D01*
X126523809Y-118379762D01*
X126380952Y-118427381D01*
X126285714Y-118427381D01*
X127190476Y-118427381D02*
X127380952Y-118427381D01*
X127476191Y-118379762D01*
X127523810Y-118332143D01*
X127619048Y-118189286D01*
X127666667Y-117998810D01*
X127666667Y-117617857D01*
X127619048Y-117522619D01*
X127571429Y-117475000D01*
X127476191Y-117427381D01*
X127285714Y-117427381D01*
X127190476Y-117475000D01*
X127142857Y-117522619D01*
X127095238Y-117617857D01*
X127095238Y-117855952D01*
X127142857Y-117951190D01*
X127190476Y-117998810D01*
X127285714Y-118046429D01*
X127476191Y-118046429D01*
X127571429Y-117998810D01*
X127619048Y-117951190D01*
X127666667Y-117855952D01*
X182070477Y-108882381D02*
X182070477Y-109596667D01*
X182022857Y-109739524D01*
X181927619Y-109834762D01*
X181784762Y-109882381D01*
X181689524Y-109882381D01*
X183070477Y-109882381D02*
X182499048Y-109882381D01*
X182784762Y-109882381D02*
X182784762Y-108882381D01*
X182689524Y-109025238D01*
X182594286Y-109120476D01*
X182499048Y-109168095D01*
X183927620Y-109215714D02*
X183927620Y-109882381D01*
X183689524Y-108834762D02*
X183451429Y-109549048D01*
X184070477Y-109549048D01*
X162987381Y-111251905D02*
X163796905Y-111251905D01*
X163892143Y-111204286D01*
X163939762Y-111156667D01*
X163987381Y-111061429D01*
X163987381Y-110870952D01*
X163939762Y-110775714D01*
X163892143Y-110728095D01*
X163796905Y-110680476D01*
X162987381Y-110680476D01*
X163987381Y-109680476D02*
X163987381Y-110251905D01*
X163987381Y-109966191D02*
X162987381Y-109966191D01*
X163130238Y-110061429D01*
X163225476Y-110156667D01*
X163273095Y-110251905D01*
X146922381Y-111251905D02*
X147731905Y-111251905D01*
X147827143Y-111204286D01*
X147874762Y-111156667D01*
X147922381Y-111061429D01*
X147922381Y-110870952D01*
X147874762Y-110775714D01*
X147827143Y-110728095D01*
X147731905Y-110680476D01*
X146922381Y-110680476D01*
X147017619Y-110251905D02*
X146970000Y-110204286D01*
X146922381Y-110109048D01*
X146922381Y-109870952D01*
X146970000Y-109775714D01*
X147017619Y-109728095D01*
X147112857Y-109680476D01*
X147208095Y-109680476D01*
X147350952Y-109728095D01*
X147922381Y-110299524D01*
X147922381Y-109680476D01*
X147657143Y-108116666D02*
X147704762Y-108164285D01*
X147752381Y-108307142D01*
X147752381Y-108402380D01*
X147704762Y-108545238D01*
X147609524Y-108640476D01*
X147514286Y-108688095D01*
X147323810Y-108735714D01*
X147180952Y-108735714D01*
X146990476Y-108688095D01*
X146895238Y-108640476D01*
X146800000Y-108545238D01*
X146752381Y-108402380D01*
X146752381Y-108307142D01*
X146800000Y-108164285D01*
X146847619Y-108116666D01*
X146752381Y-107783333D02*
X146752381Y-107164285D01*
X147133333Y-107497619D01*
X147133333Y-107354761D01*
X147180952Y-107259523D01*
X147228571Y-107211904D01*
X147323810Y-107164285D01*
X147561905Y-107164285D01*
X147657143Y-107211904D01*
X147704762Y-107259523D01*
X147752381Y-107354761D01*
X147752381Y-107640476D01*
X147704762Y-107735714D01*
X147657143Y-107783333D01*
M02*
