G04 #@! TF.FileFunction,Soldermask,Top*
%FSLAX46Y46*%
G04 Gerber Fmt 4.6, Leading zero omitted, Abs format (unit mm)*
G04 Created by KiCad (PCBNEW 4.0.7-e2-6376~58~ubuntu17.04.1) date Mon Oct 30 22:15:39 2017*
%MOMM*%
%LPD*%
G01*
G04 APERTURE LIST*
%ADD10C,0.100000*%
%ADD11R,2.000000X2.000000*%
%ADD12C,2.000000*%
%ADD13R,1.150000X1.600000*%
%ADD14R,3.400000X3.400000*%
%ADD15C,3.650000*%
%ADD16C,1.900000*%
%ADD17R,2.100000X2.100000*%
%ADD18O,2.100000X2.100000*%
%ADD19R,1.000000X1.900000*%
%ADD20C,3.600000*%
G04 APERTURE END LIST*
D10*
D11*
X139700000Y-109220000D03*
D12*
X139700000Y-111720000D03*
D13*
X162560000Y-113980000D03*
X162560000Y-112080000D03*
D14*
X133350000Y-99060000D03*
X138430000Y-99060000D03*
X143510000Y-99060000D03*
X148590000Y-99060000D03*
X179070000Y-99060000D03*
X184150000Y-99060000D03*
X166370000Y-99060000D03*
X161290000Y-99060000D03*
D15*
X132715000Y-117475000D03*
X121285000Y-117475000D03*
D16*
X131445000Y-108585000D03*
X130175000Y-111125000D03*
X128905000Y-108585000D03*
X127635000Y-111125000D03*
X126365000Y-108585000D03*
X125095000Y-111125000D03*
X123825000Y-108585000D03*
X122555000Y-111125000D03*
D14*
X156210000Y-99060000D03*
X171450000Y-99060000D03*
X120650000Y-99060000D03*
X125730000Y-99060000D03*
D17*
X181610000Y-111760000D03*
D18*
X184150000Y-111760000D03*
X181610000Y-114300000D03*
X184150000Y-114300000D03*
X181610000Y-116840000D03*
X184150000Y-116840000D03*
D19*
X165100000Y-113190000D03*
X166370000Y-113190000D03*
X167640000Y-113190000D03*
X168910000Y-113190000D03*
X170180000Y-113190000D03*
X171450000Y-113190000D03*
X172720000Y-113190000D03*
X172720000Y-107790000D03*
X171450000Y-107790000D03*
X170180000Y-107790000D03*
X168910000Y-107790000D03*
X167640000Y-107790000D03*
X166370000Y-107790000D03*
X165100000Y-107790000D03*
X149225000Y-114040000D03*
X150495000Y-114040000D03*
X151765000Y-114040000D03*
X153035000Y-114040000D03*
X154305000Y-114040000D03*
X155575000Y-114040000D03*
X156845000Y-114040000D03*
X158115000Y-114040000D03*
X158115000Y-106940000D03*
X156845000Y-106940000D03*
X155575000Y-106940000D03*
X154305000Y-106940000D03*
X153035000Y-106940000D03*
X151765000Y-106940000D03*
X150495000Y-106940000D03*
X149225000Y-106940000D03*
D13*
X146050000Y-107000000D03*
X146050000Y-108900000D03*
D20*
X192500000Y-110000000D03*
X112500000Y-110000000D03*
M02*
