G04 #@! TF.FileFunction,Copper,L2,Bot,Signal*
%FSLAX46Y46*%
G04 Gerber Fmt 4.6, Leading zero omitted, Abs format (unit mm)*
G04 Created by KiCad (PCBNEW 4.0.7-e2-6376~58~ubuntu17.04.1) date Mon Oct 30 22:15:39 2017*
%MOMM*%
%LPD*%
G01*
G04 APERTURE LIST*
%ADD10C,0.100000*%
%ADD11R,1.600000X1.600000*%
%ADD12C,1.600000*%
%ADD13C,3.250000*%
%ADD14C,1.500000*%
%ADD15R,1.700000X1.700000*%
%ADD16O,1.700000X1.700000*%
%ADD17C,1.000000*%
%ADD18C,0.635000*%
%ADD19C,0.381000*%
%ADD20C,0.240000*%
G04 APERTURE END LIST*
D10*
D11*
X139700000Y-109220000D03*
D12*
X139700000Y-111720000D03*
D13*
X132715000Y-117475000D03*
X121285000Y-117475000D03*
D14*
X131445000Y-108585000D03*
X130175000Y-111125000D03*
X128905000Y-108585000D03*
X127635000Y-111125000D03*
X126365000Y-108585000D03*
X125095000Y-111125000D03*
X123825000Y-108585000D03*
X122555000Y-111125000D03*
D15*
X181610000Y-111760000D03*
D16*
X184150000Y-111760000D03*
X181610000Y-114300000D03*
X184150000Y-114300000D03*
X181610000Y-116840000D03*
X184150000Y-116840000D03*
D17*
X143510000Y-116205000D03*
X143510000Y-112395000D03*
X175895000Y-113030000D03*
X163830000Y-114300000D03*
X128270000Y-100330000D03*
X129540000Y-100330000D03*
X128270000Y-99060000D03*
X129540000Y-99060000D03*
X164465000Y-106680000D03*
X161925000Y-111125000D03*
X145415000Y-109855000D03*
X158115000Y-115570000D03*
X154305000Y-115570000D03*
X153035000Y-115570000D03*
X176530000Y-99060000D03*
X155575000Y-103505000D03*
X181610000Y-100330000D03*
X156845000Y-104775000D03*
X172720000Y-111125000D03*
X172720000Y-105410000D03*
X171450000Y-101600000D03*
X166370000Y-104775000D03*
X149225000Y-116205000D03*
X166370000Y-116840000D03*
X170180000Y-115570000D03*
X164465000Y-115570000D03*
D18*
X143510000Y-112395000D02*
X143510000Y-116205000D01*
D19*
X175895000Y-113030000D02*
X174625000Y-114300000D01*
X170815000Y-114300000D02*
X163830000Y-114300000D01*
X170815000Y-114300000D02*
X174625000Y-114300000D01*
X176530000Y-99060000D02*
X176530000Y-99060000D01*
X156845000Y-99060000D02*
X176530000Y-99060000D01*
X155575000Y-100330000D02*
X156845000Y-99060000D01*
X155575000Y-103505000D02*
X155575000Y-100330000D01*
X156845000Y-101600000D02*
X158115000Y-100330000D01*
X158115000Y-100330000D02*
X181610000Y-100330000D01*
X156845000Y-104775000D02*
X156845000Y-101600000D01*
X172720000Y-111125000D02*
X172720000Y-105410000D01*
X169545000Y-101600000D02*
X171450000Y-101600000D01*
X166370000Y-104775000D02*
X169545000Y-101600000D01*
X166370000Y-116840000D02*
X149860000Y-116840000D01*
X149860000Y-116840000D02*
X149225000Y-116205000D01*
X170180000Y-115570000D02*
X164465000Y-115570000D01*
D20*
G36*
X196805000Y-124305000D02*
X108195000Y-124305000D01*
X108195000Y-117919599D01*
X119039611Y-117919599D01*
X119380672Y-118745029D01*
X120011649Y-119377108D01*
X120836483Y-119719609D01*
X121729599Y-119720389D01*
X122555029Y-119379328D01*
X123187108Y-118748351D01*
X123529609Y-117923517D01*
X123529612Y-117919599D01*
X130469611Y-117919599D01*
X130810672Y-118745029D01*
X131441649Y-119377108D01*
X132266483Y-119719609D01*
X133159599Y-119720389D01*
X133985029Y-119379328D01*
X134617108Y-118748351D01*
X134959609Y-117923517D01*
X134960389Y-117030401D01*
X134619328Y-116204971D01*
X133988351Y-115572892D01*
X133163517Y-115230391D01*
X132270401Y-115229611D01*
X131444971Y-115570672D01*
X130812892Y-116201649D01*
X130470391Y-117026483D01*
X130469611Y-117919599D01*
X123529612Y-117919599D01*
X123530389Y-117030401D01*
X123189328Y-116204971D01*
X122558351Y-115572892D01*
X121733517Y-115230391D01*
X120840401Y-115229611D01*
X120014971Y-115570672D01*
X119382892Y-116201649D01*
X119040391Y-117026483D01*
X119039611Y-117919599D01*
X108195000Y-117919599D01*
X108195000Y-112721451D01*
X138882396Y-112721451D01*
X138957603Y-112962990D01*
X139489786Y-113152476D01*
X140053973Y-113123881D01*
X140442397Y-112962990D01*
X140517604Y-112721451D01*
X140412957Y-112616804D01*
X142389806Y-112616804D01*
X142559957Y-113028600D01*
X142572500Y-113041165D01*
X142572500Y-115558327D01*
X142561064Y-115569743D01*
X142390195Y-115981241D01*
X142389806Y-116426804D01*
X142559957Y-116838600D01*
X142874743Y-117153936D01*
X143286241Y-117324805D01*
X143731804Y-117325194D01*
X144143600Y-117155043D01*
X144458936Y-116840257D01*
X144629805Y-116428759D01*
X144629806Y-116426804D01*
X148104806Y-116426804D01*
X148274957Y-116838600D01*
X148589743Y-117153936D01*
X149001241Y-117324805D01*
X149198757Y-117324977D01*
X149286890Y-117413110D01*
X149549835Y-117588804D01*
X149860000Y-117650500D01*
X165596548Y-117650500D01*
X165734743Y-117788936D01*
X166146241Y-117959805D01*
X166591804Y-117960194D01*
X167003600Y-117790043D01*
X167318936Y-117475257D01*
X167489805Y-117063759D01*
X167490194Y-116618196D01*
X167391980Y-116380500D01*
X169406548Y-116380500D01*
X169544743Y-116518936D01*
X169956241Y-116689805D01*
X170401804Y-116690194D01*
X170813600Y-116520043D01*
X171128936Y-116205257D01*
X171299805Y-115793759D01*
X171300194Y-115348196D01*
X171201980Y-115110500D01*
X174625000Y-115110500D01*
X174935165Y-115048804D01*
X175198110Y-114873110D01*
X175771220Y-114300000D01*
X180111201Y-114300000D01*
X180223098Y-114862545D01*
X180541754Y-115339447D01*
X180886801Y-115570000D01*
X180541754Y-115800553D01*
X180223098Y-116277455D01*
X180111201Y-116840000D01*
X180223098Y-117402545D01*
X180541754Y-117879447D01*
X181018656Y-118198103D01*
X181581201Y-118310000D01*
X181638799Y-118310000D01*
X182201344Y-118198103D01*
X182678246Y-117879447D01*
X182880947Y-117576084D01*
X182888985Y-117595492D01*
X183274088Y-118020553D01*
X183792541Y-118265886D01*
X184020000Y-118149250D01*
X184020000Y-116970000D01*
X184280000Y-116970000D01*
X184280000Y-118149250D01*
X184507459Y-118265886D01*
X185025912Y-118020553D01*
X185411015Y-117595492D01*
X185575876Y-117197457D01*
X185458558Y-116970000D01*
X184280000Y-116970000D01*
X184020000Y-116970000D01*
X184000000Y-116970000D01*
X184000000Y-116710000D01*
X184020000Y-116710000D01*
X184020000Y-116690000D01*
X184280000Y-116690000D01*
X184280000Y-116710000D01*
X185458558Y-116710000D01*
X185575876Y-116482543D01*
X185411015Y-116084508D01*
X185025912Y-115659447D01*
X184858145Y-115580059D01*
X185218246Y-115339447D01*
X185536902Y-114862545D01*
X185648799Y-114300000D01*
X185536902Y-113737455D01*
X185218246Y-113260553D01*
X184873199Y-113030000D01*
X185218246Y-112799447D01*
X185536902Y-112322545D01*
X185648799Y-111760000D01*
X185536902Y-111197455D01*
X185218246Y-110720553D01*
X184797843Y-110439648D01*
X190279616Y-110439648D01*
X190616879Y-111255886D01*
X191240829Y-111880927D01*
X192056477Y-112219613D01*
X192939648Y-112220384D01*
X193755886Y-111883121D01*
X194380927Y-111259171D01*
X194719613Y-110443523D01*
X194720384Y-109560352D01*
X194383121Y-108744114D01*
X193759171Y-108119073D01*
X192943523Y-107780387D01*
X192060352Y-107779616D01*
X191244114Y-108116879D01*
X190619073Y-108740829D01*
X190280387Y-109556477D01*
X190279616Y-110439648D01*
X184797843Y-110439648D01*
X184741344Y-110401897D01*
X184178799Y-110290000D01*
X184121201Y-110290000D01*
X183558656Y-110401897D01*
X183081754Y-110720553D01*
X183062048Y-110750045D01*
X183048914Y-110680242D01*
X182913127Y-110469223D01*
X182705940Y-110327658D01*
X182460000Y-110277854D01*
X180760000Y-110277854D01*
X180530242Y-110321086D01*
X180319223Y-110456873D01*
X180177658Y-110664060D01*
X180127854Y-110910000D01*
X180127854Y-112610000D01*
X180171086Y-112839758D01*
X180306873Y-113050777D01*
X180514060Y-113192342D01*
X180613655Y-113212510D01*
X180541754Y-113260553D01*
X180223098Y-113737455D01*
X180111201Y-114300000D01*
X175771220Y-114300000D01*
X175921197Y-114150023D01*
X176116804Y-114150194D01*
X176528600Y-113980043D01*
X176843936Y-113665257D01*
X177014805Y-113253759D01*
X177015194Y-112808196D01*
X176845043Y-112396400D01*
X176530257Y-112081064D01*
X176118759Y-111910195D01*
X175673196Y-111909806D01*
X175261400Y-112079957D01*
X174946064Y-112394743D01*
X174775195Y-112806241D01*
X174775023Y-113003757D01*
X174289280Y-113489500D01*
X164603452Y-113489500D01*
X164465257Y-113351064D01*
X164053759Y-113180195D01*
X163608196Y-113179806D01*
X163196400Y-113349957D01*
X162881064Y-113664743D01*
X162710195Y-114076241D01*
X162709806Y-114521804D01*
X162879957Y-114933600D01*
X163194743Y-115248936D01*
X163357531Y-115316532D01*
X163345195Y-115346241D01*
X163344806Y-115791804D01*
X163443020Y-116029500D01*
X150345154Y-116029500D01*
X150345194Y-115983196D01*
X150175043Y-115571400D01*
X149860257Y-115256064D01*
X149448759Y-115085195D01*
X149003196Y-115084806D01*
X148591400Y-115254957D01*
X148276064Y-115569743D01*
X148105195Y-115981241D01*
X148104806Y-116426804D01*
X144629806Y-116426804D01*
X144630194Y-115983196D01*
X144460043Y-115571400D01*
X144447500Y-115558835D01*
X144447500Y-113041673D01*
X144458936Y-113030257D01*
X144629805Y-112618759D01*
X144630194Y-112173196D01*
X144460043Y-111761400D01*
X144145257Y-111446064D01*
X143733759Y-111275195D01*
X143288196Y-111274806D01*
X142876400Y-111444957D01*
X142561064Y-111759743D01*
X142390195Y-112171241D01*
X142389806Y-112616804D01*
X140412957Y-112616804D01*
X139700000Y-111903848D01*
X138882396Y-112721451D01*
X108195000Y-112721451D01*
X108195000Y-110439648D01*
X110279616Y-110439648D01*
X110616879Y-111255886D01*
X111240829Y-111880927D01*
X112056477Y-112219613D01*
X112939648Y-112220384D01*
X113254685Y-112090213D01*
X121773635Y-112090213D01*
X121842694Y-112326575D01*
X122356737Y-112507698D01*
X122900964Y-112478318D01*
X123267306Y-112326575D01*
X123336365Y-112090213D01*
X124313635Y-112090213D01*
X124382694Y-112326575D01*
X124896737Y-112507698D01*
X125440964Y-112478318D01*
X125807306Y-112326575D01*
X125876365Y-112090213D01*
X126853635Y-112090213D01*
X126922694Y-112326575D01*
X127436737Y-112507698D01*
X127980964Y-112478318D01*
X128347306Y-112326575D01*
X128416365Y-112090213D01*
X129393635Y-112090213D01*
X129462694Y-112326575D01*
X129976737Y-112507698D01*
X130520964Y-112478318D01*
X130887306Y-112326575D01*
X130956365Y-112090213D01*
X130175000Y-111308848D01*
X129393635Y-112090213D01*
X128416365Y-112090213D01*
X127635000Y-111308848D01*
X126853635Y-112090213D01*
X125876365Y-112090213D01*
X125095000Y-111308848D01*
X124313635Y-112090213D01*
X123336365Y-112090213D01*
X122555000Y-111308848D01*
X121773635Y-112090213D01*
X113254685Y-112090213D01*
X113755886Y-111883121D01*
X114380927Y-111259171D01*
X114518965Y-110926737D01*
X121172302Y-110926737D01*
X121201682Y-111470964D01*
X121353425Y-111837306D01*
X121589787Y-111906365D01*
X122371152Y-111125000D01*
X122738848Y-111125000D01*
X123520213Y-111906365D01*
X123756575Y-111837306D01*
X123819478Y-111658781D01*
X123893425Y-111837306D01*
X124129787Y-111906365D01*
X124911152Y-111125000D01*
X125278848Y-111125000D01*
X126060213Y-111906365D01*
X126296575Y-111837306D01*
X126359478Y-111658781D01*
X126433425Y-111837306D01*
X126669787Y-111906365D01*
X127451152Y-111125000D01*
X127818848Y-111125000D01*
X128600213Y-111906365D01*
X128836575Y-111837306D01*
X128899478Y-111658781D01*
X128973425Y-111837306D01*
X129209787Y-111906365D01*
X129991152Y-111125000D01*
X130358848Y-111125000D01*
X131140213Y-111906365D01*
X131376575Y-111837306D01*
X131491976Y-111509786D01*
X138267524Y-111509786D01*
X138296119Y-112073973D01*
X138457010Y-112462397D01*
X138698549Y-112537604D01*
X139516152Y-111720000D01*
X139883848Y-111720000D01*
X140701451Y-112537604D01*
X140942990Y-112462397D01*
X141132476Y-111930214D01*
X141103881Y-111366027D01*
X140942990Y-110977603D01*
X140701451Y-110902396D01*
X139883848Y-111720000D01*
X139516152Y-111720000D01*
X138698549Y-110902396D01*
X138457010Y-110977603D01*
X138267524Y-111509786D01*
X131491976Y-111509786D01*
X131557698Y-111323263D01*
X131528318Y-110779036D01*
X131376575Y-110412694D01*
X131140213Y-110343635D01*
X130358848Y-111125000D01*
X129991152Y-111125000D01*
X129209787Y-110343635D01*
X128973425Y-110412694D01*
X128910522Y-110591219D01*
X128836575Y-110412694D01*
X128600213Y-110343635D01*
X127818848Y-111125000D01*
X127451152Y-111125000D01*
X126669787Y-110343635D01*
X126433425Y-110412694D01*
X126370522Y-110591219D01*
X126296575Y-110412694D01*
X126060213Y-110343635D01*
X125278848Y-111125000D01*
X124911152Y-111125000D01*
X124129787Y-110343635D01*
X123893425Y-110412694D01*
X123830522Y-110591219D01*
X123756575Y-110412694D01*
X123520213Y-110343635D01*
X122738848Y-111125000D01*
X122371152Y-111125000D01*
X121589787Y-110343635D01*
X121353425Y-110412694D01*
X121172302Y-110926737D01*
X114518965Y-110926737D01*
X114719613Y-110443523D01*
X114719860Y-110159787D01*
X121773635Y-110159787D01*
X122555000Y-110941152D01*
X123336365Y-110159787D01*
X124313635Y-110159787D01*
X125095000Y-110941152D01*
X125876365Y-110159787D01*
X126853635Y-110159787D01*
X127635000Y-110941152D01*
X128416365Y-110159787D01*
X129393635Y-110159787D01*
X130175000Y-110941152D01*
X130956365Y-110159787D01*
X130887306Y-109923425D01*
X130373263Y-109742302D01*
X129829036Y-109771682D01*
X129462694Y-109923425D01*
X129393635Y-110159787D01*
X128416365Y-110159787D01*
X128347306Y-109923425D01*
X127833263Y-109742302D01*
X127289036Y-109771682D01*
X126922694Y-109923425D01*
X126853635Y-110159787D01*
X125876365Y-110159787D01*
X125807306Y-109923425D01*
X125293263Y-109742302D01*
X124749036Y-109771682D01*
X124382694Y-109923425D01*
X124313635Y-110159787D01*
X123336365Y-110159787D01*
X123267306Y-109923425D01*
X122753263Y-109742302D01*
X122209036Y-109771682D01*
X121842694Y-109923425D01*
X121773635Y-110159787D01*
X114719860Y-110159787D01*
X114720384Y-109560352D01*
X114429482Y-108856314D01*
X122454763Y-108856314D01*
X122662893Y-109360029D01*
X123047944Y-109745752D01*
X123551295Y-109954762D01*
X124096314Y-109955237D01*
X124600029Y-109747107D01*
X124985752Y-109362056D01*
X125095011Y-109098933D01*
X125202893Y-109360029D01*
X125587944Y-109745752D01*
X126091295Y-109954762D01*
X126636314Y-109955237D01*
X127140029Y-109747107D01*
X127525752Y-109362056D01*
X127635011Y-109098933D01*
X127742893Y-109360029D01*
X128127944Y-109745752D01*
X128631295Y-109954762D01*
X129176314Y-109955237D01*
X129680029Y-109747107D01*
X130065752Y-109362056D01*
X130175011Y-109098933D01*
X130282893Y-109360029D01*
X130667944Y-109745752D01*
X131171295Y-109954762D01*
X131716314Y-109955237D01*
X132220029Y-109747107D01*
X132605752Y-109362056D01*
X132814762Y-108858705D01*
X132815144Y-108420000D01*
X138267854Y-108420000D01*
X138267854Y-110020000D01*
X138311086Y-110249758D01*
X138446873Y-110460777D01*
X138654060Y-110602342D01*
X138900000Y-110652146D01*
X138903072Y-110652146D01*
X138882396Y-110718549D01*
X139700000Y-111536152D01*
X140517604Y-110718549D01*
X140496928Y-110652146D01*
X140500000Y-110652146D01*
X140729758Y-110608914D01*
X140940777Y-110473127D01*
X141082342Y-110265940D01*
X141132146Y-110020000D01*
X141132146Y-108420000D01*
X141088914Y-108190242D01*
X140953127Y-107979223D01*
X140745940Y-107837658D01*
X140500000Y-107787854D01*
X138900000Y-107787854D01*
X138670242Y-107831086D01*
X138459223Y-107966873D01*
X138317658Y-108174060D01*
X138267854Y-108420000D01*
X132815144Y-108420000D01*
X132815237Y-108313686D01*
X132607107Y-107809971D01*
X132222056Y-107424248D01*
X131718705Y-107215238D01*
X131173686Y-107214763D01*
X130669971Y-107422893D01*
X130284248Y-107807944D01*
X130174989Y-108071067D01*
X130067107Y-107809971D01*
X129682056Y-107424248D01*
X129178705Y-107215238D01*
X128633686Y-107214763D01*
X128129971Y-107422893D01*
X127744248Y-107807944D01*
X127634989Y-108071067D01*
X127527107Y-107809971D01*
X127142056Y-107424248D01*
X126638705Y-107215238D01*
X126093686Y-107214763D01*
X125589971Y-107422893D01*
X125204248Y-107807944D01*
X125094989Y-108071067D01*
X124987107Y-107809971D01*
X124602056Y-107424248D01*
X124098705Y-107215238D01*
X123553686Y-107214763D01*
X123049971Y-107422893D01*
X122664248Y-107807944D01*
X122455238Y-108311295D01*
X122454763Y-108856314D01*
X114429482Y-108856314D01*
X114383121Y-108744114D01*
X113759171Y-108119073D01*
X112943523Y-107780387D01*
X112060352Y-107779616D01*
X111244114Y-108116879D01*
X110619073Y-108740829D01*
X110280387Y-109556477D01*
X110279616Y-110439648D01*
X108195000Y-110439648D01*
X108195000Y-103726804D01*
X154454806Y-103726804D01*
X154624957Y-104138600D01*
X154939743Y-104453936D01*
X155351241Y-104624805D01*
X155725130Y-104625131D01*
X155724806Y-104996804D01*
X155894957Y-105408600D01*
X156209743Y-105723936D01*
X156621241Y-105894805D01*
X157066804Y-105895194D01*
X157478600Y-105725043D01*
X157793936Y-105410257D01*
X157964805Y-104998759D01*
X157965194Y-104553196D01*
X157795043Y-104141400D01*
X157655500Y-104001613D01*
X157655500Y-101935720D01*
X158450720Y-101140500D01*
X168858280Y-101140500D01*
X166343803Y-103654977D01*
X166148196Y-103654806D01*
X165736400Y-103824957D01*
X165421064Y-104139743D01*
X165250195Y-104551241D01*
X165249806Y-104996804D01*
X165419957Y-105408600D01*
X165734743Y-105723936D01*
X166146241Y-105894805D01*
X166591804Y-105895194D01*
X167003600Y-105725043D01*
X167097001Y-105631804D01*
X171599806Y-105631804D01*
X171769957Y-106043600D01*
X171909500Y-106183387D01*
X171909500Y-110351548D01*
X171771064Y-110489743D01*
X171600195Y-110901241D01*
X171599806Y-111346804D01*
X171769957Y-111758600D01*
X172084743Y-112073936D01*
X172496241Y-112244805D01*
X172941804Y-112245194D01*
X173353600Y-112075043D01*
X173668936Y-111760257D01*
X173839805Y-111348759D01*
X173840194Y-110903196D01*
X173670043Y-110491400D01*
X173530500Y-110351613D01*
X173530500Y-106183452D01*
X173668936Y-106045257D01*
X173839805Y-105633759D01*
X173840194Y-105188196D01*
X173670043Y-104776400D01*
X173355257Y-104461064D01*
X172943759Y-104290195D01*
X172498196Y-104289806D01*
X172086400Y-104459957D01*
X171771064Y-104774743D01*
X171600195Y-105186241D01*
X171599806Y-105631804D01*
X167097001Y-105631804D01*
X167318936Y-105410257D01*
X167489805Y-104998759D01*
X167489977Y-104801243D01*
X169880720Y-102410500D01*
X170676548Y-102410500D01*
X170814743Y-102548936D01*
X171226241Y-102719805D01*
X171671804Y-102720194D01*
X172083600Y-102550043D01*
X172398936Y-102235257D01*
X172569805Y-101823759D01*
X172570194Y-101378196D01*
X172471980Y-101140500D01*
X180836548Y-101140500D01*
X180974743Y-101278936D01*
X181386241Y-101449805D01*
X181831804Y-101450194D01*
X182243600Y-101280043D01*
X182558936Y-100965257D01*
X182729805Y-100553759D01*
X182730194Y-100108196D01*
X182560043Y-99696400D01*
X182245257Y-99381064D01*
X181833759Y-99210195D01*
X181388196Y-99209806D01*
X180976400Y-99379957D01*
X180836613Y-99519500D01*
X177551917Y-99519500D01*
X177649805Y-99283759D01*
X177650194Y-98838196D01*
X177480043Y-98426400D01*
X177165257Y-98111064D01*
X176753759Y-97940195D01*
X176308196Y-97939806D01*
X175896400Y-98109957D01*
X175756613Y-98249500D01*
X156845000Y-98249500D01*
X156534835Y-98311196D01*
X156271890Y-98486890D01*
X155001890Y-99756890D01*
X154826196Y-100019835D01*
X154764500Y-100330000D01*
X154764500Y-102731548D01*
X154626064Y-102869743D01*
X154455195Y-103281241D01*
X154454806Y-103726804D01*
X108195000Y-103726804D01*
X108195000Y-95695000D01*
X196805000Y-95695000D01*
X196805000Y-124305000D01*
X196805000Y-124305000D01*
G37*
X196805000Y-124305000D02*
X108195000Y-124305000D01*
X108195000Y-117919599D01*
X119039611Y-117919599D01*
X119380672Y-118745029D01*
X120011649Y-119377108D01*
X120836483Y-119719609D01*
X121729599Y-119720389D01*
X122555029Y-119379328D01*
X123187108Y-118748351D01*
X123529609Y-117923517D01*
X123529612Y-117919599D01*
X130469611Y-117919599D01*
X130810672Y-118745029D01*
X131441649Y-119377108D01*
X132266483Y-119719609D01*
X133159599Y-119720389D01*
X133985029Y-119379328D01*
X134617108Y-118748351D01*
X134959609Y-117923517D01*
X134960389Y-117030401D01*
X134619328Y-116204971D01*
X133988351Y-115572892D01*
X133163517Y-115230391D01*
X132270401Y-115229611D01*
X131444971Y-115570672D01*
X130812892Y-116201649D01*
X130470391Y-117026483D01*
X130469611Y-117919599D01*
X123529612Y-117919599D01*
X123530389Y-117030401D01*
X123189328Y-116204971D01*
X122558351Y-115572892D01*
X121733517Y-115230391D01*
X120840401Y-115229611D01*
X120014971Y-115570672D01*
X119382892Y-116201649D01*
X119040391Y-117026483D01*
X119039611Y-117919599D01*
X108195000Y-117919599D01*
X108195000Y-112721451D01*
X138882396Y-112721451D01*
X138957603Y-112962990D01*
X139489786Y-113152476D01*
X140053973Y-113123881D01*
X140442397Y-112962990D01*
X140517604Y-112721451D01*
X140412957Y-112616804D01*
X142389806Y-112616804D01*
X142559957Y-113028600D01*
X142572500Y-113041165D01*
X142572500Y-115558327D01*
X142561064Y-115569743D01*
X142390195Y-115981241D01*
X142389806Y-116426804D01*
X142559957Y-116838600D01*
X142874743Y-117153936D01*
X143286241Y-117324805D01*
X143731804Y-117325194D01*
X144143600Y-117155043D01*
X144458936Y-116840257D01*
X144629805Y-116428759D01*
X144629806Y-116426804D01*
X148104806Y-116426804D01*
X148274957Y-116838600D01*
X148589743Y-117153936D01*
X149001241Y-117324805D01*
X149198757Y-117324977D01*
X149286890Y-117413110D01*
X149549835Y-117588804D01*
X149860000Y-117650500D01*
X165596548Y-117650500D01*
X165734743Y-117788936D01*
X166146241Y-117959805D01*
X166591804Y-117960194D01*
X167003600Y-117790043D01*
X167318936Y-117475257D01*
X167489805Y-117063759D01*
X167490194Y-116618196D01*
X167391980Y-116380500D01*
X169406548Y-116380500D01*
X169544743Y-116518936D01*
X169956241Y-116689805D01*
X170401804Y-116690194D01*
X170813600Y-116520043D01*
X171128936Y-116205257D01*
X171299805Y-115793759D01*
X171300194Y-115348196D01*
X171201980Y-115110500D01*
X174625000Y-115110500D01*
X174935165Y-115048804D01*
X175198110Y-114873110D01*
X175771220Y-114300000D01*
X180111201Y-114300000D01*
X180223098Y-114862545D01*
X180541754Y-115339447D01*
X180886801Y-115570000D01*
X180541754Y-115800553D01*
X180223098Y-116277455D01*
X180111201Y-116840000D01*
X180223098Y-117402545D01*
X180541754Y-117879447D01*
X181018656Y-118198103D01*
X181581201Y-118310000D01*
X181638799Y-118310000D01*
X182201344Y-118198103D01*
X182678246Y-117879447D01*
X182880947Y-117576084D01*
X182888985Y-117595492D01*
X183274088Y-118020553D01*
X183792541Y-118265886D01*
X184020000Y-118149250D01*
X184020000Y-116970000D01*
X184280000Y-116970000D01*
X184280000Y-118149250D01*
X184507459Y-118265886D01*
X185025912Y-118020553D01*
X185411015Y-117595492D01*
X185575876Y-117197457D01*
X185458558Y-116970000D01*
X184280000Y-116970000D01*
X184020000Y-116970000D01*
X184000000Y-116970000D01*
X184000000Y-116710000D01*
X184020000Y-116710000D01*
X184020000Y-116690000D01*
X184280000Y-116690000D01*
X184280000Y-116710000D01*
X185458558Y-116710000D01*
X185575876Y-116482543D01*
X185411015Y-116084508D01*
X185025912Y-115659447D01*
X184858145Y-115580059D01*
X185218246Y-115339447D01*
X185536902Y-114862545D01*
X185648799Y-114300000D01*
X185536902Y-113737455D01*
X185218246Y-113260553D01*
X184873199Y-113030000D01*
X185218246Y-112799447D01*
X185536902Y-112322545D01*
X185648799Y-111760000D01*
X185536902Y-111197455D01*
X185218246Y-110720553D01*
X184797843Y-110439648D01*
X190279616Y-110439648D01*
X190616879Y-111255886D01*
X191240829Y-111880927D01*
X192056477Y-112219613D01*
X192939648Y-112220384D01*
X193755886Y-111883121D01*
X194380927Y-111259171D01*
X194719613Y-110443523D01*
X194720384Y-109560352D01*
X194383121Y-108744114D01*
X193759171Y-108119073D01*
X192943523Y-107780387D01*
X192060352Y-107779616D01*
X191244114Y-108116879D01*
X190619073Y-108740829D01*
X190280387Y-109556477D01*
X190279616Y-110439648D01*
X184797843Y-110439648D01*
X184741344Y-110401897D01*
X184178799Y-110290000D01*
X184121201Y-110290000D01*
X183558656Y-110401897D01*
X183081754Y-110720553D01*
X183062048Y-110750045D01*
X183048914Y-110680242D01*
X182913127Y-110469223D01*
X182705940Y-110327658D01*
X182460000Y-110277854D01*
X180760000Y-110277854D01*
X180530242Y-110321086D01*
X180319223Y-110456873D01*
X180177658Y-110664060D01*
X180127854Y-110910000D01*
X180127854Y-112610000D01*
X180171086Y-112839758D01*
X180306873Y-113050777D01*
X180514060Y-113192342D01*
X180613655Y-113212510D01*
X180541754Y-113260553D01*
X180223098Y-113737455D01*
X180111201Y-114300000D01*
X175771220Y-114300000D01*
X175921197Y-114150023D01*
X176116804Y-114150194D01*
X176528600Y-113980043D01*
X176843936Y-113665257D01*
X177014805Y-113253759D01*
X177015194Y-112808196D01*
X176845043Y-112396400D01*
X176530257Y-112081064D01*
X176118759Y-111910195D01*
X175673196Y-111909806D01*
X175261400Y-112079957D01*
X174946064Y-112394743D01*
X174775195Y-112806241D01*
X174775023Y-113003757D01*
X174289280Y-113489500D01*
X164603452Y-113489500D01*
X164465257Y-113351064D01*
X164053759Y-113180195D01*
X163608196Y-113179806D01*
X163196400Y-113349957D01*
X162881064Y-113664743D01*
X162710195Y-114076241D01*
X162709806Y-114521804D01*
X162879957Y-114933600D01*
X163194743Y-115248936D01*
X163357531Y-115316532D01*
X163345195Y-115346241D01*
X163344806Y-115791804D01*
X163443020Y-116029500D01*
X150345154Y-116029500D01*
X150345194Y-115983196D01*
X150175043Y-115571400D01*
X149860257Y-115256064D01*
X149448759Y-115085195D01*
X149003196Y-115084806D01*
X148591400Y-115254957D01*
X148276064Y-115569743D01*
X148105195Y-115981241D01*
X148104806Y-116426804D01*
X144629806Y-116426804D01*
X144630194Y-115983196D01*
X144460043Y-115571400D01*
X144447500Y-115558835D01*
X144447500Y-113041673D01*
X144458936Y-113030257D01*
X144629805Y-112618759D01*
X144630194Y-112173196D01*
X144460043Y-111761400D01*
X144145257Y-111446064D01*
X143733759Y-111275195D01*
X143288196Y-111274806D01*
X142876400Y-111444957D01*
X142561064Y-111759743D01*
X142390195Y-112171241D01*
X142389806Y-112616804D01*
X140412957Y-112616804D01*
X139700000Y-111903848D01*
X138882396Y-112721451D01*
X108195000Y-112721451D01*
X108195000Y-110439648D01*
X110279616Y-110439648D01*
X110616879Y-111255886D01*
X111240829Y-111880927D01*
X112056477Y-112219613D01*
X112939648Y-112220384D01*
X113254685Y-112090213D01*
X121773635Y-112090213D01*
X121842694Y-112326575D01*
X122356737Y-112507698D01*
X122900964Y-112478318D01*
X123267306Y-112326575D01*
X123336365Y-112090213D01*
X124313635Y-112090213D01*
X124382694Y-112326575D01*
X124896737Y-112507698D01*
X125440964Y-112478318D01*
X125807306Y-112326575D01*
X125876365Y-112090213D01*
X126853635Y-112090213D01*
X126922694Y-112326575D01*
X127436737Y-112507698D01*
X127980964Y-112478318D01*
X128347306Y-112326575D01*
X128416365Y-112090213D01*
X129393635Y-112090213D01*
X129462694Y-112326575D01*
X129976737Y-112507698D01*
X130520964Y-112478318D01*
X130887306Y-112326575D01*
X130956365Y-112090213D01*
X130175000Y-111308848D01*
X129393635Y-112090213D01*
X128416365Y-112090213D01*
X127635000Y-111308848D01*
X126853635Y-112090213D01*
X125876365Y-112090213D01*
X125095000Y-111308848D01*
X124313635Y-112090213D01*
X123336365Y-112090213D01*
X122555000Y-111308848D01*
X121773635Y-112090213D01*
X113254685Y-112090213D01*
X113755886Y-111883121D01*
X114380927Y-111259171D01*
X114518965Y-110926737D01*
X121172302Y-110926737D01*
X121201682Y-111470964D01*
X121353425Y-111837306D01*
X121589787Y-111906365D01*
X122371152Y-111125000D01*
X122738848Y-111125000D01*
X123520213Y-111906365D01*
X123756575Y-111837306D01*
X123819478Y-111658781D01*
X123893425Y-111837306D01*
X124129787Y-111906365D01*
X124911152Y-111125000D01*
X125278848Y-111125000D01*
X126060213Y-111906365D01*
X126296575Y-111837306D01*
X126359478Y-111658781D01*
X126433425Y-111837306D01*
X126669787Y-111906365D01*
X127451152Y-111125000D01*
X127818848Y-111125000D01*
X128600213Y-111906365D01*
X128836575Y-111837306D01*
X128899478Y-111658781D01*
X128973425Y-111837306D01*
X129209787Y-111906365D01*
X129991152Y-111125000D01*
X130358848Y-111125000D01*
X131140213Y-111906365D01*
X131376575Y-111837306D01*
X131491976Y-111509786D01*
X138267524Y-111509786D01*
X138296119Y-112073973D01*
X138457010Y-112462397D01*
X138698549Y-112537604D01*
X139516152Y-111720000D01*
X139883848Y-111720000D01*
X140701451Y-112537604D01*
X140942990Y-112462397D01*
X141132476Y-111930214D01*
X141103881Y-111366027D01*
X140942990Y-110977603D01*
X140701451Y-110902396D01*
X139883848Y-111720000D01*
X139516152Y-111720000D01*
X138698549Y-110902396D01*
X138457010Y-110977603D01*
X138267524Y-111509786D01*
X131491976Y-111509786D01*
X131557698Y-111323263D01*
X131528318Y-110779036D01*
X131376575Y-110412694D01*
X131140213Y-110343635D01*
X130358848Y-111125000D01*
X129991152Y-111125000D01*
X129209787Y-110343635D01*
X128973425Y-110412694D01*
X128910522Y-110591219D01*
X128836575Y-110412694D01*
X128600213Y-110343635D01*
X127818848Y-111125000D01*
X127451152Y-111125000D01*
X126669787Y-110343635D01*
X126433425Y-110412694D01*
X126370522Y-110591219D01*
X126296575Y-110412694D01*
X126060213Y-110343635D01*
X125278848Y-111125000D01*
X124911152Y-111125000D01*
X124129787Y-110343635D01*
X123893425Y-110412694D01*
X123830522Y-110591219D01*
X123756575Y-110412694D01*
X123520213Y-110343635D01*
X122738848Y-111125000D01*
X122371152Y-111125000D01*
X121589787Y-110343635D01*
X121353425Y-110412694D01*
X121172302Y-110926737D01*
X114518965Y-110926737D01*
X114719613Y-110443523D01*
X114719860Y-110159787D01*
X121773635Y-110159787D01*
X122555000Y-110941152D01*
X123336365Y-110159787D01*
X124313635Y-110159787D01*
X125095000Y-110941152D01*
X125876365Y-110159787D01*
X126853635Y-110159787D01*
X127635000Y-110941152D01*
X128416365Y-110159787D01*
X129393635Y-110159787D01*
X130175000Y-110941152D01*
X130956365Y-110159787D01*
X130887306Y-109923425D01*
X130373263Y-109742302D01*
X129829036Y-109771682D01*
X129462694Y-109923425D01*
X129393635Y-110159787D01*
X128416365Y-110159787D01*
X128347306Y-109923425D01*
X127833263Y-109742302D01*
X127289036Y-109771682D01*
X126922694Y-109923425D01*
X126853635Y-110159787D01*
X125876365Y-110159787D01*
X125807306Y-109923425D01*
X125293263Y-109742302D01*
X124749036Y-109771682D01*
X124382694Y-109923425D01*
X124313635Y-110159787D01*
X123336365Y-110159787D01*
X123267306Y-109923425D01*
X122753263Y-109742302D01*
X122209036Y-109771682D01*
X121842694Y-109923425D01*
X121773635Y-110159787D01*
X114719860Y-110159787D01*
X114720384Y-109560352D01*
X114429482Y-108856314D01*
X122454763Y-108856314D01*
X122662893Y-109360029D01*
X123047944Y-109745752D01*
X123551295Y-109954762D01*
X124096314Y-109955237D01*
X124600029Y-109747107D01*
X124985752Y-109362056D01*
X125095011Y-109098933D01*
X125202893Y-109360029D01*
X125587944Y-109745752D01*
X126091295Y-109954762D01*
X126636314Y-109955237D01*
X127140029Y-109747107D01*
X127525752Y-109362056D01*
X127635011Y-109098933D01*
X127742893Y-109360029D01*
X128127944Y-109745752D01*
X128631295Y-109954762D01*
X129176314Y-109955237D01*
X129680029Y-109747107D01*
X130065752Y-109362056D01*
X130175011Y-109098933D01*
X130282893Y-109360029D01*
X130667944Y-109745752D01*
X131171295Y-109954762D01*
X131716314Y-109955237D01*
X132220029Y-109747107D01*
X132605752Y-109362056D01*
X132814762Y-108858705D01*
X132815144Y-108420000D01*
X138267854Y-108420000D01*
X138267854Y-110020000D01*
X138311086Y-110249758D01*
X138446873Y-110460777D01*
X138654060Y-110602342D01*
X138900000Y-110652146D01*
X138903072Y-110652146D01*
X138882396Y-110718549D01*
X139700000Y-111536152D01*
X140517604Y-110718549D01*
X140496928Y-110652146D01*
X140500000Y-110652146D01*
X140729758Y-110608914D01*
X140940777Y-110473127D01*
X141082342Y-110265940D01*
X141132146Y-110020000D01*
X141132146Y-108420000D01*
X141088914Y-108190242D01*
X140953127Y-107979223D01*
X140745940Y-107837658D01*
X140500000Y-107787854D01*
X138900000Y-107787854D01*
X138670242Y-107831086D01*
X138459223Y-107966873D01*
X138317658Y-108174060D01*
X138267854Y-108420000D01*
X132815144Y-108420000D01*
X132815237Y-108313686D01*
X132607107Y-107809971D01*
X132222056Y-107424248D01*
X131718705Y-107215238D01*
X131173686Y-107214763D01*
X130669971Y-107422893D01*
X130284248Y-107807944D01*
X130174989Y-108071067D01*
X130067107Y-107809971D01*
X129682056Y-107424248D01*
X129178705Y-107215238D01*
X128633686Y-107214763D01*
X128129971Y-107422893D01*
X127744248Y-107807944D01*
X127634989Y-108071067D01*
X127527107Y-107809971D01*
X127142056Y-107424248D01*
X126638705Y-107215238D01*
X126093686Y-107214763D01*
X125589971Y-107422893D01*
X125204248Y-107807944D01*
X125094989Y-108071067D01*
X124987107Y-107809971D01*
X124602056Y-107424248D01*
X124098705Y-107215238D01*
X123553686Y-107214763D01*
X123049971Y-107422893D01*
X122664248Y-107807944D01*
X122455238Y-108311295D01*
X122454763Y-108856314D01*
X114429482Y-108856314D01*
X114383121Y-108744114D01*
X113759171Y-108119073D01*
X112943523Y-107780387D01*
X112060352Y-107779616D01*
X111244114Y-108116879D01*
X110619073Y-108740829D01*
X110280387Y-109556477D01*
X110279616Y-110439648D01*
X108195000Y-110439648D01*
X108195000Y-103726804D01*
X154454806Y-103726804D01*
X154624957Y-104138600D01*
X154939743Y-104453936D01*
X155351241Y-104624805D01*
X155725130Y-104625131D01*
X155724806Y-104996804D01*
X155894957Y-105408600D01*
X156209743Y-105723936D01*
X156621241Y-105894805D01*
X157066804Y-105895194D01*
X157478600Y-105725043D01*
X157793936Y-105410257D01*
X157964805Y-104998759D01*
X157965194Y-104553196D01*
X157795043Y-104141400D01*
X157655500Y-104001613D01*
X157655500Y-101935720D01*
X158450720Y-101140500D01*
X168858280Y-101140500D01*
X166343803Y-103654977D01*
X166148196Y-103654806D01*
X165736400Y-103824957D01*
X165421064Y-104139743D01*
X165250195Y-104551241D01*
X165249806Y-104996804D01*
X165419957Y-105408600D01*
X165734743Y-105723936D01*
X166146241Y-105894805D01*
X166591804Y-105895194D01*
X167003600Y-105725043D01*
X167097001Y-105631804D01*
X171599806Y-105631804D01*
X171769957Y-106043600D01*
X171909500Y-106183387D01*
X171909500Y-110351548D01*
X171771064Y-110489743D01*
X171600195Y-110901241D01*
X171599806Y-111346804D01*
X171769957Y-111758600D01*
X172084743Y-112073936D01*
X172496241Y-112244805D01*
X172941804Y-112245194D01*
X173353600Y-112075043D01*
X173668936Y-111760257D01*
X173839805Y-111348759D01*
X173840194Y-110903196D01*
X173670043Y-110491400D01*
X173530500Y-110351613D01*
X173530500Y-106183452D01*
X173668936Y-106045257D01*
X173839805Y-105633759D01*
X173840194Y-105188196D01*
X173670043Y-104776400D01*
X173355257Y-104461064D01*
X172943759Y-104290195D01*
X172498196Y-104289806D01*
X172086400Y-104459957D01*
X171771064Y-104774743D01*
X171600195Y-105186241D01*
X171599806Y-105631804D01*
X167097001Y-105631804D01*
X167318936Y-105410257D01*
X167489805Y-104998759D01*
X167489977Y-104801243D01*
X169880720Y-102410500D01*
X170676548Y-102410500D01*
X170814743Y-102548936D01*
X171226241Y-102719805D01*
X171671804Y-102720194D01*
X172083600Y-102550043D01*
X172398936Y-102235257D01*
X172569805Y-101823759D01*
X172570194Y-101378196D01*
X172471980Y-101140500D01*
X180836548Y-101140500D01*
X180974743Y-101278936D01*
X181386241Y-101449805D01*
X181831804Y-101450194D01*
X182243600Y-101280043D01*
X182558936Y-100965257D01*
X182729805Y-100553759D01*
X182730194Y-100108196D01*
X182560043Y-99696400D01*
X182245257Y-99381064D01*
X181833759Y-99210195D01*
X181388196Y-99209806D01*
X180976400Y-99379957D01*
X180836613Y-99519500D01*
X177551917Y-99519500D01*
X177649805Y-99283759D01*
X177650194Y-98838196D01*
X177480043Y-98426400D01*
X177165257Y-98111064D01*
X176753759Y-97940195D01*
X176308196Y-97939806D01*
X175896400Y-98109957D01*
X175756613Y-98249500D01*
X156845000Y-98249500D01*
X156534835Y-98311196D01*
X156271890Y-98486890D01*
X155001890Y-99756890D01*
X154826196Y-100019835D01*
X154764500Y-100330000D01*
X154764500Y-102731548D01*
X154626064Y-102869743D01*
X154455195Y-103281241D01*
X154454806Y-103726804D01*
X108195000Y-103726804D01*
X108195000Y-95695000D01*
X196805000Y-95695000D01*
X196805000Y-124305000D01*
M02*
