G04 #@! TF.FileFunction,Copper,L1,Top,Signal*
%FSLAX46Y46*%
G04 Gerber Fmt 4.6, Leading zero omitted, Abs format (unit mm)*
G04 Created by KiCad (PCBNEW 4.0.7-e2-6376~58~ubuntu17.04.1) date Mon Oct 30 22:15:39 2017*
%MOMM*%
%LPD*%
G01*
G04 APERTURE LIST*
%ADD10C,0.100000*%
%ADD11R,1.600000X1.600000*%
%ADD12C,1.600000*%
%ADD13R,0.750000X1.200000*%
%ADD14R,3.000000X3.000000*%
%ADD15C,3.250000*%
%ADD16C,1.500000*%
%ADD17R,1.700000X1.700000*%
%ADD18O,1.700000X1.700000*%
%ADD19R,0.600000X1.500000*%
%ADD20C,1.000000*%
%ADD21C,1.270000*%
%ADD22C,0.635000*%
%ADD23C,0.381000*%
%ADD24C,0.254000*%
G04 APERTURE END LIST*
D10*
D11*
X139700000Y-109220000D03*
D12*
X139700000Y-111720000D03*
D13*
X162560000Y-113980000D03*
X162560000Y-112080000D03*
D14*
X133350000Y-99060000D03*
X138430000Y-99060000D03*
X143510000Y-99060000D03*
X148590000Y-99060000D03*
X179070000Y-99060000D03*
X184150000Y-99060000D03*
X166370000Y-99060000D03*
X161290000Y-99060000D03*
D15*
X132715000Y-117475000D03*
X121285000Y-117475000D03*
D16*
X131445000Y-108585000D03*
X130175000Y-111125000D03*
X128905000Y-108585000D03*
X127635000Y-111125000D03*
X126365000Y-108585000D03*
X125095000Y-111125000D03*
X123825000Y-108585000D03*
X122555000Y-111125000D03*
D14*
X156210000Y-99060000D03*
X171450000Y-99060000D03*
X120650000Y-99060000D03*
X125730000Y-99060000D03*
D17*
X181610000Y-111760000D03*
D18*
X184150000Y-111760000D03*
X181610000Y-114300000D03*
X184150000Y-114300000D03*
X181610000Y-116840000D03*
X184150000Y-116840000D03*
D19*
X165100000Y-113190000D03*
X166370000Y-113190000D03*
X167640000Y-113190000D03*
X168910000Y-113190000D03*
X170180000Y-113190000D03*
X171450000Y-113190000D03*
X172720000Y-113190000D03*
X172720000Y-107790000D03*
X171450000Y-107790000D03*
X170180000Y-107790000D03*
X168910000Y-107790000D03*
X167640000Y-107790000D03*
X166370000Y-107790000D03*
X165100000Y-107790000D03*
X149225000Y-114040000D03*
X150495000Y-114040000D03*
X151765000Y-114040000D03*
X153035000Y-114040000D03*
X154305000Y-114040000D03*
X155575000Y-114040000D03*
X156845000Y-114040000D03*
X158115000Y-114040000D03*
X158115000Y-106940000D03*
X156845000Y-106940000D03*
X155575000Y-106940000D03*
X154305000Y-106940000D03*
X153035000Y-106940000D03*
X151765000Y-106940000D03*
X150495000Y-106940000D03*
X149225000Y-106940000D03*
D13*
X146050000Y-107000000D03*
X146050000Y-108900000D03*
D20*
X143510000Y-116205000D03*
X143510000Y-112395000D03*
X175895000Y-113030000D03*
X163830000Y-114300000D03*
X128270000Y-100330000D03*
X129540000Y-100330000D03*
X128270000Y-99060000D03*
X129540000Y-99060000D03*
X164465000Y-106680000D03*
X161925000Y-111125000D03*
X145415000Y-109855000D03*
X158115000Y-115570000D03*
X154305000Y-115570000D03*
X153035000Y-115570000D03*
X176530000Y-99060000D03*
X155575000Y-103505000D03*
X181610000Y-100330000D03*
X156845000Y-104775000D03*
X172720000Y-111125000D03*
X172720000Y-105410000D03*
X171450000Y-101600000D03*
X166370000Y-104775000D03*
X149225000Y-116205000D03*
X166370000Y-116840000D03*
X170180000Y-115570000D03*
X164465000Y-115570000D03*
D21*
X123825000Y-104140000D02*
X120650000Y-100965000D01*
X120650000Y-100965000D02*
X120650000Y-99060000D01*
X123825000Y-108585000D02*
X123825000Y-104140000D01*
X138430000Y-109220000D02*
X139700000Y-109220000D01*
X133350000Y-104140000D02*
X138430000Y-109220000D01*
X132715000Y-104140000D02*
X133350000Y-104140000D01*
X130175000Y-104140000D02*
X132715000Y-104140000D01*
X123825000Y-104140000D02*
X130175000Y-104140000D01*
D22*
X142240000Y-110490000D02*
X142240000Y-111125000D01*
X142240000Y-111125000D02*
X143510000Y-112395000D01*
X147320000Y-113030000D02*
X147320000Y-114935000D01*
X146685000Y-116205000D02*
X144145000Y-116205000D01*
X147320000Y-115570000D02*
X146685000Y-116205000D01*
X147320000Y-114935000D02*
X147320000Y-115570000D01*
D23*
X179070000Y-113030000D02*
X175895000Y-113030000D01*
X179070000Y-113030000D02*
X180340000Y-113030000D01*
D24*
X180340000Y-113030000D02*
X182880000Y-113030000D01*
D23*
X184150000Y-111760000D02*
X182880000Y-113030000D01*
D22*
X142240000Y-109220000D02*
X142240000Y-110490000D01*
X143510000Y-116205000D02*
X144145000Y-116205000D01*
X147320000Y-113030000D02*
X148590000Y-111760000D01*
X148590000Y-111760000D02*
X155575000Y-111760000D01*
D23*
X163510000Y-113980000D02*
X163830000Y-114300000D01*
X162560000Y-113980000D02*
X163510000Y-113980000D01*
D22*
X162560000Y-113980000D02*
X163515000Y-113980000D01*
X164305000Y-113190000D02*
X165100000Y-113190000D01*
X163515000Y-113980000D02*
X164305000Y-113190000D01*
X162560000Y-113980000D02*
X161605000Y-113980000D01*
X161605000Y-113980000D02*
X161290000Y-113665000D01*
X161290000Y-113665000D02*
X159385000Y-111760000D01*
X159385000Y-111760000D02*
X155575000Y-111760000D01*
D23*
X155575000Y-111760000D02*
X155575000Y-114040000D01*
D22*
X139700000Y-109220000D02*
X142240000Y-109220000D01*
X144460000Y-107000000D02*
X146050000Y-107000000D01*
X142240000Y-109220000D02*
X144460000Y-107000000D01*
X149225000Y-106940000D02*
X146110000Y-106940000D01*
X146110000Y-106940000D02*
X146050000Y-107000000D01*
D21*
X128270000Y-100330000D02*
X129540000Y-100330000D01*
X125730000Y-99060000D02*
X128270000Y-99060000D01*
X128270000Y-99060000D02*
X128270000Y-100330000D01*
X129540000Y-99060000D02*
X128270000Y-99060000D01*
X129540000Y-100330000D02*
X129540000Y-99060000D01*
D23*
X165100000Y-107790000D02*
X165100000Y-107315000D01*
X165100000Y-107315000D02*
X164465000Y-106680000D01*
X162560000Y-112080000D02*
X162560000Y-111760000D01*
X162560000Y-111760000D02*
X161925000Y-111125000D01*
X146050000Y-108900000D02*
X146050000Y-109220000D01*
X146050000Y-109220000D02*
X145415000Y-109855000D01*
X158115000Y-114040000D02*
X158115000Y-115570000D01*
X154305000Y-114040000D02*
X154305000Y-115570000D01*
X153035000Y-114040000D02*
X153035000Y-115570000D01*
X150495000Y-106940000D02*
X150495000Y-105410000D01*
X133350000Y-101600000D02*
X133350000Y-99060000D01*
X136525000Y-104775000D02*
X133350000Y-101600000D01*
X149860000Y-104775000D02*
X136525000Y-104775000D01*
X150495000Y-105410000D02*
X149860000Y-104775000D01*
X151765000Y-106940000D02*
X151765000Y-105410000D01*
X138430000Y-102235000D02*
X138430000Y-99060000D01*
X139700000Y-103505000D02*
X138430000Y-102235000D01*
X149860000Y-103505000D02*
X139700000Y-103505000D01*
X151765000Y-105410000D02*
X149860000Y-103505000D01*
X153035000Y-106940000D02*
X153035000Y-105410000D01*
X143510000Y-101600000D02*
X143510000Y-99060000D01*
X144145000Y-102235000D02*
X143510000Y-101600000D01*
X149860000Y-102235000D02*
X144145000Y-102235000D01*
X153035000Y-105410000D02*
X149860000Y-102235000D01*
X154305000Y-106940000D02*
X154305000Y-105410000D01*
X154305000Y-105410000D02*
X148590000Y-99695000D01*
X148590000Y-99695000D02*
X148590000Y-99060000D01*
X155575000Y-106940000D02*
X155575000Y-103505000D01*
X176530000Y-99060000D02*
X179070000Y-99060000D01*
X156845000Y-106940000D02*
X156845000Y-104775000D01*
X181610000Y-100330000D02*
X182880000Y-99060000D01*
X182880000Y-99060000D02*
X184150000Y-99060000D01*
X172720000Y-113190000D02*
X172720000Y-111125000D01*
X170815000Y-103505000D02*
X166370000Y-99060000D01*
X170815000Y-103505000D02*
X172720000Y-105410000D01*
X180340000Y-115570000D02*
X173355000Y-115570000D01*
D24*
X182880000Y-115570000D02*
X180340000Y-115570000D01*
D23*
X184150000Y-114300000D02*
X182880000Y-115570000D01*
X172720000Y-114935000D02*
X172720000Y-113190000D01*
X173355000Y-115570000D02*
X172720000Y-114935000D01*
X178435000Y-114300000D02*
X175260000Y-114300000D01*
X174625000Y-113665000D02*
X174625000Y-110490000D01*
X175260000Y-114300000D02*
X174625000Y-113665000D01*
X171450000Y-107790000D02*
X171450000Y-109220000D01*
X171450000Y-109220000D02*
X172085000Y-109855000D01*
X172085000Y-109855000D02*
X173990000Y-109855000D01*
X173990000Y-109855000D02*
X174625000Y-110490000D01*
X178435000Y-114300000D02*
X181610000Y-114300000D01*
X171450000Y-107790000D02*
X171450000Y-106045000D01*
X161290000Y-100965000D02*
X161290000Y-99060000D01*
X161925000Y-101600000D02*
X161290000Y-100965000D01*
X167005000Y-101600000D02*
X161925000Y-101600000D01*
X171450000Y-106045000D02*
X167005000Y-101600000D01*
X128905000Y-108585000D02*
X128905000Y-107315000D01*
X169545000Y-110490000D02*
X170180000Y-109855000D01*
X170180000Y-109855000D02*
X170180000Y-107790000D01*
X147955000Y-110490000D02*
X160655000Y-110490000D01*
X146050000Y-112395000D02*
X147955000Y-110490000D01*
X137160000Y-114935000D02*
X143510000Y-114935000D01*
X168910000Y-111125000D02*
X163830000Y-111125000D01*
X163830000Y-111125000D02*
X163195000Y-110490000D01*
X169545000Y-110490000D02*
X168910000Y-111125000D01*
X162560000Y-109855000D02*
X161290000Y-109855000D01*
X161290000Y-109855000D02*
X160655000Y-110490000D01*
X163195000Y-110490000D02*
X162560000Y-109855000D01*
X145415000Y-114935000D02*
X146050000Y-114300000D01*
X146050000Y-114300000D02*
X146050000Y-112395000D01*
X143510000Y-114935000D02*
X145415000Y-114935000D01*
X135890000Y-114935000D02*
X137160000Y-114935000D01*
X133350000Y-112395000D02*
X135890000Y-114935000D01*
X133350000Y-107950000D02*
X133350000Y-112395000D01*
X132080000Y-106680000D02*
X133350000Y-107950000D01*
X129540000Y-106680000D02*
X132080000Y-106680000D01*
X128905000Y-107315000D02*
X129540000Y-106680000D01*
X128905000Y-108585000D02*
X128905000Y-107950000D01*
X126365000Y-108585000D02*
X126365000Y-106680000D01*
X147955000Y-109220000D02*
X160020000Y-109220000D01*
X144780000Y-112395000D02*
X147955000Y-109220000D01*
X137795000Y-113665000D02*
X143510000Y-113665000D01*
X168275000Y-109855000D02*
X164465000Y-109855000D01*
X164465000Y-109855000D02*
X163830000Y-109220000D01*
X168275000Y-109855000D02*
X168910000Y-109220000D01*
X163195000Y-108585000D02*
X160655000Y-108585000D01*
X160655000Y-108585000D02*
X160020000Y-109220000D01*
X163830000Y-109220000D02*
X163195000Y-108585000D01*
X144145000Y-113665000D02*
X144780000Y-113030000D01*
X144780000Y-113030000D02*
X144780000Y-112395000D01*
X143510000Y-113665000D02*
X144145000Y-113665000D01*
X136525000Y-113665000D02*
X137795000Y-113665000D01*
X134620000Y-111760000D02*
X136525000Y-113665000D01*
X134620000Y-107950000D02*
X134620000Y-111760000D01*
X132080000Y-105410000D02*
X134620000Y-107950000D01*
X127635000Y-105410000D02*
X132080000Y-105410000D01*
X126365000Y-106680000D02*
X127635000Y-105410000D01*
X168910000Y-109220000D02*
X168910000Y-107790000D01*
X168910000Y-109220000D02*
X168910000Y-109220000D01*
X167640000Y-107790000D02*
X167640000Y-104140000D01*
X156210000Y-102235000D02*
X156210000Y-99060000D01*
X156845000Y-102870000D02*
X156210000Y-102235000D01*
X166370000Y-102870000D02*
X156845000Y-102870000D01*
X167640000Y-104140000D02*
X166370000Y-102870000D01*
X166370000Y-106045000D02*
X166370000Y-104775000D01*
X171450000Y-99060000D02*
X171450000Y-101600000D01*
X166370000Y-106045000D02*
X166370000Y-107790000D01*
X172720000Y-107790000D02*
X177640000Y-107790000D01*
X177640000Y-107790000D02*
X181610000Y-111760000D01*
X181610000Y-116840000D02*
X169545000Y-116840000D01*
X168910000Y-116205000D02*
X168910000Y-113190000D01*
X169545000Y-116840000D02*
X168910000Y-116205000D01*
X166370000Y-114935000D02*
X166370000Y-116840000D01*
X166370000Y-113190000D02*
X166370000Y-114935000D01*
X149225000Y-114040000D02*
X149225000Y-116205000D01*
X149225000Y-116205000D02*
X149225000Y-116205000D01*
X150495000Y-114040000D02*
X150495000Y-116205000D01*
X167640000Y-117475000D02*
X167640000Y-113190000D01*
X167005000Y-118110000D02*
X167640000Y-117475000D01*
X152400000Y-118110000D02*
X167005000Y-118110000D01*
X150495000Y-116205000D02*
X152400000Y-118110000D01*
X170180000Y-113190000D02*
X170180000Y-114935000D01*
X151765000Y-116205000D02*
X151765000Y-114040000D01*
X151765000Y-116205000D02*
X152400000Y-116840000D01*
X163195000Y-116840000D02*
X152400000Y-116840000D01*
X164465000Y-115570000D02*
X163195000Y-116840000D01*
X170180000Y-114935000D02*
X170180000Y-115570000D01*
M02*
