M48
;DRILL file {KiCad 4.0.7-e2-6376~58~ubuntu17.04.1} date Mon Oct 30 22:16:01 2017
;FORMAT={-:-/ absolute / inch / decimal}
FMAT,2
INCH,TZ
T1C0.016
T2C0.024
T3C0.031
T4C0.039
%
G90
G05
M72
T1
X5.05Y-3.9
X5.05Y-3.95
X5.1Y-3.9
X5.1Y-3.95
X5.65Y-4.425
X5.65Y-4.575
X5.725Y-4.325
X5.875Y-4.575
X6.025Y-4.55
X6.075Y-4.55
X6.125Y-4.075
X6.175Y-4.125
X6.225Y-4.55
X6.375Y-4.375
X6.45Y-4.5
X6.475Y-4.2
X6.475Y-4.55
X6.55Y-4.125
X6.55Y-4.6
X6.7Y-4.55
X6.75Y-4.
X6.8Y-4.15
X6.8Y-4.375
X6.925Y-4.45
X6.95Y-3.9
X7.15Y-3.95
T2
X4.825Y-4.375
X4.875Y-4.275
X4.925Y-4.375
X4.975Y-4.275
X5.025Y-4.375
X5.075Y-4.275
X5.125Y-4.375
X5.175Y-4.275
T3
X5.5Y-4.3
X5.5Y-4.3984
T4
X7.15Y-4.4
X7.15Y-4.5
X7.15Y-4.6
X7.25Y-4.4
X7.25Y-4.5
X7.25Y-4.6
T0
M30
