G04 #@! TF.FileFunction,Legend,Bot*
%FSLAX46Y46*%
G04 Gerber Fmt 4.6, Leading zero omitted, Abs format (unit mm)*
G04 Created by KiCad (PCBNEW 4.0.7-e2-6376~58~ubuntu17.04.1) date Sun Oct 22 18:17:48 2017*
%MOMM*%
%LPD*%
G01*
G04 APERTURE LIST*
%ADD10C,0.100000*%
%ADD11C,0.300000*%
%ADD12C,0.120000*%
%ADD13C,0.150000*%
G04 APERTURE END LIST*
D10*
D11*
X168282857Y-21141429D02*
X168568571Y-21141429D01*
X168711429Y-21070000D01*
X168854286Y-20927143D01*
X168925714Y-20641429D01*
X168925714Y-20141429D01*
X168854286Y-19855714D01*
X168711429Y-19712857D01*
X168568571Y-19641429D01*
X168282857Y-19641429D01*
X168140000Y-19712857D01*
X167997143Y-19855714D01*
X167925714Y-20141429D01*
X167925714Y-20641429D01*
X167997143Y-20927143D01*
X168140000Y-21070000D01*
X168282857Y-21141429D01*
X169568572Y-20427143D02*
X170068572Y-20427143D01*
X170282858Y-19641429D02*
X169568572Y-19641429D01*
X169568572Y-21141429D01*
X170282858Y-21141429D01*
X160627143Y-24415714D02*
X160698571Y-24630000D01*
X160698571Y-24987143D01*
X160627143Y-25130000D01*
X160555714Y-25201429D01*
X160412857Y-25272857D01*
X160270000Y-25272857D01*
X160127143Y-25201429D01*
X160055714Y-25130000D01*
X159984286Y-24987143D01*
X159912857Y-24701429D01*
X159841429Y-24558571D01*
X159770000Y-24487143D01*
X159627143Y-24415714D01*
X159484286Y-24415714D01*
X159341429Y-24487143D01*
X159270000Y-24558571D01*
X159198571Y-24701429D01*
X159198571Y-25058571D01*
X159270000Y-25272857D01*
X160698571Y-25915714D02*
X159198571Y-25915714D01*
X159198571Y-26272857D01*
X159270000Y-26487142D01*
X159412857Y-26630000D01*
X159555714Y-26701428D01*
X159841429Y-26772857D01*
X160055714Y-26772857D01*
X160341429Y-26701428D01*
X160484286Y-26630000D01*
X160627143Y-26487142D01*
X160698571Y-26272857D01*
X160698571Y-25915714D01*
X159198571Y-27701428D02*
X159198571Y-27987142D01*
X159270000Y-28130000D01*
X159412857Y-28272857D01*
X159698571Y-28344285D01*
X160198571Y-28344285D01*
X160484286Y-28272857D01*
X160627143Y-28130000D01*
X160698571Y-27987142D01*
X160698571Y-27701428D01*
X160627143Y-27558571D01*
X160484286Y-27415714D01*
X160198571Y-27344285D01*
X159698571Y-27344285D01*
X159412857Y-27415714D01*
X159270000Y-27558571D01*
X159198571Y-27701428D01*
X155475714Y-25344286D02*
X155547143Y-25272857D01*
X155618571Y-25058571D01*
X155618571Y-24915714D01*
X155547143Y-24701429D01*
X155404286Y-24558571D01*
X155261429Y-24487143D01*
X154975714Y-24415714D01*
X154761429Y-24415714D01*
X154475714Y-24487143D01*
X154332857Y-24558571D01*
X154190000Y-24701429D01*
X154118571Y-24915714D01*
X154118571Y-25058571D01*
X154190000Y-25272857D01*
X154261429Y-25344286D01*
X155618571Y-26701429D02*
X155618571Y-25987143D01*
X154118571Y-25987143D01*
X155618571Y-27201429D02*
X154118571Y-27201429D01*
X155618571Y-28058572D02*
X154761429Y-27415715D01*
X154118571Y-28058572D02*
X154975714Y-27201429D01*
X150538571Y-25201429D02*
X150538571Y-24487143D01*
X149038571Y-24487143D01*
X150110000Y-25630000D02*
X150110000Y-26344286D01*
X150538571Y-25487143D02*
X149038571Y-25987143D01*
X150538571Y-26487143D01*
X149038571Y-26772857D02*
X149038571Y-27630000D01*
X150538571Y-27201429D02*
X149038571Y-27201429D01*
X150395714Y-28987143D02*
X150467143Y-28915714D01*
X150538571Y-28701428D01*
X150538571Y-28558571D01*
X150467143Y-28344286D01*
X150324286Y-28201428D01*
X150181429Y-28130000D01*
X149895714Y-28058571D01*
X149681429Y-28058571D01*
X149395714Y-28130000D01*
X149252857Y-28201428D01*
X149110000Y-28344286D01*
X149038571Y-28558571D01*
X149038571Y-28701428D01*
X149110000Y-28915714D01*
X149181429Y-28987143D01*
X150538571Y-29630000D02*
X149038571Y-29630000D01*
X149752857Y-29630000D02*
X149752857Y-30487143D01*
X150538571Y-30487143D02*
X149038571Y-30487143D01*
X114407143Y-23217143D02*
X114407143Y-24360000D01*
X114978571Y-23788571D02*
X113835714Y-23788571D01*
X113478571Y-25788572D02*
X113478571Y-25074286D01*
X114192857Y-25002857D01*
X114121429Y-25074286D01*
X114050000Y-25217143D01*
X114050000Y-25574286D01*
X114121429Y-25717143D01*
X114192857Y-25788572D01*
X114335714Y-25860000D01*
X114692857Y-25860000D01*
X114835714Y-25788572D01*
X114907143Y-25717143D01*
X114978571Y-25574286D01*
X114978571Y-25217143D01*
X114907143Y-25074286D01*
X114835714Y-25002857D01*
X113478571Y-26288571D02*
X114978571Y-26788571D01*
X113478571Y-27288571D01*
X118630000Y-24002857D02*
X118558571Y-23860000D01*
X118558571Y-23645714D01*
X118630000Y-23431429D01*
X118772857Y-23288571D01*
X118915714Y-23217143D01*
X119201429Y-23145714D01*
X119415714Y-23145714D01*
X119701429Y-23217143D01*
X119844286Y-23288571D01*
X119987143Y-23431429D01*
X120058571Y-23645714D01*
X120058571Y-23788571D01*
X119987143Y-24002857D01*
X119915714Y-24074286D01*
X119415714Y-24074286D01*
X119415714Y-23788571D01*
X120058571Y-24717143D02*
X118558571Y-24717143D01*
X120058571Y-25574286D01*
X118558571Y-25574286D01*
X120058571Y-26288572D02*
X118558571Y-26288572D01*
X118558571Y-26645715D01*
X118630000Y-26860000D01*
X118772857Y-27002858D01*
X118915714Y-27074286D01*
X119201429Y-27145715D01*
X119415714Y-27145715D01*
X119701429Y-27074286D01*
X119844286Y-27002858D01*
X119987143Y-26860000D01*
X120058571Y-26645715D01*
X120058571Y-26288572D01*
X172902858Y-24864286D02*
X172831429Y-24792857D01*
X172617143Y-24721429D01*
X172474286Y-24721429D01*
X172260001Y-24792857D01*
X172117143Y-24935714D01*
X172045715Y-25078571D01*
X171974286Y-25364286D01*
X171974286Y-25578571D01*
X172045715Y-25864286D01*
X172117143Y-26007143D01*
X172260001Y-26150000D01*
X172474286Y-26221429D01*
X172617143Y-26221429D01*
X172831429Y-26150000D01*
X172902858Y-26078571D01*
X173831429Y-26221429D02*
X174117143Y-26221429D01*
X174260001Y-26150000D01*
X174402858Y-26007143D01*
X174474286Y-25721429D01*
X174474286Y-25221429D01*
X174402858Y-24935714D01*
X174260001Y-24792857D01*
X174117143Y-24721429D01*
X173831429Y-24721429D01*
X173688572Y-24792857D01*
X173545715Y-24935714D01*
X173474286Y-25221429D01*
X173474286Y-25721429D01*
X173545715Y-26007143D01*
X173688572Y-26150000D01*
X173831429Y-26221429D01*
X175831430Y-24721429D02*
X175117144Y-24721429D01*
X175117144Y-26221429D01*
X176260001Y-24792857D02*
X176474287Y-24721429D01*
X176831430Y-24721429D01*
X176974287Y-24792857D01*
X177045716Y-24864286D01*
X177117144Y-25007143D01*
X177117144Y-25150000D01*
X177045716Y-25292857D01*
X176974287Y-25364286D01*
X176831430Y-25435714D01*
X176545716Y-25507143D01*
X176402858Y-25578571D01*
X176331430Y-25650000D01*
X176260001Y-25792857D01*
X176260001Y-25935714D01*
X176331430Y-26078571D01*
X176402858Y-26150000D01*
X176545716Y-26221429D01*
X176902858Y-26221429D01*
X177117144Y-26150000D01*
X177688572Y-26078571D02*
X177760001Y-26150000D01*
X177902858Y-26221429D01*
X178260001Y-26221429D01*
X178402858Y-26150000D01*
X178474287Y-26078571D01*
X178545715Y-25935714D01*
X178545715Y-25792857D01*
X178474287Y-25578571D01*
X177617144Y-24721429D01*
X178545715Y-24721429D01*
X132262858Y-24864286D02*
X132191429Y-24792857D01*
X131977143Y-24721429D01*
X131834286Y-24721429D01*
X131620001Y-24792857D01*
X131477143Y-24935714D01*
X131405715Y-25078571D01*
X131334286Y-25364286D01*
X131334286Y-25578571D01*
X131405715Y-25864286D01*
X131477143Y-26007143D01*
X131620001Y-26150000D01*
X131834286Y-26221429D01*
X131977143Y-26221429D01*
X132191429Y-26150000D01*
X132262858Y-26078571D01*
X133191429Y-26221429D02*
X133477143Y-26221429D01*
X133620001Y-26150000D01*
X133762858Y-26007143D01*
X133834286Y-25721429D01*
X133834286Y-25221429D01*
X133762858Y-24935714D01*
X133620001Y-24792857D01*
X133477143Y-24721429D01*
X133191429Y-24721429D01*
X133048572Y-24792857D01*
X132905715Y-24935714D01*
X132834286Y-25221429D01*
X132834286Y-25721429D01*
X132905715Y-26007143D01*
X133048572Y-26150000D01*
X133191429Y-26221429D01*
X135191430Y-24721429D02*
X134477144Y-24721429D01*
X134477144Y-26221429D01*
X135620001Y-24792857D02*
X135834287Y-24721429D01*
X136191430Y-24721429D01*
X136334287Y-24792857D01*
X136405716Y-24864286D01*
X136477144Y-25007143D01*
X136477144Y-25150000D01*
X136405716Y-25292857D01*
X136334287Y-25364286D01*
X136191430Y-25435714D01*
X135905716Y-25507143D01*
X135762858Y-25578571D01*
X135691430Y-25650000D01*
X135620001Y-25792857D01*
X135620001Y-25935714D01*
X135691430Y-26078571D01*
X135762858Y-26150000D01*
X135905716Y-26221429D01*
X136262858Y-26221429D01*
X136477144Y-26150000D01*
X137905715Y-24721429D02*
X137048572Y-24721429D01*
X137477144Y-24721429D02*
X137477144Y-26221429D01*
X137334287Y-26007143D01*
X137191429Y-25864286D01*
X137048572Y-25792857D01*
X177617142Y-205005714D02*
X177688571Y-205077143D01*
X177902857Y-205148571D01*
X178045714Y-205148571D01*
X178259999Y-205077143D01*
X178402857Y-204934286D01*
X178474285Y-204791429D01*
X178545714Y-204505714D01*
X178545714Y-204291429D01*
X178474285Y-204005714D01*
X178402857Y-203862857D01*
X178259999Y-203720000D01*
X178045714Y-203648571D01*
X177902857Y-203648571D01*
X177688571Y-203720000D01*
X177617142Y-203791429D01*
X176688571Y-203648571D02*
X176402857Y-203648571D01*
X176259999Y-203720000D01*
X176117142Y-203862857D01*
X176045714Y-204148571D01*
X176045714Y-204648571D01*
X176117142Y-204934286D01*
X176259999Y-205077143D01*
X176402857Y-205148571D01*
X176688571Y-205148571D01*
X176831428Y-205077143D01*
X176974285Y-204934286D01*
X177045714Y-204648571D01*
X177045714Y-204148571D01*
X176974285Y-203862857D01*
X176831428Y-203720000D01*
X176688571Y-203648571D01*
X174688570Y-205148571D02*
X175402856Y-205148571D01*
X175402856Y-203648571D01*
X174259999Y-205077143D02*
X174045713Y-205148571D01*
X173688570Y-205148571D01*
X173545713Y-205077143D01*
X173474284Y-205005714D01*
X173402856Y-204862857D01*
X173402856Y-204720000D01*
X173474284Y-204577143D01*
X173545713Y-204505714D01*
X173688570Y-204434286D01*
X173974284Y-204362857D01*
X174117142Y-204291429D01*
X174188570Y-204220000D01*
X174259999Y-204077143D01*
X174259999Y-203934286D01*
X174188570Y-203791429D01*
X174117142Y-203720000D01*
X173974284Y-203648571D01*
X173617142Y-203648571D01*
X173402856Y-203720000D01*
X172831428Y-203791429D02*
X172759999Y-203720000D01*
X172617142Y-203648571D01*
X172259999Y-203648571D01*
X172117142Y-203720000D01*
X172045713Y-203791429D01*
X171974285Y-203934286D01*
X171974285Y-204077143D01*
X172045713Y-204291429D01*
X172902856Y-205148571D01*
X171974285Y-205148571D01*
X169537143Y-208728571D02*
X169251429Y-208728571D01*
X169108571Y-208800000D01*
X168965714Y-208942857D01*
X168894286Y-209228571D01*
X168894286Y-209728571D01*
X168965714Y-210014286D01*
X169108571Y-210157143D01*
X169251429Y-210228571D01*
X169537143Y-210228571D01*
X169680000Y-210157143D01*
X169822857Y-210014286D01*
X169894286Y-209728571D01*
X169894286Y-209228571D01*
X169822857Y-208942857D01*
X169680000Y-208800000D01*
X169537143Y-208728571D01*
X168251428Y-209442857D02*
X167751428Y-209442857D01*
X167537142Y-210228571D02*
X168251428Y-210228571D01*
X168251428Y-208728571D01*
X167537142Y-208728571D01*
X159412857Y-205454286D02*
X159341429Y-205240000D01*
X159341429Y-204882857D01*
X159412857Y-204740000D01*
X159484286Y-204668571D01*
X159627143Y-204597143D01*
X159770000Y-204597143D01*
X159912857Y-204668571D01*
X159984286Y-204740000D01*
X160055714Y-204882857D01*
X160127143Y-205168571D01*
X160198571Y-205311429D01*
X160270000Y-205382857D01*
X160412857Y-205454286D01*
X160555714Y-205454286D01*
X160698571Y-205382857D01*
X160770000Y-205311429D01*
X160841429Y-205168571D01*
X160841429Y-204811429D01*
X160770000Y-204597143D01*
X159341429Y-203954286D02*
X160841429Y-203954286D01*
X160841429Y-203597143D01*
X160770000Y-203382858D01*
X160627143Y-203240000D01*
X160484286Y-203168572D01*
X160198571Y-203097143D01*
X159984286Y-203097143D01*
X159698571Y-203168572D01*
X159555714Y-203240000D01*
X159412857Y-203382858D01*
X159341429Y-203597143D01*
X159341429Y-203954286D01*
X159341429Y-202454286D02*
X160841429Y-202454286D01*
X154404286Y-204525714D02*
X154332857Y-204597143D01*
X154261429Y-204811429D01*
X154261429Y-204954286D01*
X154332857Y-205168571D01*
X154475714Y-205311429D01*
X154618571Y-205382857D01*
X154904286Y-205454286D01*
X155118571Y-205454286D01*
X155404286Y-205382857D01*
X155547143Y-205311429D01*
X155690000Y-205168571D01*
X155761429Y-204954286D01*
X155761429Y-204811429D01*
X155690000Y-204597143D01*
X155618571Y-204525714D01*
X154261429Y-203168571D02*
X154261429Y-203882857D01*
X155761429Y-203882857D01*
X154261429Y-202668571D02*
X155761429Y-202668571D01*
X154261429Y-201811428D02*
X155118571Y-202454285D01*
X155761429Y-201811428D02*
X154904286Y-202668571D01*
X149181429Y-204668571D02*
X149181429Y-205382857D01*
X150681429Y-205382857D01*
X149610000Y-204240000D02*
X149610000Y-203525714D01*
X149181429Y-204382857D02*
X150681429Y-203882857D01*
X149181429Y-203382857D01*
X150681429Y-203097143D02*
X150681429Y-202240000D01*
X149181429Y-202668571D02*
X150681429Y-202668571D01*
X149324286Y-200882857D02*
X149252857Y-200954286D01*
X149181429Y-201168572D01*
X149181429Y-201311429D01*
X149252857Y-201525714D01*
X149395714Y-201668572D01*
X149538571Y-201740000D01*
X149824286Y-201811429D01*
X150038571Y-201811429D01*
X150324286Y-201740000D01*
X150467143Y-201668572D01*
X150610000Y-201525714D01*
X150681429Y-201311429D01*
X150681429Y-201168572D01*
X150610000Y-200954286D01*
X150538571Y-200882857D01*
X149181429Y-200240000D02*
X150681429Y-200240000D01*
X149967143Y-200240000D02*
X149967143Y-199382857D01*
X149181429Y-199382857D02*
X150681429Y-199382857D01*
X136977142Y-205005714D02*
X137048571Y-205077143D01*
X137262857Y-205148571D01*
X137405714Y-205148571D01*
X137619999Y-205077143D01*
X137762857Y-204934286D01*
X137834285Y-204791429D01*
X137905714Y-204505714D01*
X137905714Y-204291429D01*
X137834285Y-204005714D01*
X137762857Y-203862857D01*
X137619999Y-203720000D01*
X137405714Y-203648571D01*
X137262857Y-203648571D01*
X137048571Y-203720000D01*
X136977142Y-203791429D01*
X136048571Y-203648571D02*
X135762857Y-203648571D01*
X135619999Y-203720000D01*
X135477142Y-203862857D01*
X135405714Y-204148571D01*
X135405714Y-204648571D01*
X135477142Y-204934286D01*
X135619999Y-205077143D01*
X135762857Y-205148571D01*
X136048571Y-205148571D01*
X136191428Y-205077143D01*
X136334285Y-204934286D01*
X136405714Y-204648571D01*
X136405714Y-204148571D01*
X136334285Y-203862857D01*
X136191428Y-203720000D01*
X136048571Y-203648571D01*
X134048570Y-205148571D02*
X134762856Y-205148571D01*
X134762856Y-203648571D01*
X133619999Y-205077143D02*
X133405713Y-205148571D01*
X133048570Y-205148571D01*
X132905713Y-205077143D01*
X132834284Y-205005714D01*
X132762856Y-204862857D01*
X132762856Y-204720000D01*
X132834284Y-204577143D01*
X132905713Y-204505714D01*
X133048570Y-204434286D01*
X133334284Y-204362857D01*
X133477142Y-204291429D01*
X133548570Y-204220000D01*
X133619999Y-204077143D01*
X133619999Y-203934286D01*
X133548570Y-203791429D01*
X133477142Y-203720000D01*
X133334284Y-203648571D01*
X132977142Y-203648571D01*
X132762856Y-203720000D01*
X131334285Y-205148571D02*
X132191428Y-205148571D01*
X131762856Y-205148571D02*
X131762856Y-203648571D01*
X131905713Y-203862857D01*
X132048571Y-204005714D01*
X132191428Y-204077143D01*
X120130000Y-205867143D02*
X120201429Y-206010000D01*
X120201429Y-206224286D01*
X120130000Y-206438571D01*
X119987143Y-206581429D01*
X119844286Y-206652857D01*
X119558571Y-206724286D01*
X119344286Y-206724286D01*
X119058571Y-206652857D01*
X118915714Y-206581429D01*
X118772857Y-206438571D01*
X118701429Y-206224286D01*
X118701429Y-206081429D01*
X118772857Y-205867143D01*
X118844286Y-205795714D01*
X119344286Y-205795714D01*
X119344286Y-206081429D01*
X118701429Y-205152857D02*
X120201429Y-205152857D01*
X118701429Y-204295714D01*
X120201429Y-204295714D01*
X118701429Y-203581428D02*
X120201429Y-203581428D01*
X120201429Y-203224285D01*
X120130000Y-203010000D01*
X119987143Y-202867142D01*
X119844286Y-202795714D01*
X119558571Y-202724285D01*
X119344286Y-202724285D01*
X119058571Y-202795714D01*
X118915714Y-202867142D01*
X118772857Y-203010000D01*
X118701429Y-203224285D01*
X118701429Y-203581428D01*
X114192857Y-206652857D02*
X114192857Y-205510000D01*
X113621429Y-206081429D02*
X114764286Y-206081429D01*
X115121429Y-204081428D02*
X115121429Y-204795714D01*
X114407143Y-204867143D01*
X114478571Y-204795714D01*
X114550000Y-204652857D01*
X114550000Y-204295714D01*
X114478571Y-204152857D01*
X114407143Y-204081428D01*
X114264286Y-204010000D01*
X113907143Y-204010000D01*
X113764286Y-204081428D01*
X113692857Y-204152857D01*
X113621429Y-204295714D01*
X113621429Y-204652857D01*
X113692857Y-204795714D01*
X113764286Y-204867143D01*
X115121429Y-203581429D02*
X113621429Y-203081429D01*
X115121429Y-202581429D01*
D12*
X130500000Y-61470000D02*
X131430000Y-61470000D01*
X133660000Y-61470000D02*
X132730000Y-61470000D01*
X133660000Y-61470000D02*
X133660000Y-64630000D01*
X130500000Y-61470000D02*
X130500000Y-62930000D01*
X131770000Y-86870000D02*
X132700000Y-86870000D01*
X134930000Y-86870000D02*
X134000000Y-86870000D01*
X134930000Y-86870000D02*
X134930000Y-90030000D01*
X131770000Y-86870000D02*
X131770000Y-88330000D01*
X133040000Y-161800000D02*
X133970000Y-161800000D01*
X136200000Y-161800000D02*
X135270000Y-161800000D01*
X136200000Y-161800000D02*
X136200000Y-164960000D01*
X133040000Y-161800000D02*
X133040000Y-163260000D01*
X143820000Y-193800000D02*
X142890000Y-193800000D01*
X140660000Y-193800000D02*
X141590000Y-193800000D01*
X140660000Y-193800000D02*
X140660000Y-190640000D01*
X143820000Y-193800000D02*
X143820000Y-192340000D01*
X197160000Y-43940000D02*
X196230000Y-43940000D01*
X194000000Y-43940000D02*
X194930000Y-43940000D01*
X194000000Y-43940000D02*
X194000000Y-40780000D01*
X197160000Y-43940000D02*
X197160000Y-42480000D01*
X198430000Y-193800000D02*
X197500000Y-193800000D01*
X195270000Y-193800000D02*
X196200000Y-193800000D01*
X195270000Y-193800000D02*
X195270000Y-190640000D01*
X198430000Y-193800000D02*
X198430000Y-192340000D01*
X132680000Y-66430000D02*
X131480000Y-66430000D01*
X131480000Y-68190000D02*
X132680000Y-68190000D01*
X133950000Y-91830000D02*
X132750000Y-91830000D01*
X132750000Y-93590000D02*
X133950000Y-93590000D01*
X135220000Y-166760000D02*
X134020000Y-166760000D01*
X134020000Y-168520000D02*
X135220000Y-168520000D01*
X141640000Y-188840000D02*
X142840000Y-188840000D01*
X142840000Y-187080000D02*
X141640000Y-187080000D01*
X194980000Y-38980000D02*
X196180000Y-38980000D01*
X196180000Y-37220000D02*
X194980000Y-37220000D01*
X172685000Y-150885000D02*
X171485000Y-150885000D01*
X171485000Y-152645000D02*
X172685000Y-152645000D01*
X196250000Y-188840000D02*
X197450000Y-188840000D01*
X197450000Y-187080000D02*
X196250000Y-187080000D01*
X171800000Y-149260000D02*
X171100000Y-149260000D01*
X171100000Y-150460000D02*
X171800000Y-150460000D01*
D13*
X162495000Y-148845000D02*
X162495000Y-148570000D01*
X170245000Y-148845000D02*
X170245000Y-148480000D01*
X170245000Y-133095000D02*
X170245000Y-133460000D01*
X162495000Y-133095000D02*
X162495000Y-133460000D01*
X162495000Y-148845000D02*
X170245000Y-148845000D01*
X162495000Y-133095000D02*
X170245000Y-133095000D01*
X162495000Y-148570000D02*
X160670000Y-148570000D01*
X135127619Y-62134762D02*
X135080000Y-62039524D01*
X134984762Y-61944286D01*
X134841905Y-61801429D01*
X134794286Y-61706190D01*
X134794286Y-61610952D01*
X135032381Y-61658571D02*
X134984762Y-61563333D01*
X134889524Y-61468095D01*
X134699048Y-61420476D01*
X134365714Y-61420476D01*
X134175238Y-61468095D01*
X134080000Y-61563333D01*
X134032381Y-61658571D01*
X134032381Y-61849048D01*
X134080000Y-61944286D01*
X134175238Y-62039524D01*
X134365714Y-62087143D01*
X134699048Y-62087143D01*
X134889524Y-62039524D01*
X134984762Y-61944286D01*
X135032381Y-61849048D01*
X135032381Y-61658571D01*
X135032381Y-63039524D02*
X135032381Y-62468095D01*
X135032381Y-62753809D02*
X134032381Y-62753809D01*
X134175238Y-62658571D01*
X134270476Y-62563333D01*
X134318095Y-62468095D01*
X136397619Y-87534762D02*
X136350000Y-87439524D01*
X136254762Y-87344286D01*
X136111905Y-87201429D01*
X136064286Y-87106190D01*
X136064286Y-87010952D01*
X136302381Y-87058571D02*
X136254762Y-86963333D01*
X136159524Y-86868095D01*
X135969048Y-86820476D01*
X135635714Y-86820476D01*
X135445238Y-86868095D01*
X135350000Y-86963333D01*
X135302381Y-87058571D01*
X135302381Y-87249048D01*
X135350000Y-87344286D01*
X135445238Y-87439524D01*
X135635714Y-87487143D01*
X135969048Y-87487143D01*
X136159524Y-87439524D01*
X136254762Y-87344286D01*
X136302381Y-87249048D01*
X136302381Y-87058571D01*
X135397619Y-87868095D02*
X135350000Y-87915714D01*
X135302381Y-88010952D01*
X135302381Y-88249048D01*
X135350000Y-88344286D01*
X135397619Y-88391905D01*
X135492857Y-88439524D01*
X135588095Y-88439524D01*
X135730952Y-88391905D01*
X136302381Y-87820476D01*
X136302381Y-88439524D01*
X137667619Y-162464762D02*
X137620000Y-162369524D01*
X137524762Y-162274286D01*
X137381905Y-162131429D01*
X137334286Y-162036190D01*
X137334286Y-161940952D01*
X137572381Y-161988571D02*
X137524762Y-161893333D01*
X137429524Y-161798095D01*
X137239048Y-161750476D01*
X136905714Y-161750476D01*
X136715238Y-161798095D01*
X136620000Y-161893333D01*
X136572381Y-161988571D01*
X136572381Y-162179048D01*
X136620000Y-162274286D01*
X136715238Y-162369524D01*
X136905714Y-162417143D01*
X137239048Y-162417143D01*
X137429524Y-162369524D01*
X137524762Y-162274286D01*
X137572381Y-162179048D01*
X137572381Y-161988571D01*
X136572381Y-162750476D02*
X136572381Y-163369524D01*
X136953333Y-163036190D01*
X136953333Y-163179048D01*
X137000952Y-163274286D01*
X137048571Y-163321905D01*
X137143810Y-163369524D01*
X137381905Y-163369524D01*
X137477143Y-163321905D01*
X137524762Y-163274286D01*
X137572381Y-163179048D01*
X137572381Y-162893333D01*
X137524762Y-162798095D01*
X137477143Y-162750476D01*
X140287619Y-192944762D02*
X140240000Y-192849524D01*
X140144762Y-192754286D01*
X140001905Y-192611429D01*
X139954286Y-192516190D01*
X139954286Y-192420952D01*
X140192381Y-192468571D02*
X140144762Y-192373333D01*
X140049524Y-192278095D01*
X139859048Y-192230476D01*
X139525714Y-192230476D01*
X139335238Y-192278095D01*
X139240000Y-192373333D01*
X139192381Y-192468571D01*
X139192381Y-192659048D01*
X139240000Y-192754286D01*
X139335238Y-192849524D01*
X139525714Y-192897143D01*
X139859048Y-192897143D01*
X140049524Y-192849524D01*
X140144762Y-192754286D01*
X140192381Y-192659048D01*
X140192381Y-192468571D01*
X139525714Y-193754286D02*
X140192381Y-193754286D01*
X139144762Y-193516190D02*
X139859048Y-193278095D01*
X139859048Y-193897143D01*
X193627619Y-43084762D02*
X193580000Y-42989524D01*
X193484762Y-42894286D01*
X193341905Y-42751429D01*
X193294286Y-42656190D01*
X193294286Y-42560952D01*
X193532381Y-42608571D02*
X193484762Y-42513333D01*
X193389524Y-42418095D01*
X193199048Y-42370476D01*
X192865714Y-42370476D01*
X192675238Y-42418095D01*
X192580000Y-42513333D01*
X192532381Y-42608571D01*
X192532381Y-42799048D01*
X192580000Y-42894286D01*
X192675238Y-42989524D01*
X192865714Y-43037143D01*
X193199048Y-43037143D01*
X193389524Y-42989524D01*
X193484762Y-42894286D01*
X193532381Y-42799048D01*
X193532381Y-42608571D01*
X192532381Y-43941905D02*
X192532381Y-43465714D01*
X193008571Y-43418095D01*
X192960952Y-43465714D01*
X192913333Y-43560952D01*
X192913333Y-43799048D01*
X192960952Y-43894286D01*
X193008571Y-43941905D01*
X193103810Y-43989524D01*
X193341905Y-43989524D01*
X193437143Y-43941905D01*
X193484762Y-43894286D01*
X193532381Y-43799048D01*
X193532381Y-43560952D01*
X193484762Y-43465714D01*
X193437143Y-43418095D01*
X194897619Y-192944762D02*
X194850000Y-192849524D01*
X194754762Y-192754286D01*
X194611905Y-192611429D01*
X194564286Y-192516190D01*
X194564286Y-192420952D01*
X194802381Y-192468571D02*
X194754762Y-192373333D01*
X194659524Y-192278095D01*
X194469048Y-192230476D01*
X194135714Y-192230476D01*
X193945238Y-192278095D01*
X193850000Y-192373333D01*
X193802381Y-192468571D01*
X193802381Y-192659048D01*
X193850000Y-192754286D01*
X193945238Y-192849524D01*
X194135714Y-192897143D01*
X194469048Y-192897143D01*
X194659524Y-192849524D01*
X194754762Y-192754286D01*
X194802381Y-192659048D01*
X194802381Y-192468571D01*
X193802381Y-193754286D02*
X193802381Y-193563809D01*
X193850000Y-193468571D01*
X193897619Y-193420952D01*
X194040476Y-193325714D01*
X194230952Y-193278095D01*
X194611905Y-193278095D01*
X194707143Y-193325714D01*
X194754762Y-193373333D01*
X194802381Y-193468571D01*
X194802381Y-193659048D01*
X194754762Y-193754286D01*
X194707143Y-193801905D01*
X194611905Y-193849524D01*
X194373810Y-193849524D01*
X194278571Y-193801905D01*
X194230952Y-193754286D01*
X194183333Y-193659048D01*
X194183333Y-193468571D01*
X194230952Y-193373333D01*
X194278571Y-193325714D01*
X194373810Y-193278095D01*
X132246666Y-69462381D02*
X132580000Y-68986190D01*
X132818095Y-69462381D02*
X132818095Y-68462381D01*
X132437142Y-68462381D01*
X132341904Y-68510000D01*
X132294285Y-68557619D01*
X132246666Y-68652857D01*
X132246666Y-68795714D01*
X132294285Y-68890952D01*
X132341904Y-68938571D01*
X132437142Y-68986190D01*
X132818095Y-68986190D01*
X131294285Y-69462381D02*
X131865714Y-69462381D01*
X131580000Y-69462381D02*
X131580000Y-68462381D01*
X131675238Y-68605238D01*
X131770476Y-68700476D01*
X131865714Y-68748095D01*
X133516666Y-94862381D02*
X133850000Y-94386190D01*
X134088095Y-94862381D02*
X134088095Y-93862381D01*
X133707142Y-93862381D01*
X133611904Y-93910000D01*
X133564285Y-93957619D01*
X133516666Y-94052857D01*
X133516666Y-94195714D01*
X133564285Y-94290952D01*
X133611904Y-94338571D01*
X133707142Y-94386190D01*
X134088095Y-94386190D01*
X133135714Y-93957619D02*
X133088095Y-93910000D01*
X132992857Y-93862381D01*
X132754761Y-93862381D01*
X132659523Y-93910000D01*
X132611904Y-93957619D01*
X132564285Y-94052857D01*
X132564285Y-94148095D01*
X132611904Y-94290952D01*
X133183333Y-94862381D01*
X132564285Y-94862381D01*
X134786666Y-169792381D02*
X135120000Y-169316190D01*
X135358095Y-169792381D02*
X135358095Y-168792381D01*
X134977142Y-168792381D01*
X134881904Y-168840000D01*
X134834285Y-168887619D01*
X134786666Y-168982857D01*
X134786666Y-169125714D01*
X134834285Y-169220952D01*
X134881904Y-169268571D01*
X134977142Y-169316190D01*
X135358095Y-169316190D01*
X134453333Y-168792381D02*
X133834285Y-168792381D01*
X134167619Y-169173333D01*
X134024761Y-169173333D01*
X133929523Y-169220952D01*
X133881904Y-169268571D01*
X133834285Y-169363810D01*
X133834285Y-169601905D01*
X133881904Y-169697143D01*
X133929523Y-169744762D01*
X134024761Y-169792381D01*
X134310476Y-169792381D01*
X134405714Y-169744762D01*
X134453333Y-169697143D01*
X142406666Y-186712381D02*
X142740000Y-186236190D01*
X142978095Y-186712381D02*
X142978095Y-185712381D01*
X142597142Y-185712381D01*
X142501904Y-185760000D01*
X142454285Y-185807619D01*
X142406666Y-185902857D01*
X142406666Y-186045714D01*
X142454285Y-186140952D01*
X142501904Y-186188571D01*
X142597142Y-186236190D01*
X142978095Y-186236190D01*
X141549523Y-186045714D02*
X141549523Y-186712381D01*
X141787619Y-185664762D02*
X142025714Y-186379048D01*
X141406666Y-186379048D01*
X195746666Y-36852381D02*
X196080000Y-36376190D01*
X196318095Y-36852381D02*
X196318095Y-35852381D01*
X195937142Y-35852381D01*
X195841904Y-35900000D01*
X195794285Y-35947619D01*
X195746666Y-36042857D01*
X195746666Y-36185714D01*
X195794285Y-36280952D01*
X195841904Y-36328571D01*
X195937142Y-36376190D01*
X196318095Y-36376190D01*
X194841904Y-35852381D02*
X195318095Y-35852381D01*
X195365714Y-36328571D01*
X195318095Y-36280952D01*
X195222857Y-36233333D01*
X194984761Y-36233333D01*
X194889523Y-36280952D01*
X194841904Y-36328571D01*
X194794285Y-36423810D01*
X194794285Y-36661905D01*
X194841904Y-36757143D01*
X194889523Y-36804762D01*
X194984761Y-36852381D01*
X195222857Y-36852381D01*
X195318095Y-36804762D01*
X195365714Y-36757143D01*
X172251666Y-153917381D02*
X172585000Y-153441190D01*
X172823095Y-153917381D02*
X172823095Y-152917381D01*
X172442142Y-152917381D01*
X172346904Y-152965000D01*
X172299285Y-153012619D01*
X172251666Y-153107857D01*
X172251666Y-153250714D01*
X172299285Y-153345952D01*
X172346904Y-153393571D01*
X172442142Y-153441190D01*
X172823095Y-153441190D01*
X171394523Y-152917381D02*
X171585000Y-152917381D01*
X171680238Y-152965000D01*
X171727857Y-153012619D01*
X171823095Y-153155476D01*
X171870714Y-153345952D01*
X171870714Y-153726905D01*
X171823095Y-153822143D01*
X171775476Y-153869762D01*
X171680238Y-153917381D01*
X171489761Y-153917381D01*
X171394523Y-153869762D01*
X171346904Y-153822143D01*
X171299285Y-153726905D01*
X171299285Y-153488810D01*
X171346904Y-153393571D01*
X171394523Y-153345952D01*
X171489761Y-153298333D01*
X171680238Y-153298333D01*
X171775476Y-153345952D01*
X171823095Y-153393571D01*
X171870714Y-153488810D01*
X197016666Y-186712381D02*
X197350000Y-186236190D01*
X197588095Y-186712381D02*
X197588095Y-185712381D01*
X197207142Y-185712381D01*
X197111904Y-185760000D01*
X197064285Y-185807619D01*
X197016666Y-185902857D01*
X197016666Y-186045714D01*
X197064285Y-186140952D01*
X197111904Y-186188571D01*
X197207142Y-186236190D01*
X197588095Y-186236190D01*
X196683333Y-185712381D02*
X196016666Y-185712381D01*
X196445238Y-186712381D01*
X174666666Y-150357143D02*
X174714285Y-150404762D01*
X174857142Y-150452381D01*
X174952380Y-150452381D01*
X175095238Y-150404762D01*
X175190476Y-150309524D01*
X175238095Y-150214286D01*
X175285714Y-150023810D01*
X175285714Y-149880952D01*
X175238095Y-149690476D01*
X175190476Y-149595238D01*
X175095238Y-149500000D01*
X174952380Y-149452381D01*
X174857142Y-149452381D01*
X174714285Y-149500000D01*
X174666666Y-149547619D01*
X173714285Y-150452381D02*
X174285714Y-150452381D01*
X174000000Y-150452381D02*
X174000000Y-149452381D01*
X174095238Y-149595238D01*
X174190476Y-149690476D01*
X174285714Y-149738095D01*
X167179523Y-149222381D02*
X167179523Y-149936667D01*
X167227143Y-150079524D01*
X167322381Y-150174762D01*
X167465238Y-150222381D01*
X167560476Y-150222381D01*
X166179523Y-150222381D02*
X166750952Y-150222381D01*
X166465238Y-150222381D02*
X166465238Y-149222381D01*
X166560476Y-149365238D01*
X166655714Y-149460476D01*
X166750952Y-149508095D01*
X165227142Y-150222381D02*
X165798571Y-150222381D01*
X165512857Y-150222381D02*
X165512857Y-149222381D01*
X165608095Y-149365238D01*
X165703333Y-149460476D01*
X165798571Y-149508095D01*
M02*
