G04 #@! TF.FileFunction,Copper,L1,Top,Signal*
%FSLAX46Y46*%
G04 Gerber Fmt 4.6, Leading zero omitted, Abs format (unit mm)*
G04 Created by KiCad (PCBNEW 4.0.7-e2-6376~58~ubuntu17.04.1) date Sun Oct 22 18:17:48 2017*
%MOMM*%
%LPD*%
G01*
G04 APERTURE LIST*
%ADD10C,0.100000*%
%ADD11R,2.000000X3.000000*%
%ADD12O,2.000000X3.000000*%
%ADD13C,1.000000*%
%ADD14C,0.635000*%
%ADD15C,1.270000*%
%ADD16C,0.500000*%
G04 APERTURE END LIST*
D10*
D11*
X23730000Y-27500000D03*
D12*
X26270000Y-27500000D03*
D11*
X43730000Y-27500000D03*
D12*
X46270000Y-27500000D03*
D11*
X63730000Y-27500000D03*
D12*
X66270000Y-27500000D03*
D11*
X83730000Y-27500000D03*
D12*
X86270000Y-27500000D03*
D11*
X103730000Y-27500000D03*
D12*
X106270000Y-27500000D03*
D11*
X123730000Y-27500000D03*
D12*
X126270000Y-27500000D03*
D11*
X143730000Y-27500000D03*
D12*
X146270000Y-27500000D03*
D11*
X163730000Y-27500000D03*
D12*
X166270000Y-27500000D03*
D11*
X23730000Y-52500000D03*
D12*
X26270000Y-52500000D03*
D11*
X43730000Y-52500000D03*
D12*
X46270000Y-52500000D03*
D11*
X63730000Y-52500000D03*
D12*
X66270000Y-52500000D03*
D11*
X83730000Y-52500000D03*
D12*
X86270000Y-52500000D03*
D11*
X103730000Y-52500000D03*
D12*
X106270000Y-52500000D03*
D11*
X123730000Y-52500000D03*
D12*
X126270000Y-52500000D03*
D11*
X143730000Y-52500000D03*
D12*
X146270000Y-52500000D03*
D11*
X163730000Y-52500000D03*
D12*
X166270000Y-52500000D03*
D11*
X23730000Y-77500000D03*
D12*
X26270000Y-77500000D03*
D11*
X43730000Y-77500000D03*
D12*
X46270000Y-77500000D03*
D11*
X63730000Y-77500000D03*
D12*
X66270000Y-77500000D03*
D11*
X83730000Y-77500000D03*
D12*
X86270000Y-77500000D03*
D11*
X103730000Y-77500000D03*
D12*
X106270000Y-77500000D03*
D11*
X123730000Y-77500000D03*
D12*
X126270000Y-77500000D03*
D11*
X143730000Y-77500000D03*
D12*
X146270000Y-77500000D03*
D11*
X163730000Y-77500000D03*
D12*
X166270000Y-77500000D03*
D11*
X23730000Y-102500000D03*
D12*
X26270000Y-102500000D03*
D11*
X43730000Y-102500000D03*
D12*
X46270000Y-102500000D03*
D11*
X63730000Y-102500000D03*
D12*
X66270000Y-102500000D03*
D11*
X83730000Y-102500000D03*
D12*
X86270000Y-102500000D03*
D11*
X103730000Y-102500000D03*
D12*
X106270000Y-102500000D03*
D11*
X123730000Y-102500000D03*
D12*
X126270000Y-102500000D03*
D11*
X143730000Y-102500000D03*
D12*
X146270000Y-102500000D03*
D11*
X163730000Y-102500000D03*
D12*
X166270000Y-102500000D03*
D11*
X23730000Y-127500000D03*
D12*
X26270000Y-127500000D03*
D11*
X43730000Y-127500000D03*
D12*
X46270000Y-127500000D03*
D11*
X63730000Y-127500000D03*
D12*
X66270000Y-127500000D03*
D11*
X83730000Y-127500000D03*
D12*
X86270000Y-127500000D03*
D11*
X103730000Y-127500000D03*
D12*
X106270000Y-127500000D03*
D11*
X123730000Y-127500000D03*
D12*
X126270000Y-127500000D03*
D11*
X143730000Y-127500000D03*
D12*
X146270000Y-127500000D03*
D11*
X163730000Y-127500000D03*
D12*
X166270000Y-127500000D03*
D11*
X23730000Y-152500000D03*
D12*
X26270000Y-152500000D03*
D11*
X43730000Y-152500000D03*
D12*
X46270000Y-152500000D03*
D11*
X63730000Y-152500000D03*
D12*
X66270000Y-152500000D03*
D11*
X83730000Y-152500000D03*
D12*
X86270000Y-152500000D03*
D11*
X103730000Y-152500000D03*
D12*
X106270000Y-152500000D03*
D11*
X123730000Y-152500000D03*
D12*
X126270000Y-152500000D03*
D11*
X143730000Y-152500000D03*
D12*
X146270000Y-152500000D03*
D11*
X163730000Y-152500000D03*
D12*
X166270000Y-152500000D03*
D11*
X23730000Y-177500000D03*
D12*
X26270000Y-177500000D03*
D11*
X43730000Y-177500000D03*
D12*
X46270000Y-177500000D03*
D11*
X63730000Y-177500000D03*
D12*
X66270000Y-177500000D03*
D11*
X83730000Y-177500000D03*
D12*
X86270000Y-177500000D03*
D11*
X103730000Y-177500000D03*
D12*
X106270000Y-177500000D03*
D11*
X123730000Y-177500000D03*
D12*
X126270000Y-177500000D03*
D11*
X143730000Y-177500000D03*
D12*
X146270000Y-177500000D03*
D11*
X163730000Y-177500000D03*
D12*
X166270000Y-177500000D03*
D11*
X23730000Y-202500000D03*
D12*
X26270000Y-202500000D03*
D11*
X43730000Y-202500000D03*
D12*
X46270000Y-202500000D03*
D11*
X63730000Y-202500000D03*
D12*
X66270000Y-202500000D03*
D11*
X83730000Y-202500000D03*
D12*
X86270000Y-202500000D03*
D11*
X103730000Y-202500000D03*
D12*
X106270000Y-202500000D03*
D11*
X123730000Y-202500000D03*
D12*
X126270000Y-202500000D03*
D11*
X143730000Y-202500000D03*
D12*
X146270000Y-202500000D03*
D11*
X163730000Y-202500000D03*
D12*
X166270000Y-202500000D03*
D11*
X183730000Y-27500000D03*
D12*
X186270000Y-27500000D03*
D11*
X203730000Y-27500000D03*
D12*
X206270000Y-27500000D03*
D11*
X223730000Y-27500000D03*
D12*
X226270000Y-27500000D03*
D11*
X243730000Y-27500000D03*
D12*
X246270000Y-27500000D03*
D11*
X183730000Y-52500000D03*
D12*
X186270000Y-52500000D03*
D11*
X203730000Y-52500000D03*
D12*
X206270000Y-52500000D03*
D11*
X223730000Y-52500000D03*
D12*
X226270000Y-52500000D03*
D11*
X243730000Y-52500000D03*
D12*
X246270000Y-52500000D03*
D11*
X183730000Y-77500000D03*
D12*
X186270000Y-77500000D03*
D11*
X203730000Y-77500000D03*
D12*
X206270000Y-77500000D03*
D11*
X223730000Y-77500000D03*
D12*
X226270000Y-77500000D03*
D11*
X243730000Y-77500000D03*
D12*
X246270000Y-77500000D03*
D11*
X183730000Y-102500000D03*
D12*
X186270000Y-102500000D03*
D11*
X203730000Y-102500000D03*
D12*
X206270000Y-102500000D03*
D11*
X223730000Y-102500000D03*
D12*
X226270000Y-102500000D03*
D11*
X243730000Y-102500000D03*
D12*
X246270000Y-102500000D03*
D11*
X183730000Y-127500000D03*
D12*
X186270000Y-127500000D03*
D11*
X203730000Y-127500000D03*
D12*
X206270000Y-127500000D03*
D11*
X223730000Y-127500000D03*
D12*
X226270000Y-127500000D03*
D11*
X243730000Y-127500000D03*
D12*
X246270000Y-127500000D03*
D11*
X183730000Y-152500000D03*
D12*
X186270000Y-152500000D03*
D11*
X203730000Y-152500000D03*
D12*
X206270000Y-152500000D03*
D11*
X223730000Y-152500000D03*
D12*
X226270000Y-152500000D03*
D11*
X243730000Y-152500000D03*
D12*
X246270000Y-152500000D03*
D11*
X183730000Y-177500000D03*
D12*
X186270000Y-177500000D03*
D11*
X203730000Y-177500000D03*
D12*
X206270000Y-177500000D03*
D11*
X223730000Y-177500000D03*
D12*
X226270000Y-177500000D03*
D11*
X243730000Y-177500000D03*
D12*
X246270000Y-177500000D03*
D11*
X183730000Y-202500000D03*
D12*
X186270000Y-202500000D03*
D11*
X203730000Y-202500000D03*
D12*
X206270000Y-202500000D03*
D11*
X223730000Y-202500000D03*
D12*
X226270000Y-202500000D03*
D11*
X243730000Y-202500000D03*
D12*
X246270000Y-202500000D03*
D13*
X193040000Y-143510000D03*
X182880000Y-143510000D03*
X166370000Y-143510000D03*
X31750000Y-142240000D03*
X31750000Y-85090000D03*
X31750000Y-166370000D03*
X31750000Y-41910000D03*
X189230000Y-44450000D03*
X184150000Y-39370000D03*
X193040000Y-123190000D03*
X181610000Y-142240000D03*
X196850000Y-142240000D03*
X167640000Y-142240000D03*
X196850000Y-128270000D03*
X38100000Y-128270000D03*
X38100000Y-77470000D03*
X38100000Y-177800000D03*
X182880000Y-140970000D03*
X217170000Y-140970000D03*
X166370000Y-140970000D03*
X217170000Y-128270000D03*
X58420000Y-128270000D03*
X58420000Y-77470000D03*
X58420000Y-177800000D03*
X181610000Y-139700000D03*
X237490000Y-139700000D03*
X167640000Y-139700000D03*
X237490000Y-128270000D03*
X78740000Y-77470000D03*
X78740000Y-128270000D03*
X78740000Y-177800000D03*
X181610000Y-137160000D03*
X191770000Y-137160000D03*
X167640000Y-137160000D03*
X191770000Y-63500000D03*
X191770000Y-157480000D03*
X99060000Y-128270000D03*
X99060000Y-77470000D03*
X99060000Y-177800000D03*
X182880000Y-135890000D03*
X198120000Y-135890000D03*
X166370000Y-135890000D03*
X198120000Y-152400000D03*
X119380000Y-77470000D03*
X119380000Y-128270000D03*
X119380000Y-177800000D03*
X181610000Y-134620000D03*
X218440000Y-134620000D03*
X165100000Y-134620000D03*
X218440000Y-152400000D03*
X138430000Y-128270000D03*
X138430000Y-77470000D03*
X138430000Y-177800000D03*
X238760000Y-133350000D03*
X182880000Y-133350000D03*
X167640000Y-133350000D03*
X238760000Y-152400000D03*
X158750000Y-128270000D03*
X158750000Y-77470000D03*
X158750000Y-177800000D03*
X30480000Y-191770000D03*
X190500000Y-88900000D03*
X180340000Y-115570000D03*
X190500000Y-115570000D03*
X166370000Y-121920000D03*
X190500000Y-172720000D03*
X181610000Y-132080000D03*
X199390000Y-132080000D03*
X168910000Y-132080000D03*
X171450000Y-127000000D03*
X199390000Y-177800000D03*
X219710000Y-130810000D03*
X182880000Y-130810000D03*
X219710000Y-177800000D03*
X173990000Y-130810000D03*
X168910000Y-116840000D03*
X240030000Y-116840000D03*
X181610000Y-116840000D03*
X240030000Y-177800000D03*
X189230000Y-193040000D03*
X172720000Y-118110000D03*
X176530000Y-119380000D03*
X200660000Y-119380000D03*
X181610000Y-119380000D03*
X179070000Y-120650000D03*
X220980000Y-120650000D03*
X182880000Y-120650000D03*
X241300000Y-121920000D03*
X133350000Y-66040000D03*
X127000000Y-22860000D03*
X127000000Y-207010000D03*
X170815000Y-155575000D03*
X171450000Y-172720000D03*
X115570000Y-172720000D03*
X115570000Y-26670000D03*
X116840000Y-26670000D03*
X116840000Y-25400000D03*
X115570000Y-25400000D03*
X115570000Y-204470000D03*
X115570000Y-203200000D03*
X116840000Y-204470000D03*
X116840000Y-203200000D03*
X111760000Y-35560000D03*
X111760000Y-185420000D03*
X111760000Y-170180000D03*
X111760000Y-90170000D03*
X111760000Y-64770000D03*
X111760000Y-26670000D03*
X110490000Y-26670000D03*
X110490000Y-25400000D03*
X111760000Y-25400000D03*
X110490000Y-204470000D03*
X111760000Y-203200000D03*
X110490000Y-203200000D03*
X111760000Y-204470000D03*
X156210000Y-147320000D03*
X160020000Y-207010000D03*
X154940000Y-22860000D03*
X153670000Y-146050000D03*
X154940000Y-207010000D03*
X173990000Y-161290000D03*
X173990000Y-144780000D03*
X154940000Y-161290000D03*
X160020000Y-22860000D03*
X149860000Y-22860000D03*
X149860000Y-207010000D03*
X149860000Y-144780000D03*
X168910000Y-160020000D03*
X157480000Y-160020000D03*
X168910000Y-144780000D03*
X165100000Y-207010000D03*
X165100000Y-22860000D03*
X180340000Y-20320000D03*
X195580000Y-189230000D03*
X180340000Y-209550000D03*
X134700000Y-91520000D03*
X132080000Y-22860000D03*
X132080000Y-207010000D03*
X135890000Y-166370000D03*
X137160000Y-22860000D03*
X137160000Y-207010000D03*
X138430000Y-187960000D03*
X142240000Y-207010000D03*
X142240000Y-22860000D03*
X172720000Y-22860000D03*
X172720000Y-207010000D03*
X194230000Y-39290000D03*
D14*
X193040000Y-143510000D02*
X193040000Y-123190000D01*
X167640000Y-143510000D02*
X182880000Y-143510000D01*
X166370000Y-143510000D02*
X167640000Y-143510000D01*
X31750000Y-166370000D02*
X31750000Y-143510000D01*
X31750000Y-44450000D02*
X31750000Y-41910000D01*
X31750000Y-67310000D02*
X31750000Y-44450000D01*
X31750000Y-143510000D02*
X31750000Y-142240000D01*
X31750000Y-142240000D02*
X31750000Y-85090000D01*
X31750000Y-85090000D02*
X31750000Y-67310000D01*
X183730000Y-27500000D02*
X183730000Y-38950000D01*
X193040000Y-123190000D02*
X193040000Y-57150000D01*
X189230000Y-44450000D02*
X190500000Y-45720000D01*
X190500000Y-45720000D02*
X190500000Y-54610000D01*
X190500000Y-54610000D02*
X193040000Y-57150000D01*
X183730000Y-38950000D02*
X184150000Y-39370000D01*
D15*
X166270000Y-52500000D02*
X166270000Y-27500000D01*
X146270000Y-52500000D02*
X146270000Y-27500000D01*
X126270000Y-52500000D02*
X126270000Y-27500000D01*
X106270000Y-52500000D02*
X106270000Y-27500000D01*
X86270000Y-52500000D02*
X86270000Y-27500000D01*
X66270000Y-52500000D02*
X66270000Y-27500000D01*
X46270000Y-52500000D02*
X46270000Y-27500000D01*
X26270000Y-52500000D02*
X26270000Y-27500000D01*
D14*
X196850000Y-128270000D02*
X196850000Y-142240000D01*
X168910000Y-142240000D02*
X181610000Y-142240000D01*
X167640000Y-142240000D02*
X168910000Y-142240000D01*
X203730000Y-27500000D02*
X203730000Y-40110000D01*
X203730000Y-40110000D02*
X196850000Y-46990000D01*
X196850000Y-46990000D02*
X196850000Y-128270000D01*
X43730000Y-27500000D02*
X43730000Y-35010000D01*
X38100000Y-40640000D02*
X38100000Y-77470000D01*
X38100000Y-77470000D02*
X38100000Y-128270000D01*
X38100000Y-128270000D02*
X38100000Y-177800000D01*
X43730000Y-35010000D02*
X38100000Y-40640000D01*
X167640000Y-140970000D02*
X182880000Y-140970000D01*
X217170000Y-140970000D02*
X217170000Y-128270000D01*
X166370000Y-140970000D02*
X167640000Y-140970000D01*
X223730000Y-27500000D02*
X223730000Y-34080000D01*
X217170000Y-40640000D02*
X217170000Y-128270000D01*
X223730000Y-34080000D02*
X217170000Y-40640000D01*
X63730000Y-27500000D02*
X63730000Y-37870000D01*
X58420000Y-43180000D02*
X58420000Y-77470000D01*
X58420000Y-77470000D02*
X58420000Y-128270000D01*
X58420000Y-128270000D02*
X58420000Y-177800000D01*
X63730000Y-37870000D02*
X58420000Y-43180000D01*
X168910000Y-139700000D02*
X181610000Y-139700000D01*
X237490000Y-139700000D02*
X237490000Y-128270000D01*
X167640000Y-139700000D02*
X168910000Y-139700000D01*
X243730000Y-43290000D02*
X243730000Y-27500000D01*
X237490000Y-49530000D02*
X243730000Y-43290000D01*
X237490000Y-86360000D02*
X237490000Y-49530000D01*
X237490000Y-128270000D02*
X237490000Y-86360000D01*
X83730000Y-27500000D02*
X83730000Y-38190000D01*
X78740000Y-43180000D02*
X78740000Y-77470000D01*
X78740000Y-77470000D02*
X78740000Y-128270000D01*
X78740000Y-128270000D02*
X78740000Y-177800000D01*
X83730000Y-38190000D02*
X78740000Y-43180000D01*
X168910000Y-137160000D02*
X181610000Y-137160000D01*
X167640000Y-137160000D02*
X168910000Y-137160000D01*
X191770000Y-73660000D02*
X191770000Y-63500000D01*
X191770000Y-137160000D02*
X191770000Y-73660000D01*
X191770000Y-137160000D02*
X191770000Y-157480000D01*
X103730000Y-27500000D02*
X103730000Y-41050000D01*
X99060000Y-45720000D02*
X99060000Y-77470000D01*
X99060000Y-77470000D02*
X99060000Y-128270000D01*
X99060000Y-128270000D02*
X99060000Y-177800000D01*
X103730000Y-41050000D02*
X99060000Y-45720000D01*
X167640000Y-135890000D02*
X182880000Y-135890000D01*
X166370000Y-135890000D02*
X167640000Y-135890000D01*
X203730000Y-52500000D02*
X203730000Y-66780000D01*
X198120000Y-72390000D02*
X198120000Y-135890000D01*
X203730000Y-66780000D02*
X198120000Y-72390000D01*
X198120000Y-135890000D02*
X198120000Y-152400000D01*
X123730000Y-27500000D02*
X123730000Y-38830000D01*
X119380000Y-43180000D02*
X119380000Y-77470000D01*
X119380000Y-77470000D02*
X119380000Y-128270000D01*
X119380000Y-128270000D02*
X119380000Y-177800000D01*
X123730000Y-38830000D02*
X119380000Y-43180000D01*
X166370000Y-134620000D02*
X181610000Y-134620000D01*
X165100000Y-134620000D02*
X166370000Y-134620000D01*
X223730000Y-52500000D02*
X223730000Y-64560000D01*
X218440000Y-69850000D02*
X218440000Y-134620000D01*
X223730000Y-64560000D02*
X218440000Y-69850000D01*
X218440000Y-134620000D02*
X218440000Y-152400000D01*
X143730000Y-27500000D02*
X143730000Y-35340000D01*
X138430000Y-40640000D02*
X138430000Y-77470000D01*
X138430000Y-77470000D02*
X138430000Y-128270000D01*
X138430000Y-128270000D02*
X138430000Y-177800000D01*
X143730000Y-35340000D02*
X138430000Y-40640000D01*
X167640000Y-133350000D02*
X182880000Y-133350000D01*
X238760000Y-152400000D02*
X238760000Y-133350000D01*
X243730000Y-62340000D02*
X243730000Y-52500000D01*
X238760000Y-133350000D02*
X238760000Y-67310000D01*
X238760000Y-67310000D02*
X243730000Y-62340000D01*
X163730000Y-38200000D02*
X158750000Y-43180000D01*
X158750000Y-43180000D02*
X158750000Y-77470000D01*
X158750000Y-77470000D02*
X158750000Y-128270000D01*
X158750000Y-128270000D02*
X158750000Y-177800000D01*
X163730000Y-38200000D02*
X163730000Y-27500000D01*
X30480000Y-106680000D02*
X30480000Y-156210000D01*
X23730000Y-102500000D02*
X23730000Y-105010000D01*
X25400000Y-106680000D02*
X30480000Y-106680000D01*
X23730000Y-105010000D02*
X25400000Y-106680000D01*
X23730000Y-152500000D02*
X23730000Y-154540000D01*
X25400000Y-156210000D02*
X30480000Y-156210000D01*
X23730000Y-154540000D02*
X25400000Y-156210000D01*
X23730000Y-52500000D02*
X23730000Y-63100000D01*
X23730000Y-63100000D02*
X30480000Y-69850000D01*
X30480000Y-69850000D02*
X30480000Y-106680000D01*
X30480000Y-156210000D02*
X30480000Y-191770000D01*
X190500000Y-90170000D02*
X190500000Y-88900000D01*
X190500000Y-115570000D02*
X190500000Y-90170000D01*
X166370000Y-121920000D02*
X166370000Y-116840000D01*
X166370000Y-116840000D02*
X167640000Y-115570000D01*
X167640000Y-115570000D02*
X180340000Y-115570000D01*
X190500000Y-115570000D02*
X190500000Y-172720000D01*
X181610000Y-132080000D02*
X172720000Y-132080000D01*
X172720000Y-132080000D02*
X170815000Y-130175000D01*
X168910000Y-132080000D02*
X170815000Y-130175000D01*
X171450000Y-129540000D02*
X171450000Y-127000000D01*
X170815000Y-130175000D02*
X171450000Y-129540000D01*
X203730000Y-77500000D02*
X203730000Y-89640000D01*
X203730000Y-89640000D02*
X199390000Y-93980000D01*
X199390000Y-93980000D02*
X199390000Y-132080000D01*
X199390000Y-132080000D02*
X199390000Y-177800000D01*
X43730000Y-152500000D02*
X39370000Y-152500000D01*
X39370000Y-152500000D02*
X39370000Y-152400000D01*
X43730000Y-102500000D02*
X39370000Y-102500000D01*
X39370000Y-102500000D02*
X39370000Y-102870000D01*
X43730000Y-52500000D02*
X43730000Y-61680000D01*
X43730000Y-61680000D02*
X39370000Y-66040000D01*
X39370000Y-66040000D02*
X39370000Y-102870000D01*
X39370000Y-102870000D02*
X39370000Y-152400000D01*
X39370000Y-152400000D02*
X39370000Y-198140000D01*
X39370000Y-198140000D02*
X43730000Y-202500000D01*
X223730000Y-77500000D02*
X223730000Y-92500000D01*
X219710000Y-96520000D02*
X219710000Y-130810000D01*
X219710000Y-130810000D02*
X219710000Y-177800000D01*
X223730000Y-92500000D02*
X219710000Y-96520000D01*
X63730000Y-102500000D02*
X59690000Y-102500000D01*
X59690000Y-102500000D02*
X59690000Y-102870000D01*
X63730000Y-152500000D02*
X59690000Y-152500000D01*
X59690000Y-152500000D02*
X59690000Y-152400000D01*
X63730000Y-52500000D02*
X63730000Y-60730000D01*
X59690000Y-198460000D02*
X63730000Y-202500000D01*
X59690000Y-64770000D02*
X59690000Y-102870000D01*
X59690000Y-102870000D02*
X59690000Y-152400000D01*
X59690000Y-152400000D02*
X59690000Y-198460000D01*
X63730000Y-60730000D02*
X59690000Y-64770000D01*
X182880000Y-130810000D02*
X173990000Y-130810000D01*
X181610000Y-116840000D02*
X168910000Y-116840000D01*
X243730000Y-91550000D02*
X243730000Y-77500000D01*
X240030000Y-95250000D02*
X243730000Y-91550000D01*
X240030000Y-177800000D02*
X240030000Y-116840000D01*
X240030000Y-116840000D02*
X240030000Y-95250000D01*
X83730000Y-152500000D02*
X80010000Y-152500000D01*
X80010000Y-152500000D02*
X80010000Y-152400000D01*
X83730000Y-102500000D02*
X80010000Y-102500000D01*
X80010000Y-102500000D02*
X80010000Y-102870000D01*
X83730000Y-52500000D02*
X83730000Y-58510000D01*
X80010000Y-198780000D02*
X83730000Y-202500000D01*
X80010000Y-62230000D02*
X80010000Y-102870000D01*
X80010000Y-102870000D02*
X80010000Y-152400000D01*
X80010000Y-152400000D02*
X80010000Y-198780000D01*
X83730000Y-58510000D02*
X80010000Y-62230000D01*
X183730000Y-118960000D02*
X189230000Y-124460000D01*
X183730000Y-118960000D02*
X183730000Y-118110000D01*
X189230000Y-124460000D02*
X189230000Y-193040000D01*
X183730000Y-118110000D02*
X182880000Y-118110000D01*
X182880000Y-118110000D02*
X172720000Y-118110000D01*
X183730000Y-102500000D02*
X183730000Y-118110000D01*
X103730000Y-152500000D02*
X100330000Y-152500000D01*
X100330000Y-152500000D02*
X100330000Y-152400000D01*
X103730000Y-102500000D02*
X100330000Y-102500000D01*
X100330000Y-102500000D02*
X100330000Y-102870000D01*
X103730000Y-52500000D02*
X103730000Y-58830000D01*
X100330000Y-199100000D02*
X103730000Y-202500000D01*
X100330000Y-62230000D02*
X100330000Y-102870000D01*
X100330000Y-102870000D02*
X100330000Y-152400000D01*
X100330000Y-152400000D02*
X100330000Y-199100000D01*
X103730000Y-58830000D02*
X100330000Y-62230000D01*
X181610000Y-119380000D02*
X176530000Y-119380000D01*
X203730000Y-102500000D02*
X203730000Y-115040000D01*
X200660000Y-199430000D02*
X203730000Y-202500000D01*
X200660000Y-118110000D02*
X200660000Y-119380000D01*
X200660000Y-119380000D02*
X200660000Y-199430000D01*
X203730000Y-115040000D02*
X200660000Y-118110000D01*
X123730000Y-102500000D02*
X120650000Y-102500000D01*
X120650000Y-102500000D02*
X120650000Y-102870000D01*
X123730000Y-152500000D02*
X120650000Y-152500000D01*
X120650000Y-152500000D02*
X120650000Y-152400000D01*
X123730000Y-52500000D02*
X123730000Y-59150000D01*
X120650000Y-199420000D02*
X123730000Y-202500000D01*
X120650000Y-62230000D02*
X120650000Y-102870000D01*
X120650000Y-102870000D02*
X120650000Y-152400000D01*
X120650000Y-152400000D02*
X120650000Y-199420000D01*
X123730000Y-59150000D02*
X120650000Y-62230000D01*
X182880000Y-120650000D02*
X179070000Y-120650000D01*
X223730000Y-102500000D02*
X223730000Y-115360000D01*
X220980000Y-199750000D02*
X223730000Y-202500000D01*
X220980000Y-118110000D02*
X220980000Y-120650000D01*
X220980000Y-120650000D02*
X220980000Y-199750000D01*
X223730000Y-115360000D02*
X220980000Y-118110000D01*
X143730000Y-102500000D02*
X139700000Y-102500000D01*
X139700000Y-102500000D02*
X139700000Y-102870000D01*
X143730000Y-152500000D02*
X139700000Y-152500000D01*
X139700000Y-152500000D02*
X139700000Y-152400000D01*
X143730000Y-52500000D02*
X143730000Y-55660000D01*
X139700000Y-198470000D02*
X143730000Y-202500000D01*
X139700000Y-59690000D02*
X139700000Y-102870000D01*
X139700000Y-102870000D02*
X139700000Y-152400000D01*
X139700000Y-152400000D02*
X139700000Y-198470000D01*
X143730000Y-55660000D02*
X139700000Y-59690000D01*
X243730000Y-102500000D02*
X243730000Y-106790000D01*
X243730000Y-106790000D02*
X241300000Y-109220000D01*
X241300000Y-109220000D02*
X241300000Y-121920000D01*
X241300000Y-200070000D02*
X243730000Y-202500000D01*
X241300000Y-121920000D02*
X241300000Y-200070000D01*
X163730000Y-102500000D02*
X160020000Y-102500000D01*
X160020000Y-102500000D02*
X160020000Y-102870000D01*
X163730000Y-152500000D02*
X160020000Y-152500000D01*
X160020000Y-152500000D02*
X160020000Y-152400000D01*
X163730000Y-52500000D02*
X163730000Y-58520000D01*
X160020000Y-198790000D02*
X163730000Y-202500000D01*
X160020000Y-62230000D02*
X160020000Y-102870000D01*
X160020000Y-102870000D02*
X160020000Y-152400000D01*
X160020000Y-152400000D02*
X160020000Y-198790000D01*
X163730000Y-58520000D02*
X160020000Y-62230000D01*
D15*
X186270000Y-102500000D02*
X186270000Y-77500000D01*
X186270000Y-77500000D02*
X186270000Y-52500000D01*
X186270000Y-52500000D02*
X186270000Y-27500000D01*
X246270000Y-52500000D02*
X246270000Y-27500000D01*
X246270000Y-77500000D02*
X246270000Y-52500000D01*
X246270000Y-102500000D02*
X246270000Y-77500000D01*
X226270000Y-77500000D02*
X226270000Y-102500000D01*
X226270000Y-52500000D02*
X226270000Y-77500000D01*
X226270000Y-27500000D02*
X226270000Y-52500000D01*
X206270000Y-27500000D02*
X206270000Y-52500000D01*
X206270000Y-52500000D02*
X206270000Y-77500000D01*
X206270000Y-102500000D02*
X206270000Y-77500000D01*
D14*
X133350000Y-200660000D02*
X133350000Y-66040000D01*
X133350000Y-29210000D02*
X127000000Y-22860000D01*
X133350000Y-66040000D02*
X133350000Y-29210000D01*
X127000000Y-207010000D02*
X133350000Y-200660000D01*
X171450000Y-156210000D02*
X170815000Y-155575000D01*
D15*
X171450000Y-158115000D02*
X171450000Y-156210000D01*
X171450000Y-172720000D02*
X171450000Y-163830000D01*
X171450000Y-157480000D02*
X171450000Y-158115000D01*
X171450000Y-158115000D02*
X171450000Y-163830000D01*
X115570000Y-26670000D02*
X115570000Y-41910000D01*
X115570000Y-41910000D02*
X115570000Y-172720000D01*
X115570000Y-172720000D02*
X115570000Y-203200000D01*
X116840000Y-26670000D02*
X116840000Y-25400000D01*
X115570000Y-25400000D02*
X115570000Y-26670000D01*
X115570000Y-204470000D02*
X115570000Y-203200000D01*
X116840000Y-203200000D02*
X116840000Y-204470000D01*
X111760000Y-26670000D02*
X111760000Y-35560000D01*
X111760000Y-35560000D02*
X111760000Y-41910000D01*
X111760000Y-41910000D02*
X111760000Y-64770000D01*
X111760000Y-64770000D02*
X111760000Y-90170000D01*
X111760000Y-90170000D02*
X111760000Y-166370000D01*
X111760000Y-166370000D02*
X111760000Y-170180000D01*
X111760000Y-170180000D02*
X111760000Y-185420000D01*
X111760000Y-185420000D02*
X111760000Y-203200000D01*
X110490000Y-26670000D02*
X110490000Y-25400000D01*
X111760000Y-25400000D02*
X111760000Y-26670000D01*
X110490000Y-204470000D02*
X110490000Y-203200000D01*
X111760000Y-203200000D02*
X111760000Y-204470000D01*
X26270000Y-102500000D02*
X26270000Y-77500000D01*
X46270000Y-102500000D02*
X46270000Y-77500000D01*
X66270000Y-102500000D02*
X66270000Y-77500000D01*
X86270000Y-102500000D02*
X86270000Y-77500000D01*
X106270000Y-102500000D02*
X106270000Y-77500000D01*
X126270000Y-102500000D02*
X126270000Y-77500000D01*
X146270000Y-102500000D02*
X146270000Y-77500000D01*
X166270000Y-102500000D02*
X166270000Y-77500000D01*
X166270000Y-152500000D02*
X166270000Y-147220000D01*
X166270000Y-147220000D02*
X162560000Y-143510000D01*
X162560000Y-143510000D02*
X162560000Y-134620000D01*
X162560000Y-134620000D02*
X166270000Y-130910000D01*
X166270000Y-130910000D02*
X166270000Y-127500000D01*
X146270000Y-152500000D02*
X146270000Y-127500000D01*
X126270000Y-152500000D02*
X126270000Y-127500000D01*
X106270000Y-152500000D02*
X106270000Y-127500000D01*
X86270000Y-152500000D02*
X86270000Y-127500000D01*
X66270000Y-152500000D02*
X66270000Y-127500000D01*
X46270000Y-152500000D02*
X46270000Y-127500000D01*
X26270000Y-152500000D02*
X26270000Y-127500000D01*
X166270000Y-202500000D02*
X166270000Y-177500000D01*
X146270000Y-202500000D02*
X146270000Y-177500000D01*
X126270000Y-202500000D02*
X126270000Y-177500000D01*
X106270000Y-202500000D02*
X106270000Y-177500000D01*
X86270000Y-202500000D02*
X86270000Y-177500000D01*
X66270000Y-202500000D02*
X66270000Y-177500000D01*
X46270000Y-202500000D02*
X46270000Y-177500000D01*
X26270000Y-177500000D02*
X26270000Y-202500000D01*
X186270000Y-202500000D02*
X186270000Y-177500000D01*
X186270000Y-177500000D02*
X186270000Y-152500000D01*
X186270000Y-152500000D02*
X186270000Y-127500000D01*
X246270000Y-152500000D02*
X246270000Y-127500000D01*
X226270000Y-152500000D02*
X226270000Y-127500000D01*
X206270000Y-152500000D02*
X206270000Y-127500000D01*
X246270000Y-177500000D02*
X246270000Y-202500000D01*
X246270000Y-152500000D02*
X246270000Y-177500000D01*
X226270000Y-177500000D02*
X226270000Y-152500000D01*
X226270000Y-177500000D02*
X226270000Y-202500000D01*
X206270000Y-177500000D02*
X206270000Y-152500000D01*
X206270000Y-202500000D02*
X206270000Y-177500000D01*
D14*
X156210000Y-203200000D02*
X156210000Y-147320000D01*
X160020000Y-207010000D02*
X156210000Y-203200000D01*
X153670000Y-146050000D02*
X153670000Y-25400000D01*
X154940000Y-24130000D02*
X154940000Y-22860000D01*
X153670000Y-25400000D02*
X154940000Y-24130000D01*
X154940000Y-205740000D02*
X154940000Y-207010000D01*
X153670000Y-204470000D02*
X154940000Y-205740000D01*
X153670000Y-186690000D02*
X153670000Y-204470000D01*
X153670000Y-146050000D02*
X153670000Y-186690000D01*
X173990000Y-157480000D02*
X173990000Y-144780000D01*
X173990000Y-161290000D02*
X173990000Y-157480000D01*
X154940000Y-27940000D02*
X154940000Y-161290000D01*
X160020000Y-22860000D02*
X156210000Y-26670000D01*
X156210000Y-26670000D02*
X154940000Y-27940000D01*
X149860000Y-144780000D02*
X149860000Y-22860000D01*
X149860000Y-144780000D02*
X149860000Y-207010000D01*
X168910000Y-144780000D02*
X168910000Y-160020000D01*
X162560000Y-24130000D02*
X161290000Y-25400000D01*
X157480000Y-29210000D02*
X157480000Y-160020000D01*
X157480000Y-29210000D02*
X161290000Y-25400000D01*
X165100000Y-207010000D02*
X163830000Y-205740000D01*
X163830000Y-205740000D02*
X162560000Y-205740000D01*
X162560000Y-205740000D02*
X157480000Y-200660000D01*
X157480000Y-200660000D02*
X157480000Y-160020000D01*
X163830000Y-24130000D02*
X165100000Y-22860000D01*
X162560000Y-24130000D02*
X163830000Y-24130000D01*
X195580000Y-30480000D02*
X195580000Y-29210000D01*
X186690000Y-20320000D02*
X180340000Y-20320000D01*
X195580000Y-29210000D02*
X186690000Y-20320000D01*
X195580000Y-205740000D02*
X195580000Y-189230000D01*
X191770000Y-209550000D02*
X195580000Y-205740000D01*
X180340000Y-209550000D02*
X191770000Y-209550000D01*
X195580000Y-35560000D02*
X195580000Y-189230000D01*
X195580000Y-30480000D02*
X195580000Y-35560000D01*
X134700000Y-91520000D02*
X134620000Y-91440000D01*
X134620000Y-25400000D02*
X132080000Y-22860000D01*
X134620000Y-204470000D02*
X134620000Y-91440000D01*
X134620000Y-91440000D02*
X134620000Y-25400000D01*
X132080000Y-207010000D02*
X134620000Y-204470000D01*
X135890000Y-24130000D02*
X137160000Y-22860000D01*
X135890000Y-205740000D02*
X135890000Y-166370000D01*
X135890000Y-166370000D02*
X135890000Y-24130000D01*
X137160000Y-207010000D02*
X135890000Y-205740000D01*
X138430000Y-187960000D02*
X137160000Y-187960000D01*
X137160000Y-38100000D02*
X137160000Y-27940000D01*
X142240000Y-207010000D02*
X137160000Y-201930000D01*
X137160000Y-201930000D02*
X137160000Y-187960000D01*
X137160000Y-187960000D02*
X137160000Y-38100000D01*
X137160000Y-27940000D02*
X142240000Y-22860000D01*
X186690000Y-24130000D02*
X194310000Y-31750000D01*
X173990000Y-24130000D02*
X186690000Y-24130000D01*
X172720000Y-22860000D02*
X173990000Y-24130000D01*
X194230000Y-39290000D02*
X194230000Y-199470000D01*
X173990000Y-205740000D02*
X172720000Y-207010000D01*
X187960000Y-205740000D02*
X173990000Y-205740000D01*
X194230000Y-199470000D02*
X187960000Y-205740000D01*
X194230000Y-39290000D02*
X194310000Y-39370000D01*
X194310000Y-31750000D02*
X194310000Y-35560000D01*
X194310000Y-39370000D02*
X194310000Y-35560000D01*
D16*
G36*
X253675000Y-213675000D02*
X16325000Y-213675000D01*
X16325000Y-210564413D01*
X17149506Y-210564413D01*
X17582479Y-211612286D01*
X18383497Y-212414704D01*
X19430613Y-212849504D01*
X20564413Y-212850494D01*
X21612286Y-212417521D01*
X22414704Y-211616503D01*
X22849504Y-210569387D01*
X22850494Y-209435587D01*
X22417521Y-208387714D01*
X21616503Y-207585296D01*
X20569387Y-207150496D01*
X19435587Y-207149506D01*
X18387714Y-207582479D01*
X17585296Y-208383497D01*
X17150496Y-209430613D01*
X17149506Y-210564413D01*
X16325000Y-210564413D01*
X16325000Y-176000000D01*
X21455512Y-176000000D01*
X21455512Y-179000000D01*
X21542673Y-179463222D01*
X21816437Y-179888663D01*
X22234153Y-180174076D01*
X22730000Y-180274488D01*
X24385000Y-180274488D01*
X24385000Y-199725512D01*
X22730000Y-199725512D01*
X22266778Y-199812673D01*
X21841337Y-200086437D01*
X21555924Y-200504153D01*
X21455512Y-201000000D01*
X21455512Y-204000000D01*
X21542673Y-204463222D01*
X21816437Y-204888663D01*
X22234153Y-205174076D01*
X22730000Y-205274488D01*
X24730000Y-205274488D01*
X25193222Y-205187327D01*
X25344843Y-205089762D01*
X25408962Y-205132605D01*
X26270000Y-205303876D01*
X27131038Y-205132605D01*
X27860990Y-204644866D01*
X28348729Y-203914914D01*
X28520000Y-203053876D01*
X28520000Y-201946124D01*
X28348729Y-201085086D01*
X28155000Y-200795150D01*
X28155000Y-179204850D01*
X28348729Y-178914914D01*
X28520000Y-178053876D01*
X28520000Y-176946124D01*
X28348729Y-176085086D01*
X27860990Y-175355134D01*
X27131038Y-174867395D01*
X26270000Y-174696124D01*
X25408962Y-174867395D01*
X25347068Y-174908751D01*
X25225847Y-174825924D01*
X24730000Y-174725512D01*
X22730000Y-174725512D01*
X22266778Y-174812673D01*
X21841337Y-175086437D01*
X21555924Y-175504153D01*
X21455512Y-176000000D01*
X16325000Y-176000000D01*
X16325000Y-115564413D01*
X17149506Y-115564413D01*
X17582479Y-116612286D01*
X18383497Y-117414704D01*
X19430613Y-117849504D01*
X20564413Y-117850494D01*
X21612286Y-117417521D01*
X22414704Y-116616503D01*
X22849504Y-115569387D01*
X22850494Y-114435587D01*
X22417521Y-113387714D01*
X21616503Y-112585296D01*
X20569387Y-112150496D01*
X19435587Y-112149506D01*
X18387714Y-112582479D01*
X17585296Y-113383497D01*
X17150496Y-114430613D01*
X17149506Y-115564413D01*
X16325000Y-115564413D01*
X16325000Y-26000000D01*
X21455512Y-26000000D01*
X21455512Y-29000000D01*
X21542673Y-29463222D01*
X21816437Y-29888663D01*
X22234153Y-30174076D01*
X22730000Y-30274488D01*
X24385000Y-30274488D01*
X24385000Y-49725512D01*
X22730000Y-49725512D01*
X22266778Y-49812673D01*
X21841337Y-50086437D01*
X21555924Y-50504153D01*
X21455512Y-51000000D01*
X21455512Y-54000000D01*
X21542673Y-54463222D01*
X21816437Y-54888663D01*
X22162500Y-55125118D01*
X22162500Y-63100000D01*
X22281819Y-63699856D01*
X22621610Y-64208390D01*
X28912500Y-70499280D01*
X28912500Y-74680000D01*
X27940000Y-74680000D01*
X27849136Y-74697097D01*
X27765682Y-74750798D01*
X27709696Y-74832736D01*
X27690000Y-74930000D01*
X27690000Y-75240882D01*
X27131038Y-74867395D01*
X26270000Y-74696124D01*
X25408962Y-74867395D01*
X25347068Y-74908751D01*
X25225847Y-74825924D01*
X24730000Y-74725512D01*
X22730000Y-74725512D01*
X22266778Y-74812673D01*
X21841337Y-75086437D01*
X21555924Y-75504153D01*
X21455512Y-76000000D01*
X21455512Y-79000000D01*
X21542673Y-79463222D01*
X21816437Y-79888663D01*
X22234153Y-80174076D01*
X22730000Y-80274488D01*
X24385000Y-80274488D01*
X24385000Y-99725512D01*
X22730000Y-99725512D01*
X22266778Y-99812673D01*
X21841337Y-100086437D01*
X21555924Y-100504153D01*
X21455512Y-101000000D01*
X21455512Y-104000000D01*
X21542673Y-104463222D01*
X21816437Y-104888663D01*
X22189000Y-105143224D01*
X22281819Y-105609856D01*
X22621610Y-106118390D01*
X24291610Y-107788390D01*
X24800144Y-108128181D01*
X25400000Y-108247500D01*
X28912500Y-108247500D01*
X28912500Y-125480000D01*
X27944423Y-125480000D01*
X27860990Y-125355134D01*
X27131038Y-124867395D01*
X26270000Y-124696124D01*
X25408962Y-124867395D01*
X25347068Y-124908751D01*
X25225847Y-124825924D01*
X24730000Y-124725512D01*
X22730000Y-124725512D01*
X22266778Y-124812673D01*
X21841337Y-125086437D01*
X21555924Y-125504153D01*
X21455512Y-126000000D01*
X21455512Y-129000000D01*
X21542673Y-129463222D01*
X21816437Y-129888663D01*
X22234153Y-130174076D01*
X22730000Y-130274488D01*
X24385000Y-130274488D01*
X24385000Y-149725512D01*
X22730000Y-149725512D01*
X22266778Y-149812673D01*
X21841337Y-150086437D01*
X21555924Y-150504153D01*
X21455512Y-151000000D01*
X21455512Y-154000000D01*
X21542673Y-154463222D01*
X21816437Y-154888663D01*
X22234153Y-155174076D01*
X22315721Y-155190594D01*
X22621610Y-155648390D01*
X24291610Y-157318390D01*
X24800144Y-157658181D01*
X25400000Y-157777500D01*
X28912500Y-157777500D01*
X28912500Y-190981600D01*
X28730304Y-191420376D01*
X28729696Y-192116569D01*
X28995557Y-192760001D01*
X29487410Y-193252713D01*
X30130376Y-193519696D01*
X30826569Y-193520304D01*
X31470001Y-193254443D01*
X31962713Y-192762590D01*
X32229696Y-192119624D01*
X32230304Y-191423431D01*
X32047500Y-190981012D01*
X32047500Y-168120261D01*
X32096569Y-168120304D01*
X32740001Y-167854443D01*
X33232713Y-167362590D01*
X33499696Y-166719624D01*
X33500304Y-166023431D01*
X33317500Y-165581012D01*
X33317500Y-143028400D01*
X33499696Y-142589624D01*
X33500304Y-141893431D01*
X33317500Y-141451012D01*
X33317500Y-85878400D01*
X33499696Y-85439624D01*
X33500304Y-84743431D01*
X33317500Y-84301012D01*
X33317500Y-77816569D01*
X36349696Y-77816569D01*
X36532500Y-78258988D01*
X36532500Y-127481600D01*
X36350304Y-127920376D01*
X36349696Y-128616569D01*
X36532500Y-129058988D01*
X36532500Y-177011600D01*
X36350304Y-177450376D01*
X36349696Y-178146569D01*
X36615557Y-178790001D01*
X37107410Y-179282713D01*
X37750376Y-179549696D01*
X37802500Y-179549742D01*
X37802500Y-198140000D01*
X37921819Y-198739856D01*
X38261610Y-199248390D01*
X41455512Y-202442292D01*
X41455512Y-204000000D01*
X41542673Y-204463222D01*
X41816437Y-204888663D01*
X42234153Y-205174076D01*
X42730000Y-205274488D01*
X44730000Y-205274488D01*
X45193222Y-205187327D01*
X45344843Y-205089762D01*
X45408962Y-205132605D01*
X46270000Y-205303876D01*
X47131038Y-205132605D01*
X47860990Y-204644866D01*
X48348729Y-203914914D01*
X48520000Y-203053876D01*
X48520000Y-201946124D01*
X48348729Y-201085086D01*
X48155000Y-200795150D01*
X48155000Y-179204850D01*
X48348729Y-178914914D01*
X48520000Y-178053876D01*
X48520000Y-176946124D01*
X48348729Y-176085086D01*
X47860990Y-175355134D01*
X47131038Y-174867395D01*
X46270000Y-174696124D01*
X45408962Y-174867395D01*
X45347068Y-174908751D01*
X45225847Y-174825924D01*
X44730000Y-174725512D01*
X42730000Y-174725512D01*
X42266778Y-174812673D01*
X41841337Y-175086437D01*
X41555924Y-175504153D01*
X41505897Y-175751194D01*
X41500000Y-175750000D01*
X41000000Y-175750000D01*
X40937500Y-175761760D01*
X40937500Y-154067500D01*
X41468213Y-154067500D01*
X41542673Y-154463222D01*
X41816437Y-154888663D01*
X42234153Y-155174076D01*
X42730000Y-155274488D01*
X44730000Y-155274488D01*
X45193222Y-155187327D01*
X45344843Y-155089762D01*
X45408962Y-155132605D01*
X46270000Y-155303876D01*
X47131038Y-155132605D01*
X47860990Y-154644866D01*
X48348729Y-153914914D01*
X48520000Y-153053876D01*
X48520000Y-151946124D01*
X48348729Y-151085086D01*
X48155000Y-150795150D01*
X48155000Y-129204850D01*
X48348729Y-128914914D01*
X48520000Y-128053876D01*
X48520000Y-126946124D01*
X48348729Y-126085086D01*
X47860990Y-125355134D01*
X47131038Y-124867395D01*
X46270000Y-124696124D01*
X45408962Y-124867395D01*
X45347068Y-124908751D01*
X45225847Y-124825924D01*
X44730000Y-124725512D01*
X42730000Y-124725512D01*
X42266778Y-124812673D01*
X41841337Y-125086437D01*
X41555924Y-125504153D01*
X41505897Y-125751194D01*
X41500000Y-125750000D01*
X41000000Y-125750000D01*
X40937500Y-125761760D01*
X40937500Y-104067500D01*
X41468213Y-104067500D01*
X41542673Y-104463222D01*
X41816437Y-104888663D01*
X42234153Y-105174076D01*
X42730000Y-105274488D01*
X44730000Y-105274488D01*
X45193222Y-105187327D01*
X45344843Y-105089762D01*
X45408962Y-105132605D01*
X46270000Y-105303876D01*
X47131038Y-105132605D01*
X47860990Y-104644866D01*
X48348729Y-103914914D01*
X48520000Y-103053876D01*
X48520000Y-101946124D01*
X48348729Y-101085086D01*
X48155000Y-100795150D01*
X48155000Y-79204850D01*
X48348729Y-78914914D01*
X48520000Y-78053876D01*
X48520000Y-77816569D01*
X56669696Y-77816569D01*
X56852500Y-78258988D01*
X56852500Y-127481600D01*
X56670304Y-127920376D01*
X56669696Y-128616569D01*
X56852500Y-129058988D01*
X56852500Y-177011600D01*
X56670304Y-177450376D01*
X56669696Y-178146569D01*
X56935557Y-178790001D01*
X57427410Y-179282713D01*
X58070376Y-179549696D01*
X58122500Y-179549742D01*
X58122500Y-198460000D01*
X58241819Y-199059856D01*
X58581610Y-199568390D01*
X61455512Y-202442292D01*
X61455512Y-204000000D01*
X61542673Y-204463222D01*
X61816437Y-204888663D01*
X62234153Y-205174076D01*
X62730000Y-205274488D01*
X64730000Y-205274488D01*
X65193222Y-205187327D01*
X65344843Y-205089762D01*
X65408962Y-205132605D01*
X66270000Y-205303876D01*
X67131038Y-205132605D01*
X67860990Y-204644866D01*
X68348729Y-203914914D01*
X68520000Y-203053876D01*
X68520000Y-201946124D01*
X68348729Y-201085086D01*
X68155000Y-200795150D01*
X68155000Y-179204850D01*
X68348729Y-178914914D01*
X68520000Y-178053876D01*
X68520000Y-176946124D01*
X68348729Y-176085086D01*
X67860990Y-175355134D01*
X67131038Y-174867395D01*
X66270000Y-174696124D01*
X65408962Y-174867395D01*
X65347068Y-174908751D01*
X65225847Y-174825924D01*
X64730000Y-174725512D01*
X62730000Y-174725512D01*
X62266778Y-174812673D01*
X61841337Y-175086437D01*
X61678293Y-175325061D01*
X61597264Y-175269696D01*
X61500000Y-175250000D01*
X61257500Y-175250000D01*
X61257500Y-154067500D01*
X61468213Y-154067500D01*
X61542673Y-154463222D01*
X61816437Y-154888663D01*
X62234153Y-155174076D01*
X62730000Y-155274488D01*
X64730000Y-155274488D01*
X65193222Y-155187327D01*
X65344843Y-155089762D01*
X65408962Y-155132605D01*
X66270000Y-155303876D01*
X67131038Y-155132605D01*
X67860990Y-154644866D01*
X68348729Y-153914914D01*
X68520000Y-153053876D01*
X68520000Y-151946124D01*
X68348729Y-151085086D01*
X68155000Y-150795150D01*
X68155000Y-129204850D01*
X68348729Y-128914914D01*
X68520000Y-128053876D01*
X68520000Y-126946124D01*
X68348729Y-126085086D01*
X67860990Y-125355134D01*
X67131038Y-124867395D01*
X66270000Y-124696124D01*
X65408962Y-124867395D01*
X65347068Y-124908751D01*
X65225847Y-124825924D01*
X64730000Y-124725512D01*
X62730000Y-124725512D01*
X62266778Y-124812673D01*
X61841337Y-125086437D01*
X61678293Y-125325061D01*
X61597264Y-125269696D01*
X61500000Y-125250000D01*
X61257500Y-125250000D01*
X61257500Y-104067500D01*
X61468213Y-104067500D01*
X61542673Y-104463222D01*
X61816437Y-104888663D01*
X62234153Y-105174076D01*
X62730000Y-105274488D01*
X64730000Y-105274488D01*
X65193222Y-105187327D01*
X65344843Y-105089762D01*
X65408962Y-105132605D01*
X66270000Y-105303876D01*
X67131038Y-105132605D01*
X67860990Y-104644866D01*
X68348729Y-103914914D01*
X68520000Y-103053876D01*
X68520000Y-101946124D01*
X68348729Y-101085086D01*
X68155000Y-100795150D01*
X68155000Y-79204850D01*
X68348729Y-78914914D01*
X68520000Y-78053876D01*
X68520000Y-77816569D01*
X76989696Y-77816569D01*
X77172500Y-78258988D01*
X77172500Y-127481600D01*
X76990304Y-127920376D01*
X76989696Y-128616569D01*
X77172500Y-129058988D01*
X77172500Y-177011600D01*
X76990304Y-177450376D01*
X76989696Y-178146569D01*
X77255557Y-178790001D01*
X77747410Y-179282713D01*
X78390376Y-179549696D01*
X78442500Y-179549742D01*
X78442500Y-198780000D01*
X78561819Y-199379856D01*
X78901610Y-199888390D01*
X81455512Y-202442292D01*
X81455512Y-204000000D01*
X81542673Y-204463222D01*
X81816437Y-204888663D01*
X82234153Y-205174076D01*
X82730000Y-205274488D01*
X84730000Y-205274488D01*
X85193222Y-205187327D01*
X85344843Y-205089762D01*
X85408962Y-205132605D01*
X86270000Y-205303876D01*
X87131038Y-205132605D01*
X87860990Y-204644866D01*
X88348729Y-203914914D01*
X88520000Y-203053876D01*
X88520000Y-201946124D01*
X88348729Y-201085086D01*
X88155000Y-200795150D01*
X88155000Y-179204850D01*
X88348729Y-178914914D01*
X88520000Y-178053876D01*
X88520000Y-176946124D01*
X88348729Y-176085086D01*
X87860990Y-175355134D01*
X87131038Y-174867395D01*
X86270000Y-174696124D01*
X85408962Y-174867395D01*
X85347068Y-174908751D01*
X85225847Y-174825924D01*
X84730000Y-174725512D01*
X82730000Y-174725512D01*
X82266778Y-174812673D01*
X81841337Y-175086437D01*
X81577500Y-175472575D01*
X81577500Y-154517345D01*
X81816437Y-154888663D01*
X82234153Y-155174076D01*
X82730000Y-155274488D01*
X84730000Y-155274488D01*
X85193222Y-155187327D01*
X85344843Y-155089762D01*
X85408962Y-155132605D01*
X86270000Y-155303876D01*
X87131038Y-155132605D01*
X87860990Y-154644866D01*
X88348729Y-153914914D01*
X88520000Y-153053876D01*
X88520000Y-151946124D01*
X88348729Y-151085086D01*
X88155000Y-150795150D01*
X88155000Y-129204850D01*
X88348729Y-128914914D01*
X88520000Y-128053876D01*
X88520000Y-126946124D01*
X88348729Y-126085086D01*
X87860990Y-125355134D01*
X87131038Y-124867395D01*
X86270000Y-124696124D01*
X85408962Y-124867395D01*
X85347068Y-124908751D01*
X85225847Y-124825924D01*
X84730000Y-124725512D01*
X82730000Y-124725512D01*
X82266778Y-124812673D01*
X81841337Y-125086437D01*
X81577500Y-125472575D01*
X81577500Y-104517345D01*
X81816437Y-104888663D01*
X82234153Y-105174076D01*
X82730000Y-105274488D01*
X84730000Y-105274488D01*
X85193222Y-105187327D01*
X85344843Y-105089762D01*
X85408962Y-105132605D01*
X86270000Y-105303876D01*
X87131038Y-105132605D01*
X87860990Y-104644866D01*
X88348729Y-103914914D01*
X88520000Y-103053876D01*
X88520000Y-101946124D01*
X88348729Y-101085086D01*
X88155000Y-100795150D01*
X88155000Y-79204850D01*
X88348729Y-78914914D01*
X88520000Y-78053876D01*
X88520000Y-77816569D01*
X97309696Y-77816569D01*
X97492500Y-78258988D01*
X97492500Y-127481600D01*
X97310304Y-127920376D01*
X97309696Y-128616569D01*
X97492500Y-129058988D01*
X97492500Y-177011600D01*
X97310304Y-177450376D01*
X97309696Y-178146569D01*
X97575557Y-178790001D01*
X98067410Y-179282713D01*
X98710376Y-179549696D01*
X98762500Y-179549742D01*
X98762500Y-199100000D01*
X98881819Y-199699856D01*
X99221610Y-200208390D01*
X101455512Y-202442292D01*
X101455512Y-204000000D01*
X101542673Y-204463222D01*
X101816437Y-204888663D01*
X102234153Y-205174076D01*
X102730000Y-205274488D01*
X104730000Y-205274488D01*
X105193222Y-205187327D01*
X105344843Y-205089762D01*
X105408962Y-205132605D01*
X106270000Y-205303876D01*
X107131038Y-205132605D01*
X107860990Y-204644866D01*
X108348729Y-203914914D01*
X108520000Y-203053876D01*
X108520000Y-201946124D01*
X108348729Y-201085086D01*
X108155000Y-200795150D01*
X108155000Y-179204850D01*
X108348729Y-178914914D01*
X108520000Y-178053876D01*
X108520000Y-176946124D01*
X108348729Y-176085086D01*
X107860990Y-175355134D01*
X107131038Y-174867395D01*
X106270000Y-174696124D01*
X105408962Y-174867395D01*
X105347068Y-174908751D01*
X105225847Y-174825924D01*
X104730000Y-174725512D01*
X102730000Y-174725512D01*
X102266778Y-174812673D01*
X101897500Y-175050297D01*
X101897500Y-154944051D01*
X102234153Y-155174076D01*
X102730000Y-155274488D01*
X104730000Y-155274488D01*
X105193222Y-155187327D01*
X105344843Y-155089762D01*
X105408962Y-155132605D01*
X106270000Y-155303876D01*
X107131038Y-155132605D01*
X107860990Y-154644866D01*
X108348729Y-153914914D01*
X108520000Y-153053876D01*
X108520000Y-151946124D01*
X108348729Y-151085086D01*
X108155000Y-150795150D01*
X108155000Y-129204850D01*
X108348729Y-128914914D01*
X108520000Y-128053876D01*
X108520000Y-126946124D01*
X108348729Y-126085086D01*
X107860990Y-125355134D01*
X107131038Y-124867395D01*
X106270000Y-124696124D01*
X105408962Y-124867395D01*
X105347068Y-124908751D01*
X105225847Y-124825924D01*
X104730000Y-124725512D01*
X102730000Y-124725512D01*
X102266778Y-124812673D01*
X101897500Y-125050297D01*
X101897500Y-104944051D01*
X102234153Y-105174076D01*
X102730000Y-105274488D01*
X104730000Y-105274488D01*
X105193222Y-105187327D01*
X105344843Y-105089762D01*
X105408962Y-105132605D01*
X106270000Y-105303876D01*
X107131038Y-105132605D01*
X107860990Y-104644866D01*
X108348729Y-103914914D01*
X108520000Y-103053876D01*
X108520000Y-101946124D01*
X108348729Y-101085086D01*
X108155000Y-100795150D01*
X108155000Y-79204850D01*
X108348729Y-78914914D01*
X108520000Y-78053876D01*
X108520000Y-76946124D01*
X108348729Y-76085086D01*
X107860990Y-75355134D01*
X107131038Y-74867395D01*
X106270000Y-74696124D01*
X105408962Y-74867395D01*
X105347068Y-74908751D01*
X105225847Y-74825924D01*
X104730000Y-74725512D01*
X102730000Y-74725512D01*
X102266778Y-74812673D01*
X101897500Y-75050297D01*
X101897500Y-62879280D01*
X104838390Y-59938390D01*
X105178181Y-59429856D01*
X105297500Y-58830000D01*
X105297500Y-55120226D01*
X105344843Y-55089762D01*
X105408962Y-55132605D01*
X106270000Y-55303876D01*
X107131038Y-55132605D01*
X107860990Y-54644866D01*
X108348729Y-53914914D01*
X108520000Y-53053876D01*
X108520000Y-51946124D01*
X108348729Y-51085086D01*
X108155000Y-50795150D01*
X108155000Y-29204850D01*
X108348729Y-28914914D01*
X108520000Y-28053876D01*
X108520000Y-26946124D01*
X108348729Y-26085086D01*
X107890969Y-25400000D01*
X108605000Y-25400000D01*
X108605000Y-26670000D01*
X108748487Y-27391358D01*
X109157104Y-28002896D01*
X109768642Y-28411513D01*
X109875000Y-28432669D01*
X109875000Y-201437331D01*
X109768642Y-201458487D01*
X109157104Y-201867104D01*
X108748487Y-202478642D01*
X108605000Y-203200000D01*
X108605000Y-204470000D01*
X108748487Y-205191358D01*
X109157104Y-205802896D01*
X109768642Y-206211513D01*
X110490000Y-206355000D01*
X111125000Y-206228691D01*
X111760000Y-206355000D01*
X112481358Y-206211513D01*
X113092896Y-205802896D01*
X113501513Y-205191358D01*
X113645000Y-204470000D01*
X113645000Y-77816569D01*
X117629696Y-77816569D01*
X117812500Y-78258988D01*
X117812500Y-127481600D01*
X117630304Y-127920376D01*
X117629696Y-128616569D01*
X117812500Y-129058988D01*
X117812500Y-177011600D01*
X117630304Y-177450376D01*
X117629696Y-178146569D01*
X117895557Y-178790001D01*
X118387410Y-179282713D01*
X119030376Y-179549696D01*
X119082500Y-179549742D01*
X119082500Y-199420000D01*
X119201819Y-200019856D01*
X119541610Y-200528390D01*
X121455512Y-202442292D01*
X121455512Y-204000000D01*
X121542673Y-204463222D01*
X121816437Y-204888663D01*
X122234153Y-205174076D01*
X122730000Y-205274488D01*
X124730000Y-205274488D01*
X125193222Y-205187327D01*
X125344843Y-205089762D01*
X125408962Y-205132605D01*
X126270000Y-205303876D01*
X126543808Y-205249412D01*
X126449093Y-205344127D01*
X126009999Y-205525557D01*
X125517287Y-206017410D01*
X125250304Y-206660376D01*
X125249696Y-207356569D01*
X125515557Y-208000001D01*
X126007410Y-208492713D01*
X126650376Y-208759696D01*
X127346569Y-208760304D01*
X127990001Y-208494443D01*
X128482713Y-208002590D01*
X128666288Y-207560492D01*
X133052500Y-203174280D01*
X133052500Y-203820720D01*
X131529093Y-205344127D01*
X131089999Y-205525557D01*
X130597287Y-206017410D01*
X130330304Y-206660376D01*
X130329696Y-207356569D01*
X130595557Y-208000001D01*
X131087410Y-208492713D01*
X131730376Y-208759696D01*
X132426569Y-208760304D01*
X133070001Y-208494443D01*
X133562713Y-208002590D01*
X133746288Y-207560492D01*
X134652146Y-206654634D01*
X134781610Y-206848390D01*
X135494127Y-207560907D01*
X135675557Y-208000001D01*
X136167410Y-208492713D01*
X136810376Y-208759696D01*
X137506569Y-208760304D01*
X138150001Y-208494443D01*
X138642713Y-208002590D01*
X138909696Y-207359624D01*
X138910304Y-206663431D01*
X138644443Y-206019999D01*
X138152590Y-205527287D01*
X137710492Y-205343712D01*
X137457500Y-205090720D01*
X137457500Y-204444280D01*
X140574127Y-207560907D01*
X140755557Y-208000001D01*
X141247410Y-208492713D01*
X141890376Y-208759696D01*
X142586569Y-208760304D01*
X143230001Y-208494443D01*
X143722713Y-208002590D01*
X143989696Y-207359624D01*
X143990304Y-206663431D01*
X143724443Y-206019999D01*
X143232590Y-205527287D01*
X142790492Y-205343712D01*
X142719051Y-205272271D01*
X142730000Y-205274488D01*
X144730000Y-205274488D01*
X145193222Y-205187327D01*
X145344843Y-205089762D01*
X145408962Y-205132605D01*
X146270000Y-205303876D01*
X147131038Y-205132605D01*
X147860990Y-204644866D01*
X148292500Y-203999067D01*
X148292500Y-206221600D01*
X148110304Y-206660376D01*
X148109696Y-207356569D01*
X148375557Y-208000001D01*
X148867410Y-208492713D01*
X149510376Y-208759696D01*
X150206569Y-208760304D01*
X150850001Y-208494443D01*
X151342713Y-208002590D01*
X151609696Y-207359624D01*
X151610304Y-206663431D01*
X151427500Y-206221012D01*
X151427500Y-146396569D01*
X151919696Y-146396569D01*
X152102500Y-146838988D01*
X152102500Y-204470000D01*
X152221819Y-205069856D01*
X152561610Y-205578390D01*
X153323302Y-206340082D01*
X153190304Y-206660376D01*
X153189696Y-207356569D01*
X153455557Y-208000001D01*
X153947410Y-208492713D01*
X154590376Y-208759696D01*
X155286569Y-208760304D01*
X155930001Y-208494443D01*
X156422713Y-208002590D01*
X156689696Y-207359624D01*
X156690304Y-206663431D01*
X156507500Y-206221012D01*
X156507500Y-205740000D01*
X156501114Y-205707894D01*
X158354127Y-207560907D01*
X158535557Y-208000001D01*
X159027410Y-208492713D01*
X159670376Y-208759696D01*
X160366569Y-208760304D01*
X161010001Y-208494443D01*
X161502713Y-208002590D01*
X161769696Y-207359624D01*
X161769957Y-207061102D01*
X161960144Y-207188181D01*
X162560000Y-207307500D01*
X163180720Y-207307500D01*
X163434127Y-207560907D01*
X163615557Y-208000001D01*
X164107410Y-208492713D01*
X164750376Y-208759696D01*
X165446569Y-208760304D01*
X166090001Y-208494443D01*
X166582713Y-208002590D01*
X166849696Y-207359624D01*
X166850304Y-206663431D01*
X166584443Y-206019999D01*
X166092590Y-205527287D01*
X165650492Y-205343712D01*
X165446939Y-205140159D01*
X166270000Y-205303876D01*
X167131038Y-205132605D01*
X167860990Y-204644866D01*
X168348729Y-203914914D01*
X168520000Y-203053876D01*
X168520000Y-201946124D01*
X168348729Y-201085086D01*
X168155000Y-200795150D01*
X168155000Y-179204850D01*
X168348729Y-178914914D01*
X168520000Y-178053876D01*
X168520000Y-176946124D01*
X168348729Y-176085086D01*
X167860990Y-175355134D01*
X167131038Y-174867395D01*
X166270000Y-174696124D01*
X165408962Y-174867395D01*
X165347068Y-174908751D01*
X165225847Y-174825924D01*
X164730000Y-174725512D01*
X162730000Y-174725512D01*
X162266778Y-174812673D01*
X161841337Y-175086437D01*
X161587500Y-175457940D01*
X161587500Y-167232862D01*
X161594073Y-167231625D01*
X161676777Y-167176777D01*
X167634373Y-161219181D01*
X167917410Y-161502713D01*
X168560376Y-161769696D01*
X169256569Y-161770304D01*
X169900001Y-161504443D01*
X170392713Y-161012590D01*
X170659696Y-160369624D01*
X170660304Y-159673431D01*
X170477500Y-159231012D01*
X170477500Y-153750000D01*
X172422500Y-153750000D01*
X172422500Y-160501600D01*
X172240304Y-160940376D01*
X172239696Y-161636569D01*
X172505557Y-162280001D01*
X172997410Y-162772713D01*
X173640376Y-163039696D01*
X174336569Y-163040304D01*
X174980001Y-162774443D01*
X175472713Y-162282590D01*
X175693864Y-161750000D01*
X184385000Y-161750000D01*
X184385000Y-174725512D01*
X182730000Y-174725512D01*
X182266778Y-174812673D01*
X181841337Y-175086437D01*
X181555924Y-175504153D01*
X181455512Y-176000000D01*
X181455512Y-179000000D01*
X181542673Y-179463222D01*
X181816437Y-179888663D01*
X182234153Y-180174076D01*
X182730000Y-180274488D01*
X184385000Y-180274488D01*
X184385000Y-199725512D01*
X182730000Y-199725512D01*
X182266778Y-199812673D01*
X181841337Y-200086437D01*
X181555924Y-200504153D01*
X181455512Y-201000000D01*
X181455512Y-204000000D01*
X181487970Y-204172500D01*
X173990000Y-204172500D01*
X173390143Y-204291819D01*
X172881610Y-204631610D01*
X172169093Y-205344127D01*
X171729999Y-205525557D01*
X171237287Y-206017410D01*
X170970304Y-206660376D01*
X170969696Y-207356569D01*
X171235557Y-208000001D01*
X171727410Y-208492713D01*
X172370376Y-208759696D01*
X173066569Y-208760304D01*
X173710001Y-208494443D01*
X174202713Y-208002590D01*
X174386288Y-207560492D01*
X174639280Y-207307500D01*
X187960000Y-207307500D01*
X188559856Y-207188181D01*
X189068390Y-206848390D01*
X194012500Y-201904280D01*
X194012500Y-205090720D01*
X191120720Y-207982500D01*
X181128400Y-207982500D01*
X180689624Y-207800304D01*
X179993431Y-207799696D01*
X179349999Y-208065557D01*
X178857287Y-208557410D01*
X178590304Y-209200376D01*
X178589696Y-209896569D01*
X178855557Y-210540001D01*
X179347410Y-211032713D01*
X179990376Y-211299696D01*
X180686569Y-211300304D01*
X181128988Y-211117500D01*
X191770000Y-211117500D01*
X192369856Y-210998181D01*
X192878390Y-210658390D01*
X192972367Y-210564413D01*
X247149506Y-210564413D01*
X247582479Y-211612286D01*
X248383497Y-212414704D01*
X249430613Y-212849504D01*
X250564413Y-212850494D01*
X251612286Y-212417521D01*
X252414704Y-211616503D01*
X252849504Y-210569387D01*
X252850494Y-209435587D01*
X252417521Y-208387714D01*
X251616503Y-207585296D01*
X250569387Y-207150496D01*
X249435587Y-207149506D01*
X248387714Y-207582479D01*
X247585296Y-208383497D01*
X247150496Y-209430613D01*
X247149506Y-210564413D01*
X192972367Y-210564413D01*
X196688390Y-206848390D01*
X197028181Y-206339856D01*
X197147500Y-205740000D01*
X197147500Y-201250000D01*
X199500000Y-201250000D01*
X199590864Y-201232903D01*
X199674318Y-201179202D01*
X199730304Y-201097264D01*
X199750000Y-201000000D01*
X199750000Y-200736780D01*
X201455512Y-202442292D01*
X201455512Y-204000000D01*
X201542673Y-204463222D01*
X201816437Y-204888663D01*
X202234153Y-205174076D01*
X202730000Y-205274488D01*
X204730000Y-205274488D01*
X205193222Y-205187327D01*
X205344843Y-205089762D01*
X205408962Y-205132605D01*
X206270000Y-205303876D01*
X207131038Y-205132605D01*
X207860990Y-204644866D01*
X208348729Y-203914914D01*
X208520000Y-203053876D01*
X208520000Y-201946124D01*
X208348729Y-201085086D01*
X208155000Y-200795150D01*
X208155000Y-179204850D01*
X208348729Y-178914914D01*
X208520000Y-178053876D01*
X208520000Y-176946124D01*
X208348729Y-176085086D01*
X208155000Y-175795150D01*
X208155000Y-154204850D01*
X208348729Y-153914914D01*
X208520000Y-153053876D01*
X208520000Y-151946124D01*
X208348729Y-151085086D01*
X208155000Y-150795150D01*
X208155000Y-129204850D01*
X208348729Y-128914914D01*
X208408073Y-128616569D01*
X215419696Y-128616569D01*
X215602500Y-129058988D01*
X215602500Y-140181600D01*
X215420304Y-140620376D01*
X215419696Y-141316569D01*
X215685557Y-141960001D01*
X216177410Y-142452713D01*
X216820376Y-142719696D01*
X216872500Y-142719742D01*
X216872500Y-151611600D01*
X216690304Y-152050376D01*
X216689696Y-152746569D01*
X216955557Y-153390001D01*
X217447410Y-153882713D01*
X218090376Y-154149696D01*
X218142500Y-154149742D01*
X218142500Y-177011600D01*
X217960304Y-177450376D01*
X217959696Y-178146569D01*
X218225557Y-178790001D01*
X218717410Y-179282713D01*
X219360376Y-179549696D01*
X219412500Y-179549742D01*
X219412500Y-199750000D01*
X219531819Y-200349856D01*
X219871610Y-200858390D01*
X221455512Y-202442292D01*
X221455512Y-204000000D01*
X221542673Y-204463222D01*
X221816437Y-204888663D01*
X222234153Y-205174076D01*
X222730000Y-205274488D01*
X224730000Y-205274488D01*
X225193222Y-205187327D01*
X225344843Y-205089762D01*
X225408962Y-205132605D01*
X226270000Y-205303876D01*
X227131038Y-205132605D01*
X227860990Y-204644866D01*
X228348729Y-203914914D01*
X228520000Y-203053876D01*
X228520000Y-201946124D01*
X228348729Y-201085086D01*
X228155000Y-200795150D01*
X228155000Y-179204850D01*
X228348729Y-178914914D01*
X228520000Y-178053876D01*
X228520000Y-176946124D01*
X228348729Y-176085086D01*
X228155000Y-175795150D01*
X228155000Y-154204850D01*
X228348729Y-153914914D01*
X228520000Y-153053876D01*
X228520000Y-151946124D01*
X228348729Y-151085086D01*
X228155000Y-150795150D01*
X228155000Y-129204850D01*
X228348729Y-128914914D01*
X228408073Y-128616569D01*
X235739696Y-128616569D01*
X235922500Y-129058988D01*
X235922500Y-138911600D01*
X235740304Y-139350376D01*
X235739696Y-140046569D01*
X236005557Y-140690001D01*
X236497410Y-141182713D01*
X237140376Y-141449696D01*
X237192500Y-141449742D01*
X237192500Y-151611600D01*
X237010304Y-152050376D01*
X237009696Y-152746569D01*
X237275557Y-153390001D01*
X237767410Y-153882713D01*
X238410376Y-154149696D01*
X238462500Y-154149742D01*
X238462500Y-177011600D01*
X238280304Y-177450376D01*
X238279696Y-178146569D01*
X238545557Y-178790001D01*
X239037410Y-179282713D01*
X239680376Y-179549696D01*
X239732500Y-179549742D01*
X239732500Y-200070000D01*
X239851819Y-200669856D01*
X240191610Y-201178390D01*
X241455512Y-202442292D01*
X241455512Y-204000000D01*
X241542673Y-204463222D01*
X241816437Y-204888663D01*
X242234153Y-205174076D01*
X242730000Y-205274488D01*
X244730000Y-205274488D01*
X245193222Y-205187327D01*
X245344843Y-205089762D01*
X245408962Y-205132605D01*
X246270000Y-205303876D01*
X247131038Y-205132605D01*
X247860990Y-204644866D01*
X248348729Y-203914914D01*
X248520000Y-203053876D01*
X248520000Y-201946124D01*
X248348729Y-201085086D01*
X248155000Y-200795150D01*
X248155000Y-179204850D01*
X248348729Y-178914914D01*
X248520000Y-178053876D01*
X248520000Y-176946124D01*
X248348729Y-176085086D01*
X248155000Y-175795150D01*
X248155000Y-154204850D01*
X248348729Y-153914914D01*
X248520000Y-153053876D01*
X248520000Y-151946124D01*
X248348729Y-151085086D01*
X248155000Y-150795150D01*
X248155000Y-129204850D01*
X248348729Y-128914914D01*
X248520000Y-128053876D01*
X248520000Y-126946124D01*
X248348729Y-126085086D01*
X247860990Y-125355134D01*
X247131038Y-124867395D01*
X246270000Y-124696124D01*
X245408962Y-124867395D01*
X245347068Y-124908751D01*
X245225847Y-124825924D01*
X244730000Y-124725512D01*
X242867500Y-124725512D01*
X242867500Y-122708400D01*
X243049696Y-122269624D01*
X243050304Y-121573431D01*
X242867500Y-121131012D01*
X242867500Y-115564413D01*
X247149506Y-115564413D01*
X247582479Y-116612286D01*
X248383497Y-117414704D01*
X249430613Y-117849504D01*
X250564413Y-117850494D01*
X251612286Y-117417521D01*
X252414704Y-116616503D01*
X252849504Y-115569387D01*
X252850494Y-114435587D01*
X252417521Y-113387714D01*
X251616503Y-112585296D01*
X250569387Y-112150496D01*
X249435587Y-112149506D01*
X248387714Y-112582479D01*
X247585296Y-113383497D01*
X247150496Y-114430613D01*
X247149506Y-115564413D01*
X242867500Y-115564413D01*
X242867500Y-109869280D01*
X244838390Y-107898390D01*
X245178181Y-107389856D01*
X245297500Y-106790000D01*
X245297500Y-105120226D01*
X245344843Y-105089762D01*
X245408962Y-105132605D01*
X246270000Y-105303876D01*
X247131038Y-105132605D01*
X247860990Y-104644866D01*
X248348729Y-103914914D01*
X248520000Y-103053876D01*
X248520000Y-101946124D01*
X248348729Y-101085086D01*
X248155000Y-100795150D01*
X248155000Y-79204850D01*
X248348729Y-78914914D01*
X248520000Y-78053876D01*
X248520000Y-76946124D01*
X248348729Y-76085086D01*
X248155000Y-75795150D01*
X248155000Y-54204850D01*
X248348729Y-53914914D01*
X248520000Y-53053876D01*
X248520000Y-51946124D01*
X248348729Y-51085086D01*
X248155000Y-50795150D01*
X248155000Y-29204850D01*
X248348729Y-28914914D01*
X248520000Y-28053876D01*
X248520000Y-26946124D01*
X248348729Y-26085086D01*
X247860990Y-25355134D01*
X247131038Y-24867395D01*
X246270000Y-24696124D01*
X245408962Y-24867395D01*
X245347068Y-24908751D01*
X245225847Y-24825924D01*
X244730000Y-24725512D01*
X242730000Y-24725512D01*
X242266778Y-24812673D01*
X241841337Y-25086437D01*
X241555924Y-25504153D01*
X241455512Y-26000000D01*
X241455512Y-29000000D01*
X241542673Y-29463222D01*
X241816437Y-29888663D01*
X242162500Y-30125118D01*
X242162500Y-42640720D01*
X236381610Y-48421610D01*
X236041819Y-48930144D01*
X235922500Y-49530000D01*
X235922500Y-127481600D01*
X235740304Y-127920376D01*
X235739696Y-128616569D01*
X228408073Y-128616569D01*
X228520000Y-128053876D01*
X228520000Y-126946124D01*
X228348729Y-126085086D01*
X227860990Y-125355134D01*
X227131038Y-124867395D01*
X226270000Y-124696124D01*
X225408962Y-124867395D01*
X225347068Y-124908751D01*
X225225847Y-124825924D01*
X224730000Y-124725512D01*
X222730000Y-124725512D01*
X222547500Y-124759852D01*
X222547500Y-121438400D01*
X222729696Y-120999624D01*
X222730304Y-120303431D01*
X222547500Y-119861012D01*
X222547500Y-118759280D01*
X224838390Y-116468390D01*
X225178181Y-115959857D01*
X225297500Y-115360000D01*
X225297500Y-105120226D01*
X225344843Y-105089762D01*
X225408962Y-105132605D01*
X226270000Y-105303876D01*
X227131038Y-105132605D01*
X227860990Y-104644866D01*
X228348729Y-103914914D01*
X228520000Y-103053876D01*
X228520000Y-101946124D01*
X228348729Y-101085086D01*
X228155000Y-100795150D01*
X228155000Y-79204850D01*
X228348729Y-78914914D01*
X228520000Y-78053876D01*
X228520000Y-76946124D01*
X228348729Y-76085086D01*
X228155000Y-75795150D01*
X228155000Y-54204850D01*
X228348729Y-53914914D01*
X228520000Y-53053876D01*
X228520000Y-51946124D01*
X228348729Y-51085086D01*
X228155000Y-50795150D01*
X228155000Y-29204850D01*
X228348729Y-28914914D01*
X228520000Y-28053876D01*
X228520000Y-26946124D01*
X228348729Y-26085086D01*
X227860990Y-25355134D01*
X227131038Y-24867395D01*
X226270000Y-24696124D01*
X225408962Y-24867395D01*
X225347068Y-24908751D01*
X225225847Y-24825924D01*
X224730000Y-24725512D01*
X222730000Y-24725512D01*
X222266778Y-24812673D01*
X221841337Y-25086437D01*
X221555924Y-25504153D01*
X221455512Y-26000000D01*
X221455512Y-29000000D01*
X221542673Y-29463222D01*
X221816437Y-29888663D01*
X222162500Y-30125118D01*
X222162500Y-33430720D01*
X216061610Y-39531610D01*
X215721819Y-40040144D01*
X215602500Y-40640000D01*
X215602500Y-127481600D01*
X215420304Y-127920376D01*
X215419696Y-128616569D01*
X208408073Y-128616569D01*
X208520000Y-128053876D01*
X208520000Y-126946124D01*
X208348729Y-126085086D01*
X207860990Y-125355134D01*
X207131038Y-124867395D01*
X206270000Y-124696124D01*
X205408962Y-124867395D01*
X205347068Y-124908751D01*
X205225847Y-124825924D01*
X204730000Y-124725512D01*
X202730000Y-124725512D01*
X202266778Y-124812673D01*
X202227500Y-124837948D01*
X202227500Y-120168400D01*
X202409696Y-119729624D01*
X202410304Y-119033431D01*
X202276699Y-118710081D01*
X204838390Y-116148390D01*
X205178181Y-115639856D01*
X205297500Y-115040000D01*
X205297500Y-105120226D01*
X205344843Y-105089762D01*
X205408962Y-105132605D01*
X206270000Y-105303876D01*
X207131038Y-105132605D01*
X207860990Y-104644866D01*
X208348729Y-103914914D01*
X208520000Y-103053876D01*
X208520000Y-101946124D01*
X208348729Y-101085086D01*
X208155000Y-100795150D01*
X208155000Y-79204850D01*
X208348729Y-78914914D01*
X208520000Y-78053876D01*
X208520000Y-76946124D01*
X208348729Y-76085086D01*
X208155000Y-75795150D01*
X208155000Y-54204850D01*
X208348729Y-53914914D01*
X208520000Y-53053876D01*
X208520000Y-51946124D01*
X208348729Y-51085086D01*
X208155000Y-50795150D01*
X208155000Y-29204850D01*
X208348729Y-28914914D01*
X208520000Y-28053876D01*
X208520000Y-26946124D01*
X208348729Y-26085086D01*
X207860990Y-25355134D01*
X207131038Y-24867395D01*
X206270000Y-24696124D01*
X205408962Y-24867395D01*
X205347068Y-24908751D01*
X205225847Y-24825924D01*
X204730000Y-24725512D01*
X202730000Y-24725512D01*
X202266778Y-24812673D01*
X201841337Y-25086437D01*
X201555924Y-25504153D01*
X201505897Y-25751194D01*
X201500000Y-25750000D01*
X194500000Y-25750000D01*
X194394417Y-25773390D01*
X194374713Y-25787933D01*
X189151193Y-20564413D01*
X247149506Y-20564413D01*
X247582479Y-21612286D01*
X248383497Y-22414704D01*
X249430613Y-22849504D01*
X250564413Y-22850494D01*
X251612286Y-22417521D01*
X252414704Y-21616503D01*
X252849504Y-20569387D01*
X252850494Y-19435587D01*
X252417521Y-18387714D01*
X251616503Y-17585296D01*
X250569387Y-17150496D01*
X249435587Y-17149506D01*
X248387714Y-17582479D01*
X247585296Y-18383497D01*
X247150496Y-19430613D01*
X247149506Y-20564413D01*
X189151193Y-20564413D01*
X187798390Y-19211610D01*
X187289856Y-18871819D01*
X186690000Y-18752500D01*
X181128400Y-18752500D01*
X180689624Y-18570304D01*
X179993431Y-18569696D01*
X179349999Y-18835557D01*
X178857287Y-19327410D01*
X178590304Y-19970376D01*
X178589696Y-20666569D01*
X178852806Y-21303344D01*
X178825682Y-21320798D01*
X178769696Y-21402736D01*
X178750000Y-21500000D01*
X178750000Y-22562500D01*
X174639280Y-22562500D01*
X174385873Y-22309093D01*
X174204443Y-21869999D01*
X173712590Y-21377287D01*
X173069624Y-21110304D01*
X172373431Y-21109696D01*
X171729999Y-21375557D01*
X171237287Y-21867410D01*
X171072339Y-22264649D01*
X171000000Y-22250000D01*
X166741456Y-22250000D01*
X166584443Y-21869999D01*
X166092590Y-21377287D01*
X165449624Y-21110304D01*
X164753431Y-21109696D01*
X164109999Y-21375557D01*
X163617287Y-21867410D01*
X163433712Y-22309508D01*
X163180720Y-22562500D01*
X162560000Y-22562500D01*
X161960143Y-22681819D01*
X161770046Y-22808838D01*
X161770304Y-22513431D01*
X161504443Y-21869999D01*
X161012590Y-21377287D01*
X160369624Y-21110304D01*
X159673431Y-21109696D01*
X159029999Y-21375557D01*
X158537287Y-21867410D01*
X158353712Y-22309508D01*
X156501114Y-24162106D01*
X156507500Y-24130000D01*
X156507500Y-23648400D01*
X156689696Y-23209624D01*
X156690304Y-22513431D01*
X156424443Y-21869999D01*
X155932590Y-21377287D01*
X155289624Y-21110304D01*
X154593431Y-21109696D01*
X153949999Y-21375557D01*
X153457287Y-21867410D01*
X153190304Y-22510376D01*
X153189696Y-23206569D01*
X153323301Y-23529919D01*
X152561610Y-24291610D01*
X152221819Y-24800144D01*
X152102500Y-25400000D01*
X152102500Y-145261600D01*
X151920304Y-145700376D01*
X151919696Y-146396569D01*
X151427500Y-146396569D01*
X151427500Y-145568400D01*
X151609696Y-145129624D01*
X151610304Y-144433431D01*
X151427500Y-143991012D01*
X151427500Y-23648400D01*
X151609696Y-23209624D01*
X151610304Y-22513431D01*
X151344443Y-21869999D01*
X150852590Y-21377287D01*
X150209624Y-21110304D01*
X149513431Y-21109696D01*
X148869999Y-21375557D01*
X148377287Y-21867410D01*
X148110304Y-22510376D01*
X148109696Y-23206569D01*
X148292500Y-23648988D01*
X148292500Y-26000933D01*
X147860990Y-25355134D01*
X147131038Y-24867395D01*
X146270000Y-24696124D01*
X145408962Y-24867395D01*
X145347068Y-24908751D01*
X145225847Y-24825924D01*
X144730000Y-24725512D01*
X142730000Y-24725512D01*
X142559114Y-24757666D01*
X142790907Y-24525873D01*
X143230001Y-24344443D01*
X143722713Y-23852590D01*
X143989696Y-23209624D01*
X143990304Y-22513431D01*
X143724443Y-21869999D01*
X143232590Y-21377287D01*
X142589624Y-21110304D01*
X141893431Y-21109696D01*
X141249999Y-21375557D01*
X140757287Y-21867410D01*
X140573712Y-22309508D01*
X137457500Y-25425720D01*
X137457500Y-24779280D01*
X137710907Y-24525873D01*
X138150001Y-24344443D01*
X138642713Y-23852590D01*
X138909696Y-23209624D01*
X138910304Y-22513431D01*
X138644443Y-21869999D01*
X138152590Y-21377287D01*
X137509624Y-21110304D01*
X136813431Y-21109696D01*
X136169999Y-21375557D01*
X135677287Y-21867410D01*
X135493712Y-22309508D01*
X134781610Y-23021610D01*
X134652146Y-23215366D01*
X133745873Y-22309093D01*
X133564443Y-21869999D01*
X133072590Y-21377287D01*
X132429624Y-21110304D01*
X131733431Y-21109696D01*
X131089999Y-21375557D01*
X130597287Y-21867410D01*
X130330304Y-22510376D01*
X130329696Y-23206569D01*
X130595557Y-23850001D01*
X131087410Y-24342713D01*
X131529508Y-24526288D01*
X133052500Y-26049280D01*
X133052500Y-26695720D01*
X128665873Y-22309093D01*
X128484443Y-21869999D01*
X127992590Y-21377287D01*
X127349624Y-21110304D01*
X126653431Y-21109696D01*
X126009999Y-21375557D01*
X125517287Y-21867410D01*
X125250304Y-22510376D01*
X125249696Y-23206569D01*
X125515557Y-23850001D01*
X126007410Y-24342713D01*
X126449508Y-24526288D01*
X126706087Y-24782867D01*
X126270000Y-24696124D01*
X125408962Y-24867395D01*
X125347068Y-24908751D01*
X125225847Y-24825924D01*
X124730000Y-24725512D01*
X122730000Y-24725512D01*
X122266778Y-24812673D01*
X121841337Y-25086437D01*
X121555924Y-25504153D01*
X121455512Y-26000000D01*
X121455512Y-29000000D01*
X121542673Y-29463222D01*
X121816437Y-29888663D01*
X122162500Y-30125118D01*
X122162500Y-38180720D01*
X118271610Y-42071610D01*
X117931819Y-42580144D01*
X117812500Y-43180000D01*
X117812500Y-76681600D01*
X117630304Y-77120376D01*
X117629696Y-77816569D01*
X113645000Y-77816569D01*
X113645000Y-25400000D01*
X113501513Y-24678642D01*
X113092896Y-24067104D01*
X112481358Y-23658487D01*
X111760000Y-23515000D01*
X111125000Y-23641309D01*
X110490000Y-23515000D01*
X109768642Y-23658487D01*
X109157104Y-24067104D01*
X108748487Y-24678642D01*
X108605000Y-25400000D01*
X107890969Y-25400000D01*
X107860990Y-25355134D01*
X107131038Y-24867395D01*
X106270000Y-24696124D01*
X105408962Y-24867395D01*
X105347068Y-24908751D01*
X105225847Y-24825924D01*
X104730000Y-24725512D01*
X102730000Y-24725512D01*
X102266778Y-24812673D01*
X101841337Y-25086437D01*
X101555924Y-25504153D01*
X101455512Y-26000000D01*
X101455512Y-29000000D01*
X101542673Y-29463222D01*
X101816437Y-29888663D01*
X102162500Y-30125118D01*
X102162500Y-40400720D01*
X97951610Y-44611610D01*
X97611819Y-45120144D01*
X97492500Y-45720000D01*
X97492500Y-76681600D01*
X97310304Y-77120376D01*
X97309696Y-77816569D01*
X88520000Y-77816569D01*
X88520000Y-76946124D01*
X88348729Y-76085086D01*
X87860990Y-75355134D01*
X87131038Y-74867395D01*
X86270000Y-74696124D01*
X85408962Y-74867395D01*
X85347068Y-74908751D01*
X85225847Y-74825924D01*
X84730000Y-74725512D01*
X82730000Y-74725512D01*
X82266778Y-74812673D01*
X81841337Y-75086437D01*
X81577500Y-75472575D01*
X81577500Y-62879280D01*
X84838390Y-59618390D01*
X85178181Y-59109857D01*
X85297500Y-58510000D01*
X85297500Y-55120226D01*
X85344843Y-55089762D01*
X85408962Y-55132605D01*
X86270000Y-55303876D01*
X87131038Y-55132605D01*
X87860990Y-54644866D01*
X88348729Y-53914914D01*
X88520000Y-53053876D01*
X88520000Y-51946124D01*
X88348729Y-51085086D01*
X88155000Y-50795150D01*
X88155000Y-29204850D01*
X88348729Y-28914914D01*
X88520000Y-28053876D01*
X88520000Y-26946124D01*
X88348729Y-26085086D01*
X87860990Y-25355134D01*
X87131038Y-24867395D01*
X86270000Y-24696124D01*
X85408962Y-24867395D01*
X85347068Y-24908751D01*
X85225847Y-24825924D01*
X84730000Y-24725512D01*
X82730000Y-24725512D01*
X82266778Y-24812673D01*
X81841337Y-25086437D01*
X81555924Y-25504153D01*
X81455512Y-26000000D01*
X81455512Y-29000000D01*
X81542673Y-29463222D01*
X81816437Y-29888663D01*
X82162500Y-30125118D01*
X82162500Y-37540720D01*
X77631610Y-42071610D01*
X77291819Y-42580144D01*
X77172500Y-43180000D01*
X77172500Y-76681600D01*
X76990304Y-77120376D01*
X76989696Y-77816569D01*
X68520000Y-77816569D01*
X68520000Y-76946124D01*
X68348729Y-76085086D01*
X67860990Y-75355134D01*
X67131038Y-74867395D01*
X66270000Y-74696124D01*
X65408962Y-74867395D01*
X65347068Y-74908751D01*
X65225847Y-74825924D01*
X64730000Y-74725512D01*
X62730000Y-74725512D01*
X62266778Y-74812673D01*
X61841337Y-75086437D01*
X61729579Y-75250000D01*
X61257500Y-75250000D01*
X61257500Y-65419280D01*
X64838390Y-61838390D01*
X65178181Y-61329856D01*
X65297500Y-60730000D01*
X65297500Y-55120226D01*
X65344843Y-55089762D01*
X65408962Y-55132605D01*
X66270000Y-55303876D01*
X67131038Y-55132605D01*
X67860990Y-54644866D01*
X68348729Y-53914914D01*
X68520000Y-53053876D01*
X68520000Y-51946124D01*
X68348729Y-51085086D01*
X68155000Y-50795150D01*
X68155000Y-29204850D01*
X68348729Y-28914914D01*
X68520000Y-28053876D01*
X68520000Y-26946124D01*
X68348729Y-26085086D01*
X67860990Y-25355134D01*
X67131038Y-24867395D01*
X66270000Y-24696124D01*
X65408962Y-24867395D01*
X65347068Y-24908751D01*
X65225847Y-24825924D01*
X64730000Y-24725512D01*
X62730000Y-24725512D01*
X62266778Y-24812673D01*
X61841337Y-25086437D01*
X61555924Y-25504153D01*
X61455512Y-26000000D01*
X61455512Y-29000000D01*
X61542673Y-29463222D01*
X61816437Y-29888663D01*
X62162500Y-30125118D01*
X62162500Y-37220720D01*
X57311610Y-42071610D01*
X56971819Y-42580144D01*
X56852500Y-43180000D01*
X56852500Y-76681600D01*
X56670304Y-77120376D01*
X56669696Y-77816569D01*
X48520000Y-77816569D01*
X48520000Y-76946124D01*
X48348729Y-76085086D01*
X47860990Y-75355134D01*
X47131038Y-74867395D01*
X46270000Y-74696124D01*
X45408962Y-74867395D01*
X45347068Y-74908751D01*
X45225847Y-74825924D01*
X44730000Y-74725512D01*
X42730000Y-74725512D01*
X42266778Y-74812673D01*
X41841337Y-75086437D01*
X41555924Y-75504153D01*
X41505897Y-75751194D01*
X41500000Y-75750000D01*
X41000000Y-75750000D01*
X40937500Y-75761760D01*
X40937500Y-66689280D01*
X44838390Y-62788390D01*
X45178181Y-62279856D01*
X45297500Y-61680000D01*
X45297500Y-55120226D01*
X45344843Y-55089762D01*
X45408962Y-55132605D01*
X46270000Y-55303876D01*
X47131038Y-55132605D01*
X47860990Y-54644866D01*
X48348729Y-53914914D01*
X48520000Y-53053876D01*
X48520000Y-51946124D01*
X48348729Y-51085086D01*
X48155000Y-50795150D01*
X48155000Y-29204850D01*
X48348729Y-28914914D01*
X48520000Y-28053876D01*
X48520000Y-26946124D01*
X48348729Y-26085086D01*
X47860990Y-25355134D01*
X47131038Y-24867395D01*
X46270000Y-24696124D01*
X45408962Y-24867395D01*
X45347068Y-24908751D01*
X45225847Y-24825924D01*
X44730000Y-24725512D01*
X42730000Y-24725512D01*
X42266778Y-24812673D01*
X41841337Y-25086437D01*
X41555924Y-25504153D01*
X41455512Y-26000000D01*
X41455512Y-29000000D01*
X41542673Y-29463222D01*
X41816437Y-29888663D01*
X42162500Y-30125118D01*
X42162500Y-34360720D01*
X36991610Y-39531610D01*
X36651819Y-40040144D01*
X36532500Y-40640000D01*
X36532500Y-76681600D01*
X36350304Y-77120376D01*
X36349696Y-77816569D01*
X33317500Y-77816569D01*
X33317500Y-42698400D01*
X33499696Y-42259624D01*
X33500304Y-41563431D01*
X33234443Y-40919999D01*
X32742590Y-40427287D01*
X32099624Y-40160304D01*
X31403431Y-40159696D01*
X30759999Y-40425557D01*
X30682863Y-40502558D01*
X30656777Y-40463223D01*
X28155000Y-37961446D01*
X28155000Y-29204850D01*
X28348729Y-28914914D01*
X28520000Y-28053876D01*
X28520000Y-26946124D01*
X28348729Y-26085086D01*
X27860990Y-25355134D01*
X27131038Y-24867395D01*
X26270000Y-24696124D01*
X25408962Y-24867395D01*
X25347068Y-24908751D01*
X25225847Y-24825924D01*
X24730000Y-24725512D01*
X22730000Y-24725512D01*
X22266778Y-24812673D01*
X21841337Y-25086437D01*
X21555924Y-25504153D01*
X21455512Y-26000000D01*
X16325000Y-26000000D01*
X16325000Y-20564413D01*
X17149506Y-20564413D01*
X17582479Y-21612286D01*
X18383497Y-22414704D01*
X19430613Y-22849504D01*
X20564413Y-22850494D01*
X21612286Y-22417521D01*
X22414704Y-21616503D01*
X22849504Y-20569387D01*
X22850494Y-19435587D01*
X22417521Y-18387714D01*
X21616503Y-17585296D01*
X20569387Y-17150496D01*
X19435587Y-17149506D01*
X18387714Y-17582479D01*
X17585296Y-18383497D01*
X17150496Y-19430613D01*
X17149506Y-20564413D01*
X16325000Y-20564413D01*
X16325000Y-16325000D01*
X253675000Y-16325000D01*
X253675000Y-213675000D01*
X253675000Y-213675000D01*
G37*
X253675000Y-213675000D02*
X16325000Y-213675000D01*
X16325000Y-210564413D01*
X17149506Y-210564413D01*
X17582479Y-211612286D01*
X18383497Y-212414704D01*
X19430613Y-212849504D01*
X20564413Y-212850494D01*
X21612286Y-212417521D01*
X22414704Y-211616503D01*
X22849504Y-210569387D01*
X22850494Y-209435587D01*
X22417521Y-208387714D01*
X21616503Y-207585296D01*
X20569387Y-207150496D01*
X19435587Y-207149506D01*
X18387714Y-207582479D01*
X17585296Y-208383497D01*
X17150496Y-209430613D01*
X17149506Y-210564413D01*
X16325000Y-210564413D01*
X16325000Y-176000000D01*
X21455512Y-176000000D01*
X21455512Y-179000000D01*
X21542673Y-179463222D01*
X21816437Y-179888663D01*
X22234153Y-180174076D01*
X22730000Y-180274488D01*
X24385000Y-180274488D01*
X24385000Y-199725512D01*
X22730000Y-199725512D01*
X22266778Y-199812673D01*
X21841337Y-200086437D01*
X21555924Y-200504153D01*
X21455512Y-201000000D01*
X21455512Y-204000000D01*
X21542673Y-204463222D01*
X21816437Y-204888663D01*
X22234153Y-205174076D01*
X22730000Y-205274488D01*
X24730000Y-205274488D01*
X25193222Y-205187327D01*
X25344843Y-205089762D01*
X25408962Y-205132605D01*
X26270000Y-205303876D01*
X27131038Y-205132605D01*
X27860990Y-204644866D01*
X28348729Y-203914914D01*
X28520000Y-203053876D01*
X28520000Y-201946124D01*
X28348729Y-201085086D01*
X28155000Y-200795150D01*
X28155000Y-179204850D01*
X28348729Y-178914914D01*
X28520000Y-178053876D01*
X28520000Y-176946124D01*
X28348729Y-176085086D01*
X27860990Y-175355134D01*
X27131038Y-174867395D01*
X26270000Y-174696124D01*
X25408962Y-174867395D01*
X25347068Y-174908751D01*
X25225847Y-174825924D01*
X24730000Y-174725512D01*
X22730000Y-174725512D01*
X22266778Y-174812673D01*
X21841337Y-175086437D01*
X21555924Y-175504153D01*
X21455512Y-176000000D01*
X16325000Y-176000000D01*
X16325000Y-115564413D01*
X17149506Y-115564413D01*
X17582479Y-116612286D01*
X18383497Y-117414704D01*
X19430613Y-117849504D01*
X20564413Y-117850494D01*
X21612286Y-117417521D01*
X22414704Y-116616503D01*
X22849504Y-115569387D01*
X22850494Y-114435587D01*
X22417521Y-113387714D01*
X21616503Y-112585296D01*
X20569387Y-112150496D01*
X19435587Y-112149506D01*
X18387714Y-112582479D01*
X17585296Y-113383497D01*
X17150496Y-114430613D01*
X17149506Y-115564413D01*
X16325000Y-115564413D01*
X16325000Y-26000000D01*
X21455512Y-26000000D01*
X21455512Y-29000000D01*
X21542673Y-29463222D01*
X21816437Y-29888663D01*
X22234153Y-30174076D01*
X22730000Y-30274488D01*
X24385000Y-30274488D01*
X24385000Y-49725512D01*
X22730000Y-49725512D01*
X22266778Y-49812673D01*
X21841337Y-50086437D01*
X21555924Y-50504153D01*
X21455512Y-51000000D01*
X21455512Y-54000000D01*
X21542673Y-54463222D01*
X21816437Y-54888663D01*
X22162500Y-55125118D01*
X22162500Y-63100000D01*
X22281819Y-63699856D01*
X22621610Y-64208390D01*
X28912500Y-70499280D01*
X28912500Y-74680000D01*
X27940000Y-74680000D01*
X27849136Y-74697097D01*
X27765682Y-74750798D01*
X27709696Y-74832736D01*
X27690000Y-74930000D01*
X27690000Y-75240882D01*
X27131038Y-74867395D01*
X26270000Y-74696124D01*
X25408962Y-74867395D01*
X25347068Y-74908751D01*
X25225847Y-74825924D01*
X24730000Y-74725512D01*
X22730000Y-74725512D01*
X22266778Y-74812673D01*
X21841337Y-75086437D01*
X21555924Y-75504153D01*
X21455512Y-76000000D01*
X21455512Y-79000000D01*
X21542673Y-79463222D01*
X21816437Y-79888663D01*
X22234153Y-80174076D01*
X22730000Y-80274488D01*
X24385000Y-80274488D01*
X24385000Y-99725512D01*
X22730000Y-99725512D01*
X22266778Y-99812673D01*
X21841337Y-100086437D01*
X21555924Y-100504153D01*
X21455512Y-101000000D01*
X21455512Y-104000000D01*
X21542673Y-104463222D01*
X21816437Y-104888663D01*
X22189000Y-105143224D01*
X22281819Y-105609856D01*
X22621610Y-106118390D01*
X24291610Y-107788390D01*
X24800144Y-108128181D01*
X25400000Y-108247500D01*
X28912500Y-108247500D01*
X28912500Y-125480000D01*
X27944423Y-125480000D01*
X27860990Y-125355134D01*
X27131038Y-124867395D01*
X26270000Y-124696124D01*
X25408962Y-124867395D01*
X25347068Y-124908751D01*
X25225847Y-124825924D01*
X24730000Y-124725512D01*
X22730000Y-124725512D01*
X22266778Y-124812673D01*
X21841337Y-125086437D01*
X21555924Y-125504153D01*
X21455512Y-126000000D01*
X21455512Y-129000000D01*
X21542673Y-129463222D01*
X21816437Y-129888663D01*
X22234153Y-130174076D01*
X22730000Y-130274488D01*
X24385000Y-130274488D01*
X24385000Y-149725512D01*
X22730000Y-149725512D01*
X22266778Y-149812673D01*
X21841337Y-150086437D01*
X21555924Y-150504153D01*
X21455512Y-151000000D01*
X21455512Y-154000000D01*
X21542673Y-154463222D01*
X21816437Y-154888663D01*
X22234153Y-155174076D01*
X22315721Y-155190594D01*
X22621610Y-155648390D01*
X24291610Y-157318390D01*
X24800144Y-157658181D01*
X25400000Y-157777500D01*
X28912500Y-157777500D01*
X28912500Y-190981600D01*
X28730304Y-191420376D01*
X28729696Y-192116569D01*
X28995557Y-192760001D01*
X29487410Y-193252713D01*
X30130376Y-193519696D01*
X30826569Y-193520304D01*
X31470001Y-193254443D01*
X31962713Y-192762590D01*
X32229696Y-192119624D01*
X32230304Y-191423431D01*
X32047500Y-190981012D01*
X32047500Y-168120261D01*
X32096569Y-168120304D01*
X32740001Y-167854443D01*
X33232713Y-167362590D01*
X33499696Y-166719624D01*
X33500304Y-166023431D01*
X33317500Y-165581012D01*
X33317500Y-143028400D01*
X33499696Y-142589624D01*
X33500304Y-141893431D01*
X33317500Y-141451012D01*
X33317500Y-85878400D01*
X33499696Y-85439624D01*
X33500304Y-84743431D01*
X33317500Y-84301012D01*
X33317500Y-77816569D01*
X36349696Y-77816569D01*
X36532500Y-78258988D01*
X36532500Y-127481600D01*
X36350304Y-127920376D01*
X36349696Y-128616569D01*
X36532500Y-129058988D01*
X36532500Y-177011600D01*
X36350304Y-177450376D01*
X36349696Y-178146569D01*
X36615557Y-178790001D01*
X37107410Y-179282713D01*
X37750376Y-179549696D01*
X37802500Y-179549742D01*
X37802500Y-198140000D01*
X37921819Y-198739856D01*
X38261610Y-199248390D01*
X41455512Y-202442292D01*
X41455512Y-204000000D01*
X41542673Y-204463222D01*
X41816437Y-204888663D01*
X42234153Y-205174076D01*
X42730000Y-205274488D01*
X44730000Y-205274488D01*
X45193222Y-205187327D01*
X45344843Y-205089762D01*
X45408962Y-205132605D01*
X46270000Y-205303876D01*
X47131038Y-205132605D01*
X47860990Y-204644866D01*
X48348729Y-203914914D01*
X48520000Y-203053876D01*
X48520000Y-201946124D01*
X48348729Y-201085086D01*
X48155000Y-200795150D01*
X48155000Y-179204850D01*
X48348729Y-178914914D01*
X48520000Y-178053876D01*
X48520000Y-176946124D01*
X48348729Y-176085086D01*
X47860990Y-175355134D01*
X47131038Y-174867395D01*
X46270000Y-174696124D01*
X45408962Y-174867395D01*
X45347068Y-174908751D01*
X45225847Y-174825924D01*
X44730000Y-174725512D01*
X42730000Y-174725512D01*
X42266778Y-174812673D01*
X41841337Y-175086437D01*
X41555924Y-175504153D01*
X41505897Y-175751194D01*
X41500000Y-175750000D01*
X41000000Y-175750000D01*
X40937500Y-175761760D01*
X40937500Y-154067500D01*
X41468213Y-154067500D01*
X41542673Y-154463222D01*
X41816437Y-154888663D01*
X42234153Y-155174076D01*
X42730000Y-155274488D01*
X44730000Y-155274488D01*
X45193222Y-155187327D01*
X45344843Y-155089762D01*
X45408962Y-155132605D01*
X46270000Y-155303876D01*
X47131038Y-155132605D01*
X47860990Y-154644866D01*
X48348729Y-153914914D01*
X48520000Y-153053876D01*
X48520000Y-151946124D01*
X48348729Y-151085086D01*
X48155000Y-150795150D01*
X48155000Y-129204850D01*
X48348729Y-128914914D01*
X48520000Y-128053876D01*
X48520000Y-126946124D01*
X48348729Y-126085086D01*
X47860990Y-125355134D01*
X47131038Y-124867395D01*
X46270000Y-124696124D01*
X45408962Y-124867395D01*
X45347068Y-124908751D01*
X45225847Y-124825924D01*
X44730000Y-124725512D01*
X42730000Y-124725512D01*
X42266778Y-124812673D01*
X41841337Y-125086437D01*
X41555924Y-125504153D01*
X41505897Y-125751194D01*
X41500000Y-125750000D01*
X41000000Y-125750000D01*
X40937500Y-125761760D01*
X40937500Y-104067500D01*
X41468213Y-104067500D01*
X41542673Y-104463222D01*
X41816437Y-104888663D01*
X42234153Y-105174076D01*
X42730000Y-105274488D01*
X44730000Y-105274488D01*
X45193222Y-105187327D01*
X45344843Y-105089762D01*
X45408962Y-105132605D01*
X46270000Y-105303876D01*
X47131038Y-105132605D01*
X47860990Y-104644866D01*
X48348729Y-103914914D01*
X48520000Y-103053876D01*
X48520000Y-101946124D01*
X48348729Y-101085086D01*
X48155000Y-100795150D01*
X48155000Y-79204850D01*
X48348729Y-78914914D01*
X48520000Y-78053876D01*
X48520000Y-77816569D01*
X56669696Y-77816569D01*
X56852500Y-78258988D01*
X56852500Y-127481600D01*
X56670304Y-127920376D01*
X56669696Y-128616569D01*
X56852500Y-129058988D01*
X56852500Y-177011600D01*
X56670304Y-177450376D01*
X56669696Y-178146569D01*
X56935557Y-178790001D01*
X57427410Y-179282713D01*
X58070376Y-179549696D01*
X58122500Y-179549742D01*
X58122500Y-198460000D01*
X58241819Y-199059856D01*
X58581610Y-199568390D01*
X61455512Y-202442292D01*
X61455512Y-204000000D01*
X61542673Y-204463222D01*
X61816437Y-204888663D01*
X62234153Y-205174076D01*
X62730000Y-205274488D01*
X64730000Y-205274488D01*
X65193222Y-205187327D01*
X65344843Y-205089762D01*
X65408962Y-205132605D01*
X66270000Y-205303876D01*
X67131038Y-205132605D01*
X67860990Y-204644866D01*
X68348729Y-203914914D01*
X68520000Y-203053876D01*
X68520000Y-201946124D01*
X68348729Y-201085086D01*
X68155000Y-200795150D01*
X68155000Y-179204850D01*
X68348729Y-178914914D01*
X68520000Y-178053876D01*
X68520000Y-176946124D01*
X68348729Y-176085086D01*
X67860990Y-175355134D01*
X67131038Y-174867395D01*
X66270000Y-174696124D01*
X65408962Y-174867395D01*
X65347068Y-174908751D01*
X65225847Y-174825924D01*
X64730000Y-174725512D01*
X62730000Y-174725512D01*
X62266778Y-174812673D01*
X61841337Y-175086437D01*
X61678293Y-175325061D01*
X61597264Y-175269696D01*
X61500000Y-175250000D01*
X61257500Y-175250000D01*
X61257500Y-154067500D01*
X61468213Y-154067500D01*
X61542673Y-154463222D01*
X61816437Y-154888663D01*
X62234153Y-155174076D01*
X62730000Y-155274488D01*
X64730000Y-155274488D01*
X65193222Y-155187327D01*
X65344843Y-155089762D01*
X65408962Y-155132605D01*
X66270000Y-155303876D01*
X67131038Y-155132605D01*
X67860990Y-154644866D01*
X68348729Y-153914914D01*
X68520000Y-153053876D01*
X68520000Y-151946124D01*
X68348729Y-151085086D01*
X68155000Y-150795150D01*
X68155000Y-129204850D01*
X68348729Y-128914914D01*
X68520000Y-128053876D01*
X68520000Y-126946124D01*
X68348729Y-126085086D01*
X67860990Y-125355134D01*
X67131038Y-124867395D01*
X66270000Y-124696124D01*
X65408962Y-124867395D01*
X65347068Y-124908751D01*
X65225847Y-124825924D01*
X64730000Y-124725512D01*
X62730000Y-124725512D01*
X62266778Y-124812673D01*
X61841337Y-125086437D01*
X61678293Y-125325061D01*
X61597264Y-125269696D01*
X61500000Y-125250000D01*
X61257500Y-125250000D01*
X61257500Y-104067500D01*
X61468213Y-104067500D01*
X61542673Y-104463222D01*
X61816437Y-104888663D01*
X62234153Y-105174076D01*
X62730000Y-105274488D01*
X64730000Y-105274488D01*
X65193222Y-105187327D01*
X65344843Y-105089762D01*
X65408962Y-105132605D01*
X66270000Y-105303876D01*
X67131038Y-105132605D01*
X67860990Y-104644866D01*
X68348729Y-103914914D01*
X68520000Y-103053876D01*
X68520000Y-101946124D01*
X68348729Y-101085086D01*
X68155000Y-100795150D01*
X68155000Y-79204850D01*
X68348729Y-78914914D01*
X68520000Y-78053876D01*
X68520000Y-77816569D01*
X76989696Y-77816569D01*
X77172500Y-78258988D01*
X77172500Y-127481600D01*
X76990304Y-127920376D01*
X76989696Y-128616569D01*
X77172500Y-129058988D01*
X77172500Y-177011600D01*
X76990304Y-177450376D01*
X76989696Y-178146569D01*
X77255557Y-178790001D01*
X77747410Y-179282713D01*
X78390376Y-179549696D01*
X78442500Y-179549742D01*
X78442500Y-198780000D01*
X78561819Y-199379856D01*
X78901610Y-199888390D01*
X81455512Y-202442292D01*
X81455512Y-204000000D01*
X81542673Y-204463222D01*
X81816437Y-204888663D01*
X82234153Y-205174076D01*
X82730000Y-205274488D01*
X84730000Y-205274488D01*
X85193222Y-205187327D01*
X85344843Y-205089762D01*
X85408962Y-205132605D01*
X86270000Y-205303876D01*
X87131038Y-205132605D01*
X87860990Y-204644866D01*
X88348729Y-203914914D01*
X88520000Y-203053876D01*
X88520000Y-201946124D01*
X88348729Y-201085086D01*
X88155000Y-200795150D01*
X88155000Y-179204850D01*
X88348729Y-178914914D01*
X88520000Y-178053876D01*
X88520000Y-176946124D01*
X88348729Y-176085086D01*
X87860990Y-175355134D01*
X87131038Y-174867395D01*
X86270000Y-174696124D01*
X85408962Y-174867395D01*
X85347068Y-174908751D01*
X85225847Y-174825924D01*
X84730000Y-174725512D01*
X82730000Y-174725512D01*
X82266778Y-174812673D01*
X81841337Y-175086437D01*
X81577500Y-175472575D01*
X81577500Y-154517345D01*
X81816437Y-154888663D01*
X82234153Y-155174076D01*
X82730000Y-155274488D01*
X84730000Y-155274488D01*
X85193222Y-155187327D01*
X85344843Y-155089762D01*
X85408962Y-155132605D01*
X86270000Y-155303876D01*
X87131038Y-155132605D01*
X87860990Y-154644866D01*
X88348729Y-153914914D01*
X88520000Y-153053876D01*
X88520000Y-151946124D01*
X88348729Y-151085086D01*
X88155000Y-150795150D01*
X88155000Y-129204850D01*
X88348729Y-128914914D01*
X88520000Y-128053876D01*
X88520000Y-126946124D01*
X88348729Y-126085086D01*
X87860990Y-125355134D01*
X87131038Y-124867395D01*
X86270000Y-124696124D01*
X85408962Y-124867395D01*
X85347068Y-124908751D01*
X85225847Y-124825924D01*
X84730000Y-124725512D01*
X82730000Y-124725512D01*
X82266778Y-124812673D01*
X81841337Y-125086437D01*
X81577500Y-125472575D01*
X81577500Y-104517345D01*
X81816437Y-104888663D01*
X82234153Y-105174076D01*
X82730000Y-105274488D01*
X84730000Y-105274488D01*
X85193222Y-105187327D01*
X85344843Y-105089762D01*
X85408962Y-105132605D01*
X86270000Y-105303876D01*
X87131038Y-105132605D01*
X87860990Y-104644866D01*
X88348729Y-103914914D01*
X88520000Y-103053876D01*
X88520000Y-101946124D01*
X88348729Y-101085086D01*
X88155000Y-100795150D01*
X88155000Y-79204850D01*
X88348729Y-78914914D01*
X88520000Y-78053876D01*
X88520000Y-77816569D01*
X97309696Y-77816569D01*
X97492500Y-78258988D01*
X97492500Y-127481600D01*
X97310304Y-127920376D01*
X97309696Y-128616569D01*
X97492500Y-129058988D01*
X97492500Y-177011600D01*
X97310304Y-177450376D01*
X97309696Y-178146569D01*
X97575557Y-178790001D01*
X98067410Y-179282713D01*
X98710376Y-179549696D01*
X98762500Y-179549742D01*
X98762500Y-199100000D01*
X98881819Y-199699856D01*
X99221610Y-200208390D01*
X101455512Y-202442292D01*
X101455512Y-204000000D01*
X101542673Y-204463222D01*
X101816437Y-204888663D01*
X102234153Y-205174076D01*
X102730000Y-205274488D01*
X104730000Y-205274488D01*
X105193222Y-205187327D01*
X105344843Y-205089762D01*
X105408962Y-205132605D01*
X106270000Y-205303876D01*
X107131038Y-205132605D01*
X107860990Y-204644866D01*
X108348729Y-203914914D01*
X108520000Y-203053876D01*
X108520000Y-201946124D01*
X108348729Y-201085086D01*
X108155000Y-200795150D01*
X108155000Y-179204850D01*
X108348729Y-178914914D01*
X108520000Y-178053876D01*
X108520000Y-176946124D01*
X108348729Y-176085086D01*
X107860990Y-175355134D01*
X107131038Y-174867395D01*
X106270000Y-174696124D01*
X105408962Y-174867395D01*
X105347068Y-174908751D01*
X105225847Y-174825924D01*
X104730000Y-174725512D01*
X102730000Y-174725512D01*
X102266778Y-174812673D01*
X101897500Y-175050297D01*
X101897500Y-154944051D01*
X102234153Y-155174076D01*
X102730000Y-155274488D01*
X104730000Y-155274488D01*
X105193222Y-155187327D01*
X105344843Y-155089762D01*
X105408962Y-155132605D01*
X106270000Y-155303876D01*
X107131038Y-155132605D01*
X107860990Y-154644866D01*
X108348729Y-153914914D01*
X108520000Y-153053876D01*
X108520000Y-151946124D01*
X108348729Y-151085086D01*
X108155000Y-150795150D01*
X108155000Y-129204850D01*
X108348729Y-128914914D01*
X108520000Y-128053876D01*
X108520000Y-126946124D01*
X108348729Y-126085086D01*
X107860990Y-125355134D01*
X107131038Y-124867395D01*
X106270000Y-124696124D01*
X105408962Y-124867395D01*
X105347068Y-124908751D01*
X105225847Y-124825924D01*
X104730000Y-124725512D01*
X102730000Y-124725512D01*
X102266778Y-124812673D01*
X101897500Y-125050297D01*
X101897500Y-104944051D01*
X102234153Y-105174076D01*
X102730000Y-105274488D01*
X104730000Y-105274488D01*
X105193222Y-105187327D01*
X105344843Y-105089762D01*
X105408962Y-105132605D01*
X106270000Y-105303876D01*
X107131038Y-105132605D01*
X107860990Y-104644866D01*
X108348729Y-103914914D01*
X108520000Y-103053876D01*
X108520000Y-101946124D01*
X108348729Y-101085086D01*
X108155000Y-100795150D01*
X108155000Y-79204850D01*
X108348729Y-78914914D01*
X108520000Y-78053876D01*
X108520000Y-76946124D01*
X108348729Y-76085086D01*
X107860990Y-75355134D01*
X107131038Y-74867395D01*
X106270000Y-74696124D01*
X105408962Y-74867395D01*
X105347068Y-74908751D01*
X105225847Y-74825924D01*
X104730000Y-74725512D01*
X102730000Y-74725512D01*
X102266778Y-74812673D01*
X101897500Y-75050297D01*
X101897500Y-62879280D01*
X104838390Y-59938390D01*
X105178181Y-59429856D01*
X105297500Y-58830000D01*
X105297500Y-55120226D01*
X105344843Y-55089762D01*
X105408962Y-55132605D01*
X106270000Y-55303876D01*
X107131038Y-55132605D01*
X107860990Y-54644866D01*
X108348729Y-53914914D01*
X108520000Y-53053876D01*
X108520000Y-51946124D01*
X108348729Y-51085086D01*
X108155000Y-50795150D01*
X108155000Y-29204850D01*
X108348729Y-28914914D01*
X108520000Y-28053876D01*
X108520000Y-26946124D01*
X108348729Y-26085086D01*
X107890969Y-25400000D01*
X108605000Y-25400000D01*
X108605000Y-26670000D01*
X108748487Y-27391358D01*
X109157104Y-28002896D01*
X109768642Y-28411513D01*
X109875000Y-28432669D01*
X109875000Y-201437331D01*
X109768642Y-201458487D01*
X109157104Y-201867104D01*
X108748487Y-202478642D01*
X108605000Y-203200000D01*
X108605000Y-204470000D01*
X108748487Y-205191358D01*
X109157104Y-205802896D01*
X109768642Y-206211513D01*
X110490000Y-206355000D01*
X111125000Y-206228691D01*
X111760000Y-206355000D01*
X112481358Y-206211513D01*
X113092896Y-205802896D01*
X113501513Y-205191358D01*
X113645000Y-204470000D01*
X113645000Y-77816569D01*
X117629696Y-77816569D01*
X117812500Y-78258988D01*
X117812500Y-127481600D01*
X117630304Y-127920376D01*
X117629696Y-128616569D01*
X117812500Y-129058988D01*
X117812500Y-177011600D01*
X117630304Y-177450376D01*
X117629696Y-178146569D01*
X117895557Y-178790001D01*
X118387410Y-179282713D01*
X119030376Y-179549696D01*
X119082500Y-179549742D01*
X119082500Y-199420000D01*
X119201819Y-200019856D01*
X119541610Y-200528390D01*
X121455512Y-202442292D01*
X121455512Y-204000000D01*
X121542673Y-204463222D01*
X121816437Y-204888663D01*
X122234153Y-205174076D01*
X122730000Y-205274488D01*
X124730000Y-205274488D01*
X125193222Y-205187327D01*
X125344843Y-205089762D01*
X125408962Y-205132605D01*
X126270000Y-205303876D01*
X126543808Y-205249412D01*
X126449093Y-205344127D01*
X126009999Y-205525557D01*
X125517287Y-206017410D01*
X125250304Y-206660376D01*
X125249696Y-207356569D01*
X125515557Y-208000001D01*
X126007410Y-208492713D01*
X126650376Y-208759696D01*
X127346569Y-208760304D01*
X127990001Y-208494443D01*
X128482713Y-208002590D01*
X128666288Y-207560492D01*
X133052500Y-203174280D01*
X133052500Y-203820720D01*
X131529093Y-205344127D01*
X131089999Y-205525557D01*
X130597287Y-206017410D01*
X130330304Y-206660376D01*
X130329696Y-207356569D01*
X130595557Y-208000001D01*
X131087410Y-208492713D01*
X131730376Y-208759696D01*
X132426569Y-208760304D01*
X133070001Y-208494443D01*
X133562713Y-208002590D01*
X133746288Y-207560492D01*
X134652146Y-206654634D01*
X134781610Y-206848390D01*
X135494127Y-207560907D01*
X135675557Y-208000001D01*
X136167410Y-208492713D01*
X136810376Y-208759696D01*
X137506569Y-208760304D01*
X138150001Y-208494443D01*
X138642713Y-208002590D01*
X138909696Y-207359624D01*
X138910304Y-206663431D01*
X138644443Y-206019999D01*
X138152590Y-205527287D01*
X137710492Y-205343712D01*
X137457500Y-205090720D01*
X137457500Y-204444280D01*
X140574127Y-207560907D01*
X140755557Y-208000001D01*
X141247410Y-208492713D01*
X141890376Y-208759696D01*
X142586569Y-208760304D01*
X143230001Y-208494443D01*
X143722713Y-208002590D01*
X143989696Y-207359624D01*
X143990304Y-206663431D01*
X143724443Y-206019999D01*
X143232590Y-205527287D01*
X142790492Y-205343712D01*
X142719051Y-205272271D01*
X142730000Y-205274488D01*
X144730000Y-205274488D01*
X145193222Y-205187327D01*
X145344843Y-205089762D01*
X145408962Y-205132605D01*
X146270000Y-205303876D01*
X147131038Y-205132605D01*
X147860990Y-204644866D01*
X148292500Y-203999067D01*
X148292500Y-206221600D01*
X148110304Y-206660376D01*
X148109696Y-207356569D01*
X148375557Y-208000001D01*
X148867410Y-208492713D01*
X149510376Y-208759696D01*
X150206569Y-208760304D01*
X150850001Y-208494443D01*
X151342713Y-208002590D01*
X151609696Y-207359624D01*
X151610304Y-206663431D01*
X151427500Y-206221012D01*
X151427500Y-146396569D01*
X151919696Y-146396569D01*
X152102500Y-146838988D01*
X152102500Y-204470000D01*
X152221819Y-205069856D01*
X152561610Y-205578390D01*
X153323302Y-206340082D01*
X153190304Y-206660376D01*
X153189696Y-207356569D01*
X153455557Y-208000001D01*
X153947410Y-208492713D01*
X154590376Y-208759696D01*
X155286569Y-208760304D01*
X155930001Y-208494443D01*
X156422713Y-208002590D01*
X156689696Y-207359624D01*
X156690304Y-206663431D01*
X156507500Y-206221012D01*
X156507500Y-205740000D01*
X156501114Y-205707894D01*
X158354127Y-207560907D01*
X158535557Y-208000001D01*
X159027410Y-208492713D01*
X159670376Y-208759696D01*
X160366569Y-208760304D01*
X161010001Y-208494443D01*
X161502713Y-208002590D01*
X161769696Y-207359624D01*
X161769957Y-207061102D01*
X161960144Y-207188181D01*
X162560000Y-207307500D01*
X163180720Y-207307500D01*
X163434127Y-207560907D01*
X163615557Y-208000001D01*
X164107410Y-208492713D01*
X164750376Y-208759696D01*
X165446569Y-208760304D01*
X166090001Y-208494443D01*
X166582713Y-208002590D01*
X166849696Y-207359624D01*
X166850304Y-206663431D01*
X166584443Y-206019999D01*
X166092590Y-205527287D01*
X165650492Y-205343712D01*
X165446939Y-205140159D01*
X166270000Y-205303876D01*
X167131038Y-205132605D01*
X167860990Y-204644866D01*
X168348729Y-203914914D01*
X168520000Y-203053876D01*
X168520000Y-201946124D01*
X168348729Y-201085086D01*
X168155000Y-200795150D01*
X168155000Y-179204850D01*
X168348729Y-178914914D01*
X168520000Y-178053876D01*
X168520000Y-176946124D01*
X168348729Y-176085086D01*
X167860990Y-175355134D01*
X167131038Y-174867395D01*
X166270000Y-174696124D01*
X165408962Y-174867395D01*
X165347068Y-174908751D01*
X165225847Y-174825924D01*
X164730000Y-174725512D01*
X162730000Y-174725512D01*
X162266778Y-174812673D01*
X161841337Y-175086437D01*
X161587500Y-175457940D01*
X161587500Y-167232862D01*
X161594073Y-167231625D01*
X161676777Y-167176777D01*
X167634373Y-161219181D01*
X167917410Y-161502713D01*
X168560376Y-161769696D01*
X169256569Y-161770304D01*
X169900001Y-161504443D01*
X170392713Y-161012590D01*
X170659696Y-160369624D01*
X170660304Y-159673431D01*
X170477500Y-159231012D01*
X170477500Y-153750000D01*
X172422500Y-153750000D01*
X172422500Y-160501600D01*
X172240304Y-160940376D01*
X172239696Y-161636569D01*
X172505557Y-162280001D01*
X172997410Y-162772713D01*
X173640376Y-163039696D01*
X174336569Y-163040304D01*
X174980001Y-162774443D01*
X175472713Y-162282590D01*
X175693864Y-161750000D01*
X184385000Y-161750000D01*
X184385000Y-174725512D01*
X182730000Y-174725512D01*
X182266778Y-174812673D01*
X181841337Y-175086437D01*
X181555924Y-175504153D01*
X181455512Y-176000000D01*
X181455512Y-179000000D01*
X181542673Y-179463222D01*
X181816437Y-179888663D01*
X182234153Y-180174076D01*
X182730000Y-180274488D01*
X184385000Y-180274488D01*
X184385000Y-199725512D01*
X182730000Y-199725512D01*
X182266778Y-199812673D01*
X181841337Y-200086437D01*
X181555924Y-200504153D01*
X181455512Y-201000000D01*
X181455512Y-204000000D01*
X181487970Y-204172500D01*
X173990000Y-204172500D01*
X173390143Y-204291819D01*
X172881610Y-204631610D01*
X172169093Y-205344127D01*
X171729999Y-205525557D01*
X171237287Y-206017410D01*
X170970304Y-206660376D01*
X170969696Y-207356569D01*
X171235557Y-208000001D01*
X171727410Y-208492713D01*
X172370376Y-208759696D01*
X173066569Y-208760304D01*
X173710001Y-208494443D01*
X174202713Y-208002590D01*
X174386288Y-207560492D01*
X174639280Y-207307500D01*
X187960000Y-207307500D01*
X188559856Y-207188181D01*
X189068390Y-206848390D01*
X194012500Y-201904280D01*
X194012500Y-205090720D01*
X191120720Y-207982500D01*
X181128400Y-207982500D01*
X180689624Y-207800304D01*
X179993431Y-207799696D01*
X179349999Y-208065557D01*
X178857287Y-208557410D01*
X178590304Y-209200376D01*
X178589696Y-209896569D01*
X178855557Y-210540001D01*
X179347410Y-211032713D01*
X179990376Y-211299696D01*
X180686569Y-211300304D01*
X181128988Y-211117500D01*
X191770000Y-211117500D01*
X192369856Y-210998181D01*
X192878390Y-210658390D01*
X192972367Y-210564413D01*
X247149506Y-210564413D01*
X247582479Y-211612286D01*
X248383497Y-212414704D01*
X249430613Y-212849504D01*
X250564413Y-212850494D01*
X251612286Y-212417521D01*
X252414704Y-211616503D01*
X252849504Y-210569387D01*
X252850494Y-209435587D01*
X252417521Y-208387714D01*
X251616503Y-207585296D01*
X250569387Y-207150496D01*
X249435587Y-207149506D01*
X248387714Y-207582479D01*
X247585296Y-208383497D01*
X247150496Y-209430613D01*
X247149506Y-210564413D01*
X192972367Y-210564413D01*
X196688390Y-206848390D01*
X197028181Y-206339856D01*
X197147500Y-205740000D01*
X197147500Y-201250000D01*
X199500000Y-201250000D01*
X199590864Y-201232903D01*
X199674318Y-201179202D01*
X199730304Y-201097264D01*
X199750000Y-201000000D01*
X199750000Y-200736780D01*
X201455512Y-202442292D01*
X201455512Y-204000000D01*
X201542673Y-204463222D01*
X201816437Y-204888663D01*
X202234153Y-205174076D01*
X202730000Y-205274488D01*
X204730000Y-205274488D01*
X205193222Y-205187327D01*
X205344843Y-205089762D01*
X205408962Y-205132605D01*
X206270000Y-205303876D01*
X207131038Y-205132605D01*
X207860990Y-204644866D01*
X208348729Y-203914914D01*
X208520000Y-203053876D01*
X208520000Y-201946124D01*
X208348729Y-201085086D01*
X208155000Y-200795150D01*
X208155000Y-179204850D01*
X208348729Y-178914914D01*
X208520000Y-178053876D01*
X208520000Y-176946124D01*
X208348729Y-176085086D01*
X208155000Y-175795150D01*
X208155000Y-154204850D01*
X208348729Y-153914914D01*
X208520000Y-153053876D01*
X208520000Y-151946124D01*
X208348729Y-151085086D01*
X208155000Y-150795150D01*
X208155000Y-129204850D01*
X208348729Y-128914914D01*
X208408073Y-128616569D01*
X215419696Y-128616569D01*
X215602500Y-129058988D01*
X215602500Y-140181600D01*
X215420304Y-140620376D01*
X215419696Y-141316569D01*
X215685557Y-141960001D01*
X216177410Y-142452713D01*
X216820376Y-142719696D01*
X216872500Y-142719742D01*
X216872500Y-151611600D01*
X216690304Y-152050376D01*
X216689696Y-152746569D01*
X216955557Y-153390001D01*
X217447410Y-153882713D01*
X218090376Y-154149696D01*
X218142500Y-154149742D01*
X218142500Y-177011600D01*
X217960304Y-177450376D01*
X217959696Y-178146569D01*
X218225557Y-178790001D01*
X218717410Y-179282713D01*
X219360376Y-179549696D01*
X219412500Y-179549742D01*
X219412500Y-199750000D01*
X219531819Y-200349856D01*
X219871610Y-200858390D01*
X221455512Y-202442292D01*
X221455512Y-204000000D01*
X221542673Y-204463222D01*
X221816437Y-204888663D01*
X222234153Y-205174076D01*
X222730000Y-205274488D01*
X224730000Y-205274488D01*
X225193222Y-205187327D01*
X225344843Y-205089762D01*
X225408962Y-205132605D01*
X226270000Y-205303876D01*
X227131038Y-205132605D01*
X227860990Y-204644866D01*
X228348729Y-203914914D01*
X228520000Y-203053876D01*
X228520000Y-201946124D01*
X228348729Y-201085086D01*
X228155000Y-200795150D01*
X228155000Y-179204850D01*
X228348729Y-178914914D01*
X228520000Y-178053876D01*
X228520000Y-176946124D01*
X228348729Y-176085086D01*
X228155000Y-175795150D01*
X228155000Y-154204850D01*
X228348729Y-153914914D01*
X228520000Y-153053876D01*
X228520000Y-151946124D01*
X228348729Y-151085086D01*
X228155000Y-150795150D01*
X228155000Y-129204850D01*
X228348729Y-128914914D01*
X228408073Y-128616569D01*
X235739696Y-128616569D01*
X235922500Y-129058988D01*
X235922500Y-138911600D01*
X235740304Y-139350376D01*
X235739696Y-140046569D01*
X236005557Y-140690001D01*
X236497410Y-141182713D01*
X237140376Y-141449696D01*
X237192500Y-141449742D01*
X237192500Y-151611600D01*
X237010304Y-152050376D01*
X237009696Y-152746569D01*
X237275557Y-153390001D01*
X237767410Y-153882713D01*
X238410376Y-154149696D01*
X238462500Y-154149742D01*
X238462500Y-177011600D01*
X238280304Y-177450376D01*
X238279696Y-178146569D01*
X238545557Y-178790001D01*
X239037410Y-179282713D01*
X239680376Y-179549696D01*
X239732500Y-179549742D01*
X239732500Y-200070000D01*
X239851819Y-200669856D01*
X240191610Y-201178390D01*
X241455512Y-202442292D01*
X241455512Y-204000000D01*
X241542673Y-204463222D01*
X241816437Y-204888663D01*
X242234153Y-205174076D01*
X242730000Y-205274488D01*
X244730000Y-205274488D01*
X245193222Y-205187327D01*
X245344843Y-205089762D01*
X245408962Y-205132605D01*
X246270000Y-205303876D01*
X247131038Y-205132605D01*
X247860990Y-204644866D01*
X248348729Y-203914914D01*
X248520000Y-203053876D01*
X248520000Y-201946124D01*
X248348729Y-201085086D01*
X248155000Y-200795150D01*
X248155000Y-179204850D01*
X248348729Y-178914914D01*
X248520000Y-178053876D01*
X248520000Y-176946124D01*
X248348729Y-176085086D01*
X248155000Y-175795150D01*
X248155000Y-154204850D01*
X248348729Y-153914914D01*
X248520000Y-153053876D01*
X248520000Y-151946124D01*
X248348729Y-151085086D01*
X248155000Y-150795150D01*
X248155000Y-129204850D01*
X248348729Y-128914914D01*
X248520000Y-128053876D01*
X248520000Y-126946124D01*
X248348729Y-126085086D01*
X247860990Y-125355134D01*
X247131038Y-124867395D01*
X246270000Y-124696124D01*
X245408962Y-124867395D01*
X245347068Y-124908751D01*
X245225847Y-124825924D01*
X244730000Y-124725512D01*
X242867500Y-124725512D01*
X242867500Y-122708400D01*
X243049696Y-122269624D01*
X243050304Y-121573431D01*
X242867500Y-121131012D01*
X242867500Y-115564413D01*
X247149506Y-115564413D01*
X247582479Y-116612286D01*
X248383497Y-117414704D01*
X249430613Y-117849504D01*
X250564413Y-117850494D01*
X251612286Y-117417521D01*
X252414704Y-116616503D01*
X252849504Y-115569387D01*
X252850494Y-114435587D01*
X252417521Y-113387714D01*
X251616503Y-112585296D01*
X250569387Y-112150496D01*
X249435587Y-112149506D01*
X248387714Y-112582479D01*
X247585296Y-113383497D01*
X247150496Y-114430613D01*
X247149506Y-115564413D01*
X242867500Y-115564413D01*
X242867500Y-109869280D01*
X244838390Y-107898390D01*
X245178181Y-107389856D01*
X245297500Y-106790000D01*
X245297500Y-105120226D01*
X245344843Y-105089762D01*
X245408962Y-105132605D01*
X246270000Y-105303876D01*
X247131038Y-105132605D01*
X247860990Y-104644866D01*
X248348729Y-103914914D01*
X248520000Y-103053876D01*
X248520000Y-101946124D01*
X248348729Y-101085086D01*
X248155000Y-100795150D01*
X248155000Y-79204850D01*
X248348729Y-78914914D01*
X248520000Y-78053876D01*
X248520000Y-76946124D01*
X248348729Y-76085086D01*
X248155000Y-75795150D01*
X248155000Y-54204850D01*
X248348729Y-53914914D01*
X248520000Y-53053876D01*
X248520000Y-51946124D01*
X248348729Y-51085086D01*
X248155000Y-50795150D01*
X248155000Y-29204850D01*
X248348729Y-28914914D01*
X248520000Y-28053876D01*
X248520000Y-26946124D01*
X248348729Y-26085086D01*
X247860990Y-25355134D01*
X247131038Y-24867395D01*
X246270000Y-24696124D01*
X245408962Y-24867395D01*
X245347068Y-24908751D01*
X245225847Y-24825924D01*
X244730000Y-24725512D01*
X242730000Y-24725512D01*
X242266778Y-24812673D01*
X241841337Y-25086437D01*
X241555924Y-25504153D01*
X241455512Y-26000000D01*
X241455512Y-29000000D01*
X241542673Y-29463222D01*
X241816437Y-29888663D01*
X242162500Y-30125118D01*
X242162500Y-42640720D01*
X236381610Y-48421610D01*
X236041819Y-48930144D01*
X235922500Y-49530000D01*
X235922500Y-127481600D01*
X235740304Y-127920376D01*
X235739696Y-128616569D01*
X228408073Y-128616569D01*
X228520000Y-128053876D01*
X228520000Y-126946124D01*
X228348729Y-126085086D01*
X227860990Y-125355134D01*
X227131038Y-124867395D01*
X226270000Y-124696124D01*
X225408962Y-124867395D01*
X225347068Y-124908751D01*
X225225847Y-124825924D01*
X224730000Y-124725512D01*
X222730000Y-124725512D01*
X222547500Y-124759852D01*
X222547500Y-121438400D01*
X222729696Y-120999624D01*
X222730304Y-120303431D01*
X222547500Y-119861012D01*
X222547500Y-118759280D01*
X224838390Y-116468390D01*
X225178181Y-115959857D01*
X225297500Y-115360000D01*
X225297500Y-105120226D01*
X225344843Y-105089762D01*
X225408962Y-105132605D01*
X226270000Y-105303876D01*
X227131038Y-105132605D01*
X227860990Y-104644866D01*
X228348729Y-103914914D01*
X228520000Y-103053876D01*
X228520000Y-101946124D01*
X228348729Y-101085086D01*
X228155000Y-100795150D01*
X228155000Y-79204850D01*
X228348729Y-78914914D01*
X228520000Y-78053876D01*
X228520000Y-76946124D01*
X228348729Y-76085086D01*
X228155000Y-75795150D01*
X228155000Y-54204850D01*
X228348729Y-53914914D01*
X228520000Y-53053876D01*
X228520000Y-51946124D01*
X228348729Y-51085086D01*
X228155000Y-50795150D01*
X228155000Y-29204850D01*
X228348729Y-28914914D01*
X228520000Y-28053876D01*
X228520000Y-26946124D01*
X228348729Y-26085086D01*
X227860990Y-25355134D01*
X227131038Y-24867395D01*
X226270000Y-24696124D01*
X225408962Y-24867395D01*
X225347068Y-24908751D01*
X225225847Y-24825924D01*
X224730000Y-24725512D01*
X222730000Y-24725512D01*
X222266778Y-24812673D01*
X221841337Y-25086437D01*
X221555924Y-25504153D01*
X221455512Y-26000000D01*
X221455512Y-29000000D01*
X221542673Y-29463222D01*
X221816437Y-29888663D01*
X222162500Y-30125118D01*
X222162500Y-33430720D01*
X216061610Y-39531610D01*
X215721819Y-40040144D01*
X215602500Y-40640000D01*
X215602500Y-127481600D01*
X215420304Y-127920376D01*
X215419696Y-128616569D01*
X208408073Y-128616569D01*
X208520000Y-128053876D01*
X208520000Y-126946124D01*
X208348729Y-126085086D01*
X207860990Y-125355134D01*
X207131038Y-124867395D01*
X206270000Y-124696124D01*
X205408962Y-124867395D01*
X205347068Y-124908751D01*
X205225847Y-124825924D01*
X204730000Y-124725512D01*
X202730000Y-124725512D01*
X202266778Y-124812673D01*
X202227500Y-124837948D01*
X202227500Y-120168400D01*
X202409696Y-119729624D01*
X202410304Y-119033431D01*
X202276699Y-118710081D01*
X204838390Y-116148390D01*
X205178181Y-115639856D01*
X205297500Y-115040000D01*
X205297500Y-105120226D01*
X205344843Y-105089762D01*
X205408962Y-105132605D01*
X206270000Y-105303876D01*
X207131038Y-105132605D01*
X207860990Y-104644866D01*
X208348729Y-103914914D01*
X208520000Y-103053876D01*
X208520000Y-101946124D01*
X208348729Y-101085086D01*
X208155000Y-100795150D01*
X208155000Y-79204850D01*
X208348729Y-78914914D01*
X208520000Y-78053876D01*
X208520000Y-76946124D01*
X208348729Y-76085086D01*
X208155000Y-75795150D01*
X208155000Y-54204850D01*
X208348729Y-53914914D01*
X208520000Y-53053876D01*
X208520000Y-51946124D01*
X208348729Y-51085086D01*
X208155000Y-50795150D01*
X208155000Y-29204850D01*
X208348729Y-28914914D01*
X208520000Y-28053876D01*
X208520000Y-26946124D01*
X208348729Y-26085086D01*
X207860990Y-25355134D01*
X207131038Y-24867395D01*
X206270000Y-24696124D01*
X205408962Y-24867395D01*
X205347068Y-24908751D01*
X205225847Y-24825924D01*
X204730000Y-24725512D01*
X202730000Y-24725512D01*
X202266778Y-24812673D01*
X201841337Y-25086437D01*
X201555924Y-25504153D01*
X201505897Y-25751194D01*
X201500000Y-25750000D01*
X194500000Y-25750000D01*
X194394417Y-25773390D01*
X194374713Y-25787933D01*
X189151193Y-20564413D01*
X247149506Y-20564413D01*
X247582479Y-21612286D01*
X248383497Y-22414704D01*
X249430613Y-22849504D01*
X250564413Y-22850494D01*
X251612286Y-22417521D01*
X252414704Y-21616503D01*
X252849504Y-20569387D01*
X252850494Y-19435587D01*
X252417521Y-18387714D01*
X251616503Y-17585296D01*
X250569387Y-17150496D01*
X249435587Y-17149506D01*
X248387714Y-17582479D01*
X247585296Y-18383497D01*
X247150496Y-19430613D01*
X247149506Y-20564413D01*
X189151193Y-20564413D01*
X187798390Y-19211610D01*
X187289856Y-18871819D01*
X186690000Y-18752500D01*
X181128400Y-18752500D01*
X180689624Y-18570304D01*
X179993431Y-18569696D01*
X179349999Y-18835557D01*
X178857287Y-19327410D01*
X178590304Y-19970376D01*
X178589696Y-20666569D01*
X178852806Y-21303344D01*
X178825682Y-21320798D01*
X178769696Y-21402736D01*
X178750000Y-21500000D01*
X178750000Y-22562500D01*
X174639280Y-22562500D01*
X174385873Y-22309093D01*
X174204443Y-21869999D01*
X173712590Y-21377287D01*
X173069624Y-21110304D01*
X172373431Y-21109696D01*
X171729999Y-21375557D01*
X171237287Y-21867410D01*
X171072339Y-22264649D01*
X171000000Y-22250000D01*
X166741456Y-22250000D01*
X166584443Y-21869999D01*
X166092590Y-21377287D01*
X165449624Y-21110304D01*
X164753431Y-21109696D01*
X164109999Y-21375557D01*
X163617287Y-21867410D01*
X163433712Y-22309508D01*
X163180720Y-22562500D01*
X162560000Y-22562500D01*
X161960143Y-22681819D01*
X161770046Y-22808838D01*
X161770304Y-22513431D01*
X161504443Y-21869999D01*
X161012590Y-21377287D01*
X160369624Y-21110304D01*
X159673431Y-21109696D01*
X159029999Y-21375557D01*
X158537287Y-21867410D01*
X158353712Y-22309508D01*
X156501114Y-24162106D01*
X156507500Y-24130000D01*
X156507500Y-23648400D01*
X156689696Y-23209624D01*
X156690304Y-22513431D01*
X156424443Y-21869999D01*
X155932590Y-21377287D01*
X155289624Y-21110304D01*
X154593431Y-21109696D01*
X153949999Y-21375557D01*
X153457287Y-21867410D01*
X153190304Y-22510376D01*
X153189696Y-23206569D01*
X153323301Y-23529919D01*
X152561610Y-24291610D01*
X152221819Y-24800144D01*
X152102500Y-25400000D01*
X152102500Y-145261600D01*
X151920304Y-145700376D01*
X151919696Y-146396569D01*
X151427500Y-146396569D01*
X151427500Y-145568400D01*
X151609696Y-145129624D01*
X151610304Y-144433431D01*
X151427500Y-143991012D01*
X151427500Y-23648400D01*
X151609696Y-23209624D01*
X151610304Y-22513431D01*
X151344443Y-21869999D01*
X150852590Y-21377287D01*
X150209624Y-21110304D01*
X149513431Y-21109696D01*
X148869999Y-21375557D01*
X148377287Y-21867410D01*
X148110304Y-22510376D01*
X148109696Y-23206569D01*
X148292500Y-23648988D01*
X148292500Y-26000933D01*
X147860990Y-25355134D01*
X147131038Y-24867395D01*
X146270000Y-24696124D01*
X145408962Y-24867395D01*
X145347068Y-24908751D01*
X145225847Y-24825924D01*
X144730000Y-24725512D01*
X142730000Y-24725512D01*
X142559114Y-24757666D01*
X142790907Y-24525873D01*
X143230001Y-24344443D01*
X143722713Y-23852590D01*
X143989696Y-23209624D01*
X143990304Y-22513431D01*
X143724443Y-21869999D01*
X143232590Y-21377287D01*
X142589624Y-21110304D01*
X141893431Y-21109696D01*
X141249999Y-21375557D01*
X140757287Y-21867410D01*
X140573712Y-22309508D01*
X137457500Y-25425720D01*
X137457500Y-24779280D01*
X137710907Y-24525873D01*
X138150001Y-24344443D01*
X138642713Y-23852590D01*
X138909696Y-23209624D01*
X138910304Y-22513431D01*
X138644443Y-21869999D01*
X138152590Y-21377287D01*
X137509624Y-21110304D01*
X136813431Y-21109696D01*
X136169999Y-21375557D01*
X135677287Y-21867410D01*
X135493712Y-22309508D01*
X134781610Y-23021610D01*
X134652146Y-23215366D01*
X133745873Y-22309093D01*
X133564443Y-21869999D01*
X133072590Y-21377287D01*
X132429624Y-21110304D01*
X131733431Y-21109696D01*
X131089999Y-21375557D01*
X130597287Y-21867410D01*
X130330304Y-22510376D01*
X130329696Y-23206569D01*
X130595557Y-23850001D01*
X131087410Y-24342713D01*
X131529508Y-24526288D01*
X133052500Y-26049280D01*
X133052500Y-26695720D01*
X128665873Y-22309093D01*
X128484443Y-21869999D01*
X127992590Y-21377287D01*
X127349624Y-21110304D01*
X126653431Y-21109696D01*
X126009999Y-21375557D01*
X125517287Y-21867410D01*
X125250304Y-22510376D01*
X125249696Y-23206569D01*
X125515557Y-23850001D01*
X126007410Y-24342713D01*
X126449508Y-24526288D01*
X126706087Y-24782867D01*
X126270000Y-24696124D01*
X125408962Y-24867395D01*
X125347068Y-24908751D01*
X125225847Y-24825924D01*
X124730000Y-24725512D01*
X122730000Y-24725512D01*
X122266778Y-24812673D01*
X121841337Y-25086437D01*
X121555924Y-25504153D01*
X121455512Y-26000000D01*
X121455512Y-29000000D01*
X121542673Y-29463222D01*
X121816437Y-29888663D01*
X122162500Y-30125118D01*
X122162500Y-38180720D01*
X118271610Y-42071610D01*
X117931819Y-42580144D01*
X117812500Y-43180000D01*
X117812500Y-76681600D01*
X117630304Y-77120376D01*
X117629696Y-77816569D01*
X113645000Y-77816569D01*
X113645000Y-25400000D01*
X113501513Y-24678642D01*
X113092896Y-24067104D01*
X112481358Y-23658487D01*
X111760000Y-23515000D01*
X111125000Y-23641309D01*
X110490000Y-23515000D01*
X109768642Y-23658487D01*
X109157104Y-24067104D01*
X108748487Y-24678642D01*
X108605000Y-25400000D01*
X107890969Y-25400000D01*
X107860990Y-25355134D01*
X107131038Y-24867395D01*
X106270000Y-24696124D01*
X105408962Y-24867395D01*
X105347068Y-24908751D01*
X105225847Y-24825924D01*
X104730000Y-24725512D01*
X102730000Y-24725512D01*
X102266778Y-24812673D01*
X101841337Y-25086437D01*
X101555924Y-25504153D01*
X101455512Y-26000000D01*
X101455512Y-29000000D01*
X101542673Y-29463222D01*
X101816437Y-29888663D01*
X102162500Y-30125118D01*
X102162500Y-40400720D01*
X97951610Y-44611610D01*
X97611819Y-45120144D01*
X97492500Y-45720000D01*
X97492500Y-76681600D01*
X97310304Y-77120376D01*
X97309696Y-77816569D01*
X88520000Y-77816569D01*
X88520000Y-76946124D01*
X88348729Y-76085086D01*
X87860990Y-75355134D01*
X87131038Y-74867395D01*
X86270000Y-74696124D01*
X85408962Y-74867395D01*
X85347068Y-74908751D01*
X85225847Y-74825924D01*
X84730000Y-74725512D01*
X82730000Y-74725512D01*
X82266778Y-74812673D01*
X81841337Y-75086437D01*
X81577500Y-75472575D01*
X81577500Y-62879280D01*
X84838390Y-59618390D01*
X85178181Y-59109857D01*
X85297500Y-58510000D01*
X85297500Y-55120226D01*
X85344843Y-55089762D01*
X85408962Y-55132605D01*
X86270000Y-55303876D01*
X87131038Y-55132605D01*
X87860990Y-54644866D01*
X88348729Y-53914914D01*
X88520000Y-53053876D01*
X88520000Y-51946124D01*
X88348729Y-51085086D01*
X88155000Y-50795150D01*
X88155000Y-29204850D01*
X88348729Y-28914914D01*
X88520000Y-28053876D01*
X88520000Y-26946124D01*
X88348729Y-26085086D01*
X87860990Y-25355134D01*
X87131038Y-24867395D01*
X86270000Y-24696124D01*
X85408962Y-24867395D01*
X85347068Y-24908751D01*
X85225847Y-24825924D01*
X84730000Y-24725512D01*
X82730000Y-24725512D01*
X82266778Y-24812673D01*
X81841337Y-25086437D01*
X81555924Y-25504153D01*
X81455512Y-26000000D01*
X81455512Y-29000000D01*
X81542673Y-29463222D01*
X81816437Y-29888663D01*
X82162500Y-30125118D01*
X82162500Y-37540720D01*
X77631610Y-42071610D01*
X77291819Y-42580144D01*
X77172500Y-43180000D01*
X77172500Y-76681600D01*
X76990304Y-77120376D01*
X76989696Y-77816569D01*
X68520000Y-77816569D01*
X68520000Y-76946124D01*
X68348729Y-76085086D01*
X67860990Y-75355134D01*
X67131038Y-74867395D01*
X66270000Y-74696124D01*
X65408962Y-74867395D01*
X65347068Y-74908751D01*
X65225847Y-74825924D01*
X64730000Y-74725512D01*
X62730000Y-74725512D01*
X62266778Y-74812673D01*
X61841337Y-75086437D01*
X61729579Y-75250000D01*
X61257500Y-75250000D01*
X61257500Y-65419280D01*
X64838390Y-61838390D01*
X65178181Y-61329856D01*
X65297500Y-60730000D01*
X65297500Y-55120226D01*
X65344843Y-55089762D01*
X65408962Y-55132605D01*
X66270000Y-55303876D01*
X67131038Y-55132605D01*
X67860990Y-54644866D01*
X68348729Y-53914914D01*
X68520000Y-53053876D01*
X68520000Y-51946124D01*
X68348729Y-51085086D01*
X68155000Y-50795150D01*
X68155000Y-29204850D01*
X68348729Y-28914914D01*
X68520000Y-28053876D01*
X68520000Y-26946124D01*
X68348729Y-26085086D01*
X67860990Y-25355134D01*
X67131038Y-24867395D01*
X66270000Y-24696124D01*
X65408962Y-24867395D01*
X65347068Y-24908751D01*
X65225847Y-24825924D01*
X64730000Y-24725512D01*
X62730000Y-24725512D01*
X62266778Y-24812673D01*
X61841337Y-25086437D01*
X61555924Y-25504153D01*
X61455512Y-26000000D01*
X61455512Y-29000000D01*
X61542673Y-29463222D01*
X61816437Y-29888663D01*
X62162500Y-30125118D01*
X62162500Y-37220720D01*
X57311610Y-42071610D01*
X56971819Y-42580144D01*
X56852500Y-43180000D01*
X56852500Y-76681600D01*
X56670304Y-77120376D01*
X56669696Y-77816569D01*
X48520000Y-77816569D01*
X48520000Y-76946124D01*
X48348729Y-76085086D01*
X47860990Y-75355134D01*
X47131038Y-74867395D01*
X46270000Y-74696124D01*
X45408962Y-74867395D01*
X45347068Y-74908751D01*
X45225847Y-74825924D01*
X44730000Y-74725512D01*
X42730000Y-74725512D01*
X42266778Y-74812673D01*
X41841337Y-75086437D01*
X41555924Y-75504153D01*
X41505897Y-75751194D01*
X41500000Y-75750000D01*
X41000000Y-75750000D01*
X40937500Y-75761760D01*
X40937500Y-66689280D01*
X44838390Y-62788390D01*
X45178181Y-62279856D01*
X45297500Y-61680000D01*
X45297500Y-55120226D01*
X45344843Y-55089762D01*
X45408962Y-55132605D01*
X46270000Y-55303876D01*
X47131038Y-55132605D01*
X47860990Y-54644866D01*
X48348729Y-53914914D01*
X48520000Y-53053876D01*
X48520000Y-51946124D01*
X48348729Y-51085086D01*
X48155000Y-50795150D01*
X48155000Y-29204850D01*
X48348729Y-28914914D01*
X48520000Y-28053876D01*
X48520000Y-26946124D01*
X48348729Y-26085086D01*
X47860990Y-25355134D01*
X47131038Y-24867395D01*
X46270000Y-24696124D01*
X45408962Y-24867395D01*
X45347068Y-24908751D01*
X45225847Y-24825924D01*
X44730000Y-24725512D01*
X42730000Y-24725512D01*
X42266778Y-24812673D01*
X41841337Y-25086437D01*
X41555924Y-25504153D01*
X41455512Y-26000000D01*
X41455512Y-29000000D01*
X41542673Y-29463222D01*
X41816437Y-29888663D01*
X42162500Y-30125118D01*
X42162500Y-34360720D01*
X36991610Y-39531610D01*
X36651819Y-40040144D01*
X36532500Y-40640000D01*
X36532500Y-76681600D01*
X36350304Y-77120376D01*
X36349696Y-77816569D01*
X33317500Y-77816569D01*
X33317500Y-42698400D01*
X33499696Y-42259624D01*
X33500304Y-41563431D01*
X33234443Y-40919999D01*
X32742590Y-40427287D01*
X32099624Y-40160304D01*
X31403431Y-40159696D01*
X30759999Y-40425557D01*
X30682863Y-40502558D01*
X30656777Y-40463223D01*
X28155000Y-37961446D01*
X28155000Y-29204850D01*
X28348729Y-28914914D01*
X28520000Y-28053876D01*
X28520000Y-26946124D01*
X28348729Y-26085086D01*
X27860990Y-25355134D01*
X27131038Y-24867395D01*
X26270000Y-24696124D01*
X25408962Y-24867395D01*
X25347068Y-24908751D01*
X25225847Y-24825924D01*
X24730000Y-24725512D01*
X22730000Y-24725512D01*
X22266778Y-24812673D01*
X21841337Y-25086437D01*
X21555924Y-25504153D01*
X21455512Y-26000000D01*
X16325000Y-26000000D01*
X16325000Y-20564413D01*
X17149506Y-20564413D01*
X17582479Y-21612286D01*
X18383497Y-22414704D01*
X19430613Y-22849504D01*
X20564413Y-22850494D01*
X21612286Y-22417521D01*
X22414704Y-21616503D01*
X22849504Y-20569387D01*
X22850494Y-19435587D01*
X22417521Y-18387714D01*
X21616503Y-17585296D01*
X20569387Y-17150496D01*
X19435587Y-17149506D01*
X18387714Y-17582479D01*
X17585296Y-18383497D01*
X17150496Y-19430613D01*
X17149506Y-20564413D01*
X16325000Y-20564413D01*
X16325000Y-16325000D01*
X253675000Y-16325000D01*
X253675000Y-213675000D01*
M02*
