M48
;DRILL file {KiCad 4.0.7-e2-6376~58~ubuntu17.04.1} date Sun Oct 22 18:08:02 2017
;FORMAT={-:-/ absolute / inch / decimal}
FMAT,2
INCH,TZ
T1C0.020
T2C0.035
%
G90
G05
M72
T1
X1.2Y-7.55
X1.25Y-1.65
X1.25Y-3.35
X1.25Y-5.6
X1.25Y-6.55
X1.5Y-3.05
X1.5Y-5.05
X1.5Y-7.
X2.3Y-3.05
X2.3Y-5.05
X2.3Y-7.
X3.1Y-3.05
X3.1Y-5.05
X3.1Y-7.
X3.9Y-3.05
X3.9Y-5.05
X3.9Y-7.
X4.35Y-1.
X4.35Y-1.05
X4.35Y-8.
X4.35Y-8.05
X4.4Y-1.
X4.4Y-1.05
X4.4Y-1.4
X4.4Y-2.55
X4.4Y-3.55
X4.4Y-6.7
X4.4Y-7.3
X4.4Y-8.
X4.4Y-8.05
X4.55Y-1.
X4.55Y-1.05
X4.55Y-6.8
X4.55Y-8.
X4.55Y-8.05
X4.6Y-1.
X4.6Y-1.05
X4.6Y-8.
X4.6Y-8.05
X4.7Y-3.05
X4.7Y-5.05
X4.7Y-7.
X5.Y-0.9
X5.Y-8.15
X5.2Y-0.9
X5.2Y-8.15
X5.25Y-2.6
X5.3031Y-3.6031
X5.35Y-6.55
X5.4Y-0.9
X5.4Y-8.15
X5.45Y-3.05
X5.45Y-5.05
X5.45Y-7.
X5.45Y-7.4
X5.6Y-0.9
X5.6Y-8.15
X5.9Y-0.9
X5.9Y-5.7
X5.9Y-8.15
X6.05Y-5.75
X6.1Y-0.9
X6.1Y-6.35
X6.1Y-8.15
X6.15Y-5.8
X6.2Y-6.3
X6.25Y-3.05
X6.25Y-5.05
X6.25Y-7.
X6.3Y-0.9
X6.3Y-8.15
X6.5Y-0.9
X6.5Y-5.3
X6.5Y-8.15
X6.55Y-4.8
X6.55Y-5.35
X6.55Y-5.55
X6.55Y-5.65
X6.6Y-5.25
X6.6Y-5.4
X6.6Y-5.5
X6.6Y-5.6
X6.65Y-4.6
X6.65Y-5.2
X6.65Y-5.7
X6.65Y-6.3
X6.725Y-6.125
X6.75Y-5.
X6.75Y-6.8
X6.8Y-0.9
X6.8Y-4.65
X6.8Y-8.15
X6.85Y-5.15
X6.85Y-5.7
X6.85Y-6.35
X6.95Y-4.7
X7.05Y-4.75
X7.1Y-0.8
X7.1Y-4.55
X7.1Y-8.25
X7.15Y-4.6
X7.15Y-4.7
X7.15Y-5.2
X7.15Y-5.3
X7.15Y-5.4
X7.15Y-5.5
X7.15Y-5.6
X7.2Y-4.75
X7.2Y-5.15
X7.2Y-5.25
X7.2Y-5.35
X7.2Y-5.55
X7.2Y-5.65
X7.25Y-1.55
X7.45Y-1.75
X7.45Y-7.6
X7.5Y-3.5
X7.5Y-4.55
X7.5Y-6.8
X7.55Y-2.5
X7.55Y-5.4
X7.55Y-6.2
X7.6Y-4.85
X7.6Y-5.65
X7.6469Y-1.5469
X7.7Y-7.45
X7.75Y-5.05
X7.75Y-5.6
X7.8Y-5.35
X7.8Y-6.
X7.85Y-5.2
X7.85Y-7.
X7.9Y-4.7
X8.55Y-5.05
X8.55Y-5.55
X8.6Y-5.3
X8.6Y-6.
X8.65Y-5.15
X8.65Y-7.
X8.7Y-4.75
X9.35Y-5.05
X9.35Y-5.5
X9.4Y-5.25
X9.4Y-6.
X9.45Y-4.6
X9.45Y-7.
X9.5Y-4.8
T2
X0.9343Y-1.0827
X0.9343Y-2.0669
X0.9343Y-3.0512
X0.9343Y-4.0354
X0.9343Y-5.0197
X0.9343Y-6.0039
X0.9343Y-6.9882
X0.9343Y-7.9724
X1.0343Y-1.0827
X1.0343Y-2.0669
X1.0343Y-3.0512
X1.0343Y-4.0354
X1.0343Y-5.0197
X1.0343Y-6.0039
X1.0343Y-6.9882
X1.0343Y-7.9724
X1.7217Y-1.0827
X1.7217Y-2.0669
X1.7217Y-3.0512
X1.7217Y-4.0354
X1.7217Y-5.0197
X1.7217Y-6.0039
X1.7217Y-6.9882
X1.7217Y-7.9724
X1.8217Y-1.0827
X1.8217Y-2.0669
X1.8217Y-3.0512
X1.8217Y-4.0354
X1.8217Y-5.0197
X1.8217Y-6.0039
X1.8217Y-6.9882
X1.8217Y-7.9724
X2.5091Y-1.0827
X2.5091Y-2.0669
X2.5091Y-3.0512
X2.5091Y-4.0354
X2.5091Y-5.0197
X2.5091Y-6.0039
X2.5091Y-6.9882
X2.5091Y-7.9724
X2.6091Y-1.0827
X2.6091Y-2.0669
X2.6091Y-3.0512
X2.6091Y-4.0354
X2.6091Y-5.0197
X2.6091Y-6.0039
X2.6091Y-6.9882
X2.6091Y-7.9724
X3.2965Y-1.0827
X3.2965Y-2.0669
X3.2965Y-3.0512
X3.2965Y-4.0354
X3.2965Y-5.0197
X3.2965Y-6.0039
X3.2965Y-6.9882
X3.2965Y-7.9724
X3.3965Y-1.0827
X3.3965Y-2.0669
X3.3965Y-3.0512
X3.3965Y-4.0354
X3.3965Y-5.0197
X3.3965Y-6.0039
X3.3965Y-6.9882
X3.3965Y-7.9724
X4.0839Y-1.0827
X4.0839Y-2.0669
X4.0839Y-3.0512
X4.0839Y-4.0354
X4.0839Y-5.0197
X4.0839Y-6.0039
X4.0839Y-6.9882
X4.0839Y-7.9724
X4.1839Y-1.0827
X4.1839Y-2.0669
X4.1839Y-3.0512
X4.1839Y-4.0354
X4.1839Y-5.0197
X4.1839Y-6.0039
X4.1839Y-6.9882
X4.1839Y-7.9724
X4.8713Y-1.0827
X4.8713Y-2.0669
X4.8713Y-3.0512
X4.8713Y-4.0354
X4.8713Y-5.0197
X4.8713Y-6.0039
X4.8713Y-6.9882
X4.8713Y-7.9724
X4.9713Y-1.0827
X4.9713Y-2.0669
X4.9713Y-3.0512
X4.9713Y-4.0354
X4.9713Y-5.0197
X4.9713Y-6.0039
X4.9713Y-6.9882
X4.9713Y-7.9724
X5.6587Y-1.0827
X5.6587Y-2.0669
X5.6587Y-3.0512
X5.6587Y-4.0354
X5.6587Y-5.0197
X5.6587Y-6.0039
X5.6587Y-6.9882
X5.6587Y-7.9724
X5.7587Y-1.0827
X5.7587Y-2.0669
X5.7587Y-3.0512
X5.7587Y-4.0354
X5.7587Y-5.0197
X5.7587Y-6.0039
X5.7587Y-6.9882
X5.7587Y-7.9724
X6.4461Y-1.0827
X6.4461Y-2.0669
X6.4461Y-3.0512
X6.4461Y-4.0354
X6.4461Y-5.0197
X6.4461Y-6.0039
X6.4461Y-6.9882
X6.4461Y-7.9724
X6.5461Y-1.0827
X6.5461Y-2.0669
X6.5461Y-3.0512
X6.5461Y-4.0354
X6.5461Y-5.0197
X6.5461Y-6.0039
X6.5461Y-6.9882
X6.5461Y-7.9724
X7.2335Y-1.0827
X7.2335Y-2.0669
X7.2335Y-3.0512
X7.2335Y-4.0354
X7.2335Y-5.0197
X7.2335Y-6.0039
X7.2335Y-6.9882
X7.2335Y-7.9724
X7.3335Y-1.0827
X7.3335Y-2.0669
X7.3335Y-3.0512
X7.3335Y-4.0354
X7.3335Y-5.0197
X7.3335Y-6.0039
X7.3335Y-6.9882
X7.3335Y-7.9724
X8.0209Y-1.0827
X8.0209Y-2.0669
X8.0209Y-3.0512
X8.0209Y-4.0354
X8.0209Y-5.0197
X8.0209Y-6.0039
X8.0209Y-6.9882
X8.0209Y-7.9724
X8.1209Y-1.0827
X8.1209Y-2.0669
X8.1209Y-3.0512
X8.1209Y-4.0354
X8.1209Y-5.0197
X8.1209Y-6.0039
X8.1209Y-6.9882
X8.1209Y-7.9724
X8.8083Y-1.0827
X8.8083Y-2.0669
X8.8083Y-3.0512
X8.8083Y-4.0354
X8.8083Y-5.0197
X8.8083Y-6.0039
X8.8083Y-6.9882
X8.8083Y-7.9724
X8.9083Y-1.0827
X8.9083Y-2.0669
X8.9083Y-3.0512
X8.9083Y-4.0354
X8.9083Y-5.0197
X8.9083Y-6.0039
X8.9083Y-6.9882
X8.9083Y-7.9724
X9.5957Y-1.0827
X9.5957Y-2.0669
X9.5957Y-3.0512
X9.5957Y-4.0354
X9.5957Y-5.0197
X9.5957Y-6.0039
X9.5957Y-6.9882
X9.5957Y-7.9724
X9.6957Y-1.0827
X9.6957Y-2.0669
X9.6957Y-3.0512
X9.6957Y-4.0354
X9.6957Y-5.0197
X9.6957Y-6.0039
X9.6957Y-6.9882
X9.6957Y-7.9724
T0
M30
